<?xml version="1.0" encoding="utf-8"?>
<!-- Generator: Adobe Illustrator 14.0.0, SVG Export Plug-In . SVG Version: 6.00 Build 43363)  -->
<!DOCTYPE svg PUBLIC "-//W3C//DTD SVG 1.1//EN" "http://www.w3.org/Graphics/SVG/1.1/DTD/svg11.dtd">
<svg version="1.1" id="Layer_1" xmlns="http://www.w3.org/2000/svg" xmlns:xlink="http://www.w3.org/1999/xlink" x="0px" y="0px"
	 width="298.893px" height="55.117px" viewBox="0 0 298.893 55.117" enable-background="new 0 0 298.893 55.117"
	 xml:space="preserve">
<g>
	<path fill="#ED1C2E" d="M139.967,47.705h-2.612v1.54h12.556v-1.528h-2.858c-0.88,0-1.026-0.525-1.026-1.167l0.012-19.913
		c0-1.748-0.584-7.822-7.468-7.822c-6.895,0-8.815,5.43-9.931,7.066l-0.23-0.006l-0.021-6.009c0-0.7,0.119-1.046-1.326-0.583
		c-1.457,0.469-5.719,0.334-8.051,0.334v1.04h3.309c0.701,0,0.921,0.104,0.921,0.976v25.093c0,0.876-0.22,0.979-0.921,0.979h-2.61
		v1.54h12.55v-1.528h-2.949c-0.872,0-0.93-0.119-0.93-0.936V30.96c0-3.389,2.947-10.157,8.665-10.157
		c4.323,0,3.872,5.722,3.872,5.722l-0.025,19.966C140.891,47.364,140.669,47.705,139.967,47.705z"/>
	<path fill="#ED1C2E" d="M68.885,8.945c0-0.759-0.204-1.085-1.079-1.085h-3.211V6.555h17.513c0.998,0,11.445-0.056,11.445,9.342
		c0,9.4-9.05,10.303-10.685,10.713v0.177c0,0,3.68,0.729,5.896,3.005c2.802,2.88,3.328,4.556,3.328,9.806
		c0,5.259,0.407,8.293,3.388,8.293c2.974,0,3.852-1.695,4.785-2.506l0.817,1.165c-1.751,2.104-4.611,3.149-6.306,3.149
		c-1.696,0-4.205-0.407-6.832-3.264c-2.625-2.865-2.231-8.276-2.231-12.135c0-4.14-3.78-7.273-6.702-7.273h-3.327
		c-0.522,0-0.845,0.207-0.845,0.852v18.891c0,0.818,0.06,0.936,0.937,0.936h3.355v1.531H64.537v-1.52h3.43
		c0.698,0,0.919-0.104,0.919-0.977V8.945z M80.884,25.464c3.035,0,6.888-1.395,6.888-8.81c0-7.413-3.794-8.776-6.129-8.776h-5.972
		c-0.522,0-0.845,0.198-0.845,0.843v15.891c0,0.642,0.322,0.843,0.845,0.843L80.884,25.464z"/>
	<path fill="#ED1C2E" d="M225.844,46.804c0,0.817,0.061,0.932,0.936,0.932h3.494v1.532h-14.288v-1.541h3.798
		c0.702,0,0.926-0.103,0.926-0.979V9.697c0-0.814-0.379-1.139-1.141-1.139h-4.058V7.395c5.854,0,7.882-0.257,10.333-0.931V46.804z"
		/>
	<path fill="#ED1C2E" d="M293.215,22.125c-0.148,1.234,0.319,3.806,2.75,3.806c2.69,0,2.901-2.396,2.918-2.628
		c0.055-0.879,0-4.611-4.209-4.611c-3.495,0-6.126,4.084-7.588,6.882h-0.277v-6.099c0-0.164-0.054-0.405-0.424-0.303
		c-2.637,0.539-7.836,0.589-9.936,0.589v1.192c1.142-0.021,4.074,0.179,4.074,0.179c0.759,0,1.134,0.319,1.134,1.137l-0.003,24.48
		c0,0.876-0.217,0.979-0.914,0.979h-3.428v1.541h14.533v-1.532h-4.111c-0.879,0-0.938-0.114-0.938-0.932V30.981
		c0-4.207,3.192-8.514,5.236-9.308C292.68,21.454,293.29,21.396,293.215,22.125z"/>
	<path fill="#ED1C2E" d="M245.757,44.636c-0.069,0.111-0.202,0.246-0.352,0.449c-1.989,2.773-5.603,4.323-8.647,4.323
		c-2.216,0-7.694-1.986-7.694-7.708c0-8.053,11.203-10.389,15.403-10.389c0.938,0,0.938-0.583,0.938-1.403v-6.773
		c0-1.172,0.234-3.97-4.79-3.97c-5.023,0-7.008,2.455-7.475,2.921c-0.467,0.469-1.165,1.049,0.121,1.522
		c1.28,0.461,1.75,1.514,1.75,2.682c0,1.166-0.814,2.098-1.984,2.098c-1.605,0-2.881-1.066-2.881-2.842
		c0-6.185,8.134-7.544,11.758-7.544c3.618,0,8.282,1.163,8.282,5.953v19.38c0,0-0.229,2.918,1.987,2.918
		c2.221,0,2.864-2.273,3.621-4.38h0.934c-0.495,2.657-3.031,7.418-6.419,7.418c-3.384,0-4.207-3.384-4.207-3.97
		c0-0.196-0.007-0.489-0.034-0.688L245.757,44.636z M239.684,46.839c3.975,0,5.722-4.087,5.722-5.836V33.53
		c0,0,0.345-1.052-1.401-1.052c-6.539,0-10.506,3.267-10.506,7.939C233.499,43.335,235.708,46.839,239.684,46.839z"/>
	<path fill="#ED1C2E" d="M149.69,39.369h1.02c0.471,1.986,3.633,9.583,9.996,9.583c6.365,0,6.947-6.023,6.947-7.017
		s0.115-4.321-6.892-5.254c-7.005-0.937-11.149-3.971-11.149-9.166c0-5.193,3.793-9.343,9.286-9.343
		c4.438,0,6.249,3.041,6.249,3.041h0.284l1.347-2.159h0.687v8.344h-0.926c-0.403-1.869-2.446-8.135-7.583-8.135
		c-5.139,0-6.654,4.414-6.654,6.573c0,4.67,8.05,3.545,12.201,5.297c4.102,1.731,5.428,5.139,5.428,8.643
		c0,3.267-1.695,10.277-9.345,10.277c-3.442,0-6.769-2.104-7.817-3.329l-2.339,2.512h-0.743L149.69,39.369z"/>
	<path fill="#ED1C2E" d="M119.735,39.474c-1.865,6.618-5.097,10.573-11.27,10.573c-3.492,0-7.072-1.667-9.091-4.541
		c-2.396-3.407-3.822-6.659-3.822-11.133c0-8.675,5.509-16.702,12.288-16.702c6.013,0,11.829,5.111,11.829,11.768
		c0,0.353,0.043,1.551,0.043,1.551l-17.33,0.009c-0.524,0-0.845,0.204-0.845,0.85v7.872c0,2.447,0.876,8.883,7.822,8.883
		c6.508,0,8.436-7.069,9.298-9.454L119.735,39.474z M114.288,26.234c0-1.695-0.722-7.484-6.389-7.484
		c-5.431,0-6.375,5.32-6.375,7.484v2.346c0,0.643,0.322,0.846,0.848,0.846h11.066c0.524,0,0.846-0.203,0.846-0.846L114.288,26.234z"
		/>
	<path fill="#ED1C2E" d="M171.167,39.369h1.019c0.465,1.986,3.623,9.583,9.988,9.583c6.369,0,6.951-6.023,6.951-7.017
		s0.121-4.321-6.896-5.254c-7.003-0.937-11.144-3.971-11.144-9.166c0-5.193,3.796-9.343,9.28-9.343c4.436,0,6.243,3.041,6.243,3.041
		h0.297l1.342-2.159h0.685v8.344h-0.915c-0.412-1.869-2.457-8.135-7.599-8.135c-5.134,0-6.645,4.414-6.645,6.573
		c0,4.67,8.054,3.545,12.196,5.297c4.102,1.731,5.432,5.139,5.432,8.643c0,3.267-1.696,10.277-9.342,10.277
		c-3.446,0-6.775-2.104-7.824-3.329l-2.332,2.512h-0.742L171.167,39.369z"/>
	<path fill="#ED1C2E" d="M217.6,39.474c-1.869,6.618-5.098,10.573-11.264,10.573c-3.502,0-7.078-1.667-9.095-4.541
		c-2.391-3.407-3.826-6.659-3.826-11.133c0-8.675,5.508-16.702,12.293-16.702c6.015,0,11.827,5.111,11.827,11.768
		c0,0.353,0.045,1.551,0.045,1.551l-17.332,0.009c-0.521,0-0.851,0.204-0.851,0.85v7.872c0,2.447,0.879,8.883,7.829,8.883
		c6.503,0,8.539-7.104,9.297-9.454L217.6,39.474z M212.155,26.234c0-1.695-0.732-7.484-6.387-7.484c-5.434,0-6.379,5.32-6.379,7.484
		v2.346c0,0.643,0.32,0.846,0.847,0.846h11.068c0.522,0,0.849-0.203,0.849-0.846L212.155,26.234z"/>
	<path fill="#ED1C2E" d="M278.059,39.474c-1.862,6.618-5.097,10.573-11.272,10.573c-3.495,0-7.078-1.667-9.089-4.541
		c-2.398-3.407-3.818-6.659-3.818-11.133c0-8.675,5.508-16.702,12.28-16.702c6.015,0,11.83,5.111,11.83,11.768
		c0,0.353,0.044,1.551,0.044,1.551l-17.329,0.009c-0.527,0-0.845,0.204-0.845,0.85v7.872c0,2.447,0.871,8.883,7.818,8.883
		c6.504,0,8.548-7.104,9.299-9.454L278.059,39.474z M272.608,26.234c0-1.695-0.721-7.484-6.383-7.484
		c-5.436,0-6.382,5.32-6.382,7.484v2.346c0,0.643,0.327,0.846,0.85,0.846h11.069c0.521,0,0.843-0.203,0.843-0.846L272.608,26.234z"
		/>
</g>
<g>
	<path d="M20.457,47.871c0.386,0.135,0.563,0.577,0.42,0.993c-0.149,0.433-0.562,0.659-0.945,0.527
		c-0.37-0.128-0.566-0.571-0.421-0.996C19.655,47.973,20.088,47.745,20.457,47.871z"/>
	<path d="M24.348,51.612l-1.906-0.331l0.021-0.131c0.589,0.102,0.64-0.115,0.701-0.464l0.376-2.177
		c0.024-0.135,0.066-0.384-0.134-0.42c-0.069-0.011-0.254,0.027-0.437,0.071l0.026-0.149l1.383-0.393l0.089,0.015l-0.557,3.214
		c-0.063,0.378-0.044,0.537,0.46,0.63L24.348,51.612z"/>
	<path d="M27.497,48.716c-0.023,0.484-0.455,0.669-0.739,0.757c0.427,0.316,0.737,0.729,0.709,1.263
		c-0.037,0.724-0.536,1.14-1.273,1.098c-0.556-0.025-1.06-0.38-1.022-1.018c0.027-0.625,0.467-0.821,0.818-0.924
		c-0.373-0.264-0.686-0.624-0.659-1.099c0.026-0.534,0.397-1.002,1.222-0.961C27.333,47.871,27.513,48.384,27.497,48.716z
		 M26.637,49.362c0.125-0.17,0.227-0.305,0.244-0.645c0.017-0.293-0.041-0.703-0.423-0.727c-0.251-0.012-0.433,0.211-0.444,0.445
		C25.986,48.969,26.588,49.333,26.637,49.362z M26.239,51.656c0.459,0.021,0.484-0.495,0.495-0.647
		c0.023-0.47-0.3-0.729-0.638-1.008c-0.168,0.251-0.283,0.425-0.307,0.839C25.772,51.251,25.903,51.64,26.239,51.656z"/>
	<path d="M30.113,51.685l-2.138,0.138l-0.01-0.132c0.768-1.043,1.34-1.836,1.297-2.517c-0.013-0.152-0.131-0.721-0.66-0.688
		c-0.12,0.006-0.436,0.064-0.594,0.557l-0.145,0.006c0.08-0.325,0.33-1.189,1.055-1.239c0.318-0.018,0.965,0.141,1.025,1.011
		c0.009,0.164,0.035,0.601-0.509,1.262l-0.776,0.936l0.776-0.053c0.546-0.035,0.587-0.097,0.708-0.49l0.124-0.008L30.113,51.685z"/>
	<path d="M32.932,49.731l0.119,0.627l-0.319,0.059l0.149,0.81l-0.736,0.143l-0.148-0.814l-1.259,0.236l-0.12-0.635
		c0.304-0.885,0.794-1.963,1.137-2.729l0.4-0.075l0.458,2.44L32.932,49.731z M31.579,48.272l-0.012,0.005l-0.736,1.847l1.061-0.193
		L31.579,48.272z"/>
	<path d="M34.921,47.771c0.385-0.138,0.803,0.094,0.953,0.51c0.154,0.425-0.023,0.855-0.403,1.002
		c-0.367,0.129-0.799-0.085-0.949-0.507C34.368,48.359,34.555,47.904,34.921,47.771z"/>
</g>
<path d="M38.969,40.892c0.322-0.278,0.636-0.565,0.94-0.867c3.329-3.302,5.175-7.699,5.194-12.387
	c0.021-4.69-1.786-9.105-5.086-12.434c-3.299-3.326-7.699-5.172-12.387-5.19c-4.686-0.022-9.102,1.782-12.432,5.082
	c-3.326,3.3-5.171,7.699-5.189,12.384c-0.022,4.69,1.781,9.105,5.082,12.434c0.336,0.338,0.682,0.66,1.039,0.97l1.003-0.586
	c-0.438-0.36-0.86-0.744-1.268-1.154c-3.091-3.12-4.786-7.26-4.765-11.655c0.018-4.395,1.746-8.521,4.868-11.616
	c3.121-3.093,7.262-4.787,11.656-4.766c4.396,0.019,8.521,1.748,11.616,4.869c3.096,3.12,4.788,7.26,4.769,11.657
	c-0.021,4.397-1.749,8.521-4.871,11.616c-0.386,0.384-0.788,0.744-1.207,1.084L38.969,40.892z M34.427,42.521
	c-2.149,0.987-4.506,1.503-6.942,1.491h-0.001c-2.433-0.009-4.784-0.545-6.921-1.547l-1.314,0.563
	c2.502,1.345,5.313,2.067,8.231,2.08h-0.001c2.972,0.013,5.836-0.709,8.379-2.077L34.427,42.521z"/>
<line fill="none" stroke="#000000" stroke-width="0.1822" x1="37.352" y1="23.337" x2="17.755" y2="23.337"/>
<path d="M30.011,23.337v14.918c0,0,4.38-3.729,5.802-5.09c1.422-1.358,1.656-3.084,1.598-4.266l-0.059-5.563H30.011z"/>
<path d="M25.217,23.337v14.918c0,0-4.38-3.729-5.803-5.09c-1.422-1.358-1.659-3.084-1.6-4.266l0.063-5.563H25.217z"/>
<line fill="none" stroke="#000000" stroke-width="0.2731" x1="27.583" y1="23.337" x2="27.583" y2="15.253"/>
<line fill="none" stroke="#000000" stroke-width="0.2731" x1="37.292" y1="19.474" x2="17.755" y2="19.474"/>
<path d="M37.962,16.427c0,0,0.011,0.005-0.501,0.005h-1.522v0.487h-1.358v-0.487h-1.342v0.487h-1.325v-0.487h-1.339v0.487h-1.346
	v-0.487h-1.602l-0.021,0.902h1.622v0.513h1.346v-0.513h1.322v0.513h1.342v-0.513h1.357v0.513h1.343v-0.513h1.53h0.07L37.962,16.427z
	"/>
<polygon points="29.883,15.425 30.055,15.724 30.403,15.724 30.232,16.02 30.403,16.322 30.055,16.322 29.883,16.621 29.711,16.322 
	29.37,16.322 29.54,16.02 29.37,15.724 29.711,15.724 "/>
<polygon points="35.247,15.425 35.418,15.724 35.76,15.724 35.592,16.02 35.76,16.322 35.418,16.322 35.247,16.621 35.077,16.322 
	34.732,16.322 34.9,16.02 34.732,15.724 35.077,15.724 "/>
<polygon points="32.581,18.038 32.752,18.333 33.098,18.333 32.925,18.635 33.098,18.937 32.752,18.934 32.581,19.232 
	32.408,18.934 32.061,18.937 32.235,18.635 32.061,18.333 32.408,18.333 "/>
<path stroke="#000000" stroke-width="0.1093" stroke-linejoin="round" d="M25.236,21.348c0.495,0,1.2-0.085,1.221-0.202
	c0.015-0.126,0.12-0.533,0.414-0.703c-0.131-0.094-0.233-0.102-0.399,0.05c-0.092-0.091-0.205-0.006-0.284,0.067
	c0.185,0.063,0.169,0.161,0.089,0.226c-0.085,0.062-0.176,0.073-0.312,0.026c-0.106-0.041-0.231-0.111-0.208-0.214
	c0.018-0.073,0.072-0.161,0.216-0.105c-0.118-0.401-0.534-0.258-0.534-0.258s-0.106-0.284-0.202-0.284
	c-0.093,0-0.199,0.284-0.199,0.284s-0.417-0.144-0.536,0.258c0.144-0.056,0.199,0.032,0.216,0.105
	c0.023,0.103-0.085,0.173-0.192,0.214c-0.135,0.047-0.243,0.035-0.326-0.026c-0.081-0.064-0.097-0.163,0.088-0.226
	c-0.079-0.073-0.191-0.158-0.288-0.067c-0.16-0.151-0.265-0.144-0.395-0.05c0.293,0.17,0.395,0.577,0.411,0.703
	C24.035,21.263,24.745,21.348,25.236,21.348z"/>
<path fill="none" stroke="#000000" stroke-width="0.1641" d="M24.051,21.189c0-0.129,0.679-0.21,1.171-0.21s1.183,0.081,1.183,0.208
	"/>
<g>
	
		<line fill="none" stroke="#000000" stroke-width="0.1366" stroke-linejoin="round" x1="25.121" y1="21.005" x2="25.121" y2="21.316"/>
	
		<line fill="none" stroke="#000000" stroke-width="0.1366" stroke-linejoin="round" x1="24.93" y1="21.026" x2="24.93" y2="21.298"/>
	
		<line fill="none" stroke="#000000" stroke-width="0.1366" stroke-linejoin="round" x1="24.737" y1="21.032" x2="24.737" y2="21.287"/>
	
		<line fill="none" stroke="#000000" stroke-width="0.1366" stroke-linejoin="round" x1="24.547" y1="21.054" x2="24.547" y2="21.269"/>
	
		<line fill="none" stroke="#000000" stroke-width="0.1366" stroke-linejoin="round" x1="24.357" y1="21.07" x2="24.357" y2="21.254"/>
</g>
<line fill="none" stroke="#000000" stroke-width="0.1366" stroke-linejoin="round" x1="24.163" y1="21.111" x2="24.163" y2="21.24"/>
<g>
	
		<line fill="none" stroke="#000000" stroke-width="0.1366" stroke-linejoin="round" x1="25.312" y1="21.005" x2="25.312" y2="21.316"/>
	
		<line fill="none" stroke="#000000" stroke-width="0.1366" stroke-linejoin="round" x1="25.502" y1="21.026" x2="25.502" y2="21.342"/>
	
		<line fill="none" stroke="#000000" stroke-width="0.1366" stroke-linejoin="round" x1="25.695" y1="21.046" x2="25.695" y2="21.292"/>
	
		<line fill="none" stroke="#000000" stroke-width="0.1366" stroke-linejoin="round" x1="25.888" y1="21.064" x2="25.888" y2="21.269"/>
	
		<line fill="none" stroke="#000000" stroke-width="0.1366" stroke-linejoin="round" x1="26.079" y1="21.084" x2="26.079" y2="21.254"/>
</g>
<line fill="none" stroke="#000000" stroke-width="0.1366" stroke-linejoin="round" x1="26.272" y1="21.111" x2="26.272" y2="21.24"/>
<path fill="none" stroke="#000000" stroke-width="0.1093" stroke-linejoin="round" d="M25.962,20.493
	c-0.079-0.034-0.289,0.167,0.023,0.325"/>
<path fill="none" stroke="#000000" stroke-width="0.1093" stroke-linejoin="round" d="M24.508,20.49
	c0.08-0.032,0.298,0.17-0.014,0.328"/>
<path fill="none" stroke="#000000" stroke-width="0.1093" stroke-linejoin="round" d="M24.295,20.548c0,0-0.188,0.115-0.107,0.22"/>
<path fill="none" stroke="#000000" stroke-width="0.1093" stroke-linejoin="round" d="M26.154,20.552c0,0,0.211,0.111,0.133,0.216"
	/>
<path fill="none" stroke="#000000" stroke-width="0.1641" stroke-linejoin="round" d="M24.052,21.126
	c0.016,0.122,0.686,0.257,1.179,0.257s1.188-0.132,1.193-0.237"/>
<path stroke="#000000" stroke-width="0.1093" stroke-linejoin="round" d="M20.194,21.348c0.491,0,1.2-0.085,1.217-0.202
	c0.019-0.126,0.124-0.533,0.418-0.703c-0.134-0.094-0.236-0.102-0.399,0.05c-0.096-0.091-0.208-0.006-0.285,0.067
	c0.183,0.063,0.166,0.161,0.086,0.226c-0.084,0.062-0.173,0.073-0.311,0.026c-0.106-0.041-0.233-0.111-0.208-0.214
	c0.018-0.073,0.072-0.161,0.219-0.105c-0.125-0.401-0.537-0.258-0.537-0.258s-0.105-0.284-0.2-0.284
	c-0.094,0-0.202,0.284-0.202,0.284s-0.412-0.144-0.535,0.258c0.146-0.056,0.2,0.032,0.217,0.105
	c0.026,0.103-0.082,0.173-0.191,0.214c-0.137,0.047-0.245,0.035-0.325-0.026c-0.086-0.064-0.098-0.163,0.088-0.226
	c-0.081-0.073-0.192-0.158-0.288-0.067c-0.165-0.151-0.267-0.144-0.398-0.05c0.295,0.17,0.398,0.577,0.414,0.703
	C18.989,21.263,19.703,21.348,20.194,21.348z"/>
<path fill="none" stroke="#000000" stroke-width="0.1641" d="M19.007,21.189c0-0.129,0.679-0.21,1.171-0.21
	c0.49,0,1.183,0.081,1.183,0.208"/>
<g>
	
		<line fill="none" stroke="#000000" stroke-width="0.1366" stroke-linejoin="round" x1="20.077" y1="21.005" x2="20.077" y2="21.316"/>
	
		<line fill="none" stroke="#000000" stroke-width="0.1366" stroke-linejoin="round" x1="19.887" y1="21.026" x2="19.887" y2="21.298"/>
	
		<line fill="none" stroke="#000000" stroke-width="0.1366" stroke-linejoin="round" x1="19.696" y1="21.032" x2="19.696" y2="21.287"/>
	<line fill="none" stroke="#000000" stroke-width="0.1366" stroke-linejoin="round" x1="19.5" y1="21.054" x2="19.5" y2="21.269"/>
	
		<line fill="none" stroke="#000000" stroke-width="0.1366" stroke-linejoin="round" x1="19.311" y1="21.07" x2="19.311" y2="21.254"/>
</g>
<line fill="none" stroke="#000000" stroke-width="0.1366" stroke-linejoin="round" x1="19.119" y1="21.111" x2="19.119" y2="21.24"/>
<g>
	
		<line fill="none" stroke="#000000" stroke-width="0.1366" stroke-linejoin="round" x1="20.267" y1="21.005" x2="20.267" y2="21.316"/>
	
		<line fill="none" stroke="#000000" stroke-width="0.1366" stroke-linejoin="round" x1="20.459" y1="21.026" x2="20.459" y2="21.342"/>
	
		<line fill="none" stroke="#000000" stroke-width="0.1366" stroke-linejoin="round" x1="20.655" y1="21.046" x2="20.655" y2="21.292"/>
	
		<line fill="none" stroke="#000000" stroke-width="0.1366" stroke-linejoin="round" x1="20.844" y1="21.064" x2="20.844" y2="21.269"/>
	
		<line fill="none" stroke="#000000" stroke-width="0.1366" stroke-linejoin="round" x1="21.034" y1="21.084" x2="21.034" y2="21.254"/>
</g>
<line fill="none" stroke="#000000" stroke-width="0.1366" stroke-linejoin="round" x1="21.226" y1="21.111" x2="21.226" y2="21.24"/>
<path fill="none" stroke="#000000" stroke-width="0.1093" stroke-linejoin="round" d="M20.917,20.493
	c-0.075-0.034-0.286,0.167,0.026,0.325"/>
<path fill="none" stroke="#000000" stroke-width="0.1093" stroke-linejoin="round" d="M19.463,20.49
	c0.079-0.032,0.297,0.17-0.014,0.328"/>
<path fill="none" stroke="#000000" stroke-width="0.1093" stroke-linejoin="round" d="M19.255,20.548c0,0-0.189,0.115-0.109,0.22"/>
<path fill="none" stroke="#000000" stroke-width="0.1093" stroke-linejoin="round" d="M21.108,20.552c0,0,0.211,0.111,0.133,0.216"
	/>
<path fill="none" stroke="#000000" stroke-width="0.1641" stroke-linejoin="round" d="M19.007,21.126
	c0.02,0.122,0.688,0.257,1.179,0.257c0.493,0,1.19-0.132,1.193-0.237"/>
<path stroke="#000000" stroke-width="0.1093" stroke-linejoin="round" d="M22.681,22.875c0.489,0,1.198-0.082,1.216-0.205
	c0.02-0.117,0.123-0.536,0.414-0.697c-0.128-0.091-0.231-0.102-0.395,0.053c-0.096-0.097-0.207-0.009-0.286,0.059
	c0.185,0.066,0.169,0.17,0.083,0.231c-0.08,0.059-0.166,0.075-0.309,0.024c-0.105-0.036-0.233-0.106-0.208-0.218
	c0.017-0.064,0.074-0.161,0.214-0.097c-0.117-0.404-0.531-0.26-0.531-0.26s-0.105-0.285-0.2-0.285c-0.098,0-0.203,0.285-0.203,0.285
	s-0.412-0.145-0.533,0.26c0.146-0.064,0.202,0.032,0.216,0.097c0.023,0.111-0.081,0.182-0.189,0.218
	c-0.139,0.051-0.246,0.034-0.328-0.024c-0.08-0.062-0.098-0.165,0.084-0.231c-0.076-0.067-0.188-0.155-0.282-0.059
	c-0.166-0.154-0.269-0.144-0.399-0.053c0.296,0.161,0.399,0.58,0.416,0.697C21.476,22.792,22.188,22.875,22.681,22.875z"/>
<path fill="none" stroke="#000000" stroke-width="0.1641" d="M21.495,22.712c0-0.122,0.677-0.204,1.172-0.204
	c0.489,0,1.182,0.077,1.182,0.204"/>
<g>
	
		<line fill="none" stroke="#000000" stroke-width="0.1366" stroke-linejoin="round" x1="22.565" y1="22.538" x2="22.565" y2="22.842"/>
	
		<line fill="none" stroke="#000000" stroke-width="0.1366" stroke-linejoin="round" x1="22.371" y1="22.555" x2="22.371" y2="22.831"/>
	
		<line fill="none" stroke="#000000" stroke-width="0.1366" stroke-linejoin="round" x1="22.18" y1="22.558" x2="22.18" y2="22.813"/>
	
		<line fill="none" stroke="#000000" stroke-width="0.1366" stroke-linejoin="round" x1="21.988" y1="22.579" x2="21.988" y2="22.798"/>
	
		<line fill="none" stroke="#000000" stroke-width="0.1366" stroke-linejoin="round" x1="21.799" y1="22.602" x2="21.799" y2="22.778"/>
</g>
<line fill="none" stroke="#000000" stroke-width="0.1366" stroke-linejoin="round" x1="21.606" y1="22.634" x2="21.606" y2="22.765"/>
<g>
	
		<line fill="none" stroke="#000000" stroke-width="0.1366" stroke-linejoin="round" x1="22.756" y1="22.538" x2="22.756" y2="22.842"/>
	
		<line fill="none" stroke="#000000" stroke-width="0.1366" stroke-linejoin="round" x1="22.948" y1="22.555" x2="22.948" y2="22.872"/>
	
		<line fill="none" stroke="#000000" stroke-width="0.1366" stroke-linejoin="round" x1="23.135" y1="22.572" x2="23.135" y2="22.822"/>
	
		<line fill="none" stroke="#000000" stroke-width="0.1366" stroke-linejoin="round" x1="23.331" y1="22.593" x2="23.331" y2="22.798"/>
	
		<line fill="none" stroke="#000000" stroke-width="0.1366" stroke-linejoin="round" x1="23.522" y1="22.614" x2="23.522" y2="22.778"/>
</g>
<line fill="none" stroke="#000000" stroke-width="0.1366" stroke-linejoin="round" x1="23.711" y1="22.634" x2="23.711" y2="22.765"/>
<path fill="none" stroke="#000000" stroke-width="0.1093" stroke-linejoin="round" d="M23.403,22.025
	c-0.077-0.041-0.287,0.161,0.021,0.319"/>
<path fill="none" stroke="#000000" stroke-width="0.1093" stroke-linejoin="round" d="M21.949,22.019
	c0.079-0.038,0.299,0.167-0.013,0.325"/>
<path fill="none" stroke="#000000" stroke-width="0.1093" stroke-linejoin="round" d="M21.741,22.078c0,0-0.188,0.114-0.109,0.223"
	/>
<path fill="none" stroke="#000000" stroke-width="0.1093" stroke-linejoin="round" d="M23.595,22.081c0,0,0.21,0.111,0.132,0.22"/>
<g>
	<path d="M25.227,20.768c0.002,0.012,0.014,0.015,0.015-0.003c0.011-0.109,0.028-0.416,0.035-0.472
		c0.009-0.079-0.093-0.076-0.085-0.003C25.196,20.345,25.212,20.656,25.227,20.768z"/>
	<path d="M25.616,20.399c-0.088,0-0.209,0.091-0.166,0.308c0.007,0.015,0.03,0.012,0.027-0.006c0-0.021,0.003-0.199,0.15-0.262
		C25.645,20.437,25.643,20.399,25.616,20.399z"/>
	<path d="M24.846,20.399c0.089,0,0.209,0.091,0.166,0.308c-0.006,0.015-0.028,0.012-0.028-0.006c0.002-0.021,0-0.199-0.151-0.262
		C24.817,20.437,24.819,20.399,24.846,20.399z"/>
	<path d="M24.076,20.582c-0.02,0.039-0.064,0.074-0.004,0.207c0.008,0.038-0.011,0.056-0.034,0.015
		c-0.047-0.076-0.063-0.183-0.016-0.237C24.071,20.501,24.087,20.557,24.076,20.582z"/>
	<path d="M23.958,20.616c-0.014-0.047-0.033-0.099-0.099-0.117c-0.031-0.011-0.041,0.012-0.015,0.019
		c0.023,0.008,0.057,0.025,0.088,0.081C23.961,20.651,23.963,20.632,23.958,20.616z"/>
	<path d="M26.389,20.582c0.018,0.039,0.06,0.074,0.003,0.207c-0.009,0.038,0.009,0.056,0.035,0.015
		c0.042-0.076,0.06-0.183,0.013-0.237C26.393,20.501,26.378,20.557,26.389,20.582z"/>
	<path d="M26.503,20.616c0.015-0.047,0.033-0.099,0.103-0.117c0.034-0.011,0.041,0.012,0.013,0.019
		c-0.021,0.008-0.055,0.025-0.087,0.081C26.5,20.651,26.499,20.632,26.503,20.616z"/>
	<path d="M20.182,20.768c0.002,0.012,0.014,0.015,0.017-0.003c0.01-0.109,0.029-0.416,0.035-0.472
		c0.007-0.079-0.098-0.076-0.088-0.003C20.154,20.345,20.167,20.656,20.182,20.768z"/>
	<path d="M20.569,20.399c-0.083,0-0.208,0.091-0.162,0.308c0.003,0.015,0.028,0.012,0.027-0.006
		c-0.002-0.021,0.001-0.199,0.148-0.262C20.602,20.437,20.6,20.399,20.569,20.399z"/>
	<path d="M19.803,20.399c0.09,0,0.209,0.091,0.167,0.308c-0.007,0.015-0.028,0.012-0.027-0.006c0.002-0.021-0.001-0.199-0.154-0.262
		C19.773,20.437,19.774,20.399,19.803,20.399z"/>
	<path d="M19.033,20.582c-0.022,0.039-0.063,0.074-0.004,0.207c0.008,0.038-0.013,0.056-0.036,0.015
		c-0.045-0.076-0.063-0.183-0.014-0.237C19.028,20.501,19.045,20.557,19.033,20.582z"/>
	<path d="M18.916,20.616c-0.018-0.047-0.037-0.099-0.1-0.117c-0.034-0.011-0.043,0.012-0.017,0.019
		c0.027,0.008,0.055,0.025,0.084,0.081C18.918,20.651,18.919,20.632,18.916,20.616z"/>
	<path d="M21.342,20.582c0.021,0.039,0.061,0.074,0.008,0.207c-0.011,0.038,0.008,0.056,0.033,0.015
		c0.041-0.076,0.061-0.183,0.013-0.237C21.35,20.501,21.331,20.557,21.342,20.582z"/>
	<path d="M21.46,20.616c0.015-0.047,0.034-0.099,0.103-0.117c0.03-0.011,0.038,0.012,0.013,0.019
		c-0.022,0.008-0.054,0.025-0.087,0.081C21.458,20.651,21.456,20.632,21.46,20.616z"/>
	<path d="M22.668,22.296c0.003,0.013,0.016,0.016,0.017,0c0.011-0.119,0.028-0.415,0.036-0.477c0.006-0.08-0.096-0.078-0.089-0.002
		C22.641,21.875,22.656,22.179,22.668,22.296z"/>
	<path d="M23.057,21.928c-0.086,0-0.207,0.091-0.166,0.308c0.006,0.018,0.032,0.014,0.029-0.006
		c-0.001-0.021,0.003-0.199,0.15-0.267C23.088,21.96,23.086,21.928,23.057,21.928z"/>
	<path d="M22.288,21.928c0.09,0,0.209,0.091,0.17,0.308c-0.005,0.018-0.028,0.014-0.027-0.006c0.002-0.021-0.001-0.199-0.153-0.267
		C22.26,21.96,22.261,21.928,22.288,21.928z"/>
	<g>
		<circle cx="24.999" cy="20.803" r="0.023"/>
		<circle cx="24.882" cy="20.893" r="0.019"/>
		<path d="M24.719,20.929c-0.014,0-0.023-0.009-0.023-0.02c0-0.012,0.01-0.021,0.023-0.021c0.008,0,0.018,0.01,0.018,0.021
			C24.737,20.92,24.727,20.929,24.719,20.929z"/>
		<circle cx="24.523" cy="20.935" r="0.021"/>
		<path d="M24.336,20.985c-0.019,0-0.027-0.009-0.027-0.023s0.009-0.026,0.027-0.026c0.014,0,0.025,0.012,0.025,0.026
			S24.35,20.985,24.336,20.985z"/>
		<circle cx="24.142" cy="20.998" r="0.028"/>
		<path d="M25.579,20.912c0.013,0,0.022-0.01,0.022-0.021c0-0.009-0.01-0.018-0.022-0.018c-0.01,0-0.017,0.009-0.017,0.018
			C25.562,20.902,25.569,20.912,25.579,20.912z"/>
		<circle cx="25.749" cy="20.909" r="0.021"/>
		<path d="M25.941,20.956c0.009,0,0.021-0.009,0.021-0.022c0-0.013-0.013-0.019-0.021-0.019c-0.016,0-0.025,0.006-0.025,0.019
			C25.916,20.947,25.925,20.956,25.941,20.956z"/>
		<path d="M26.125,20.985c0.016,0,0.028-0.009,0.028-0.023s-0.013-0.026-0.028-0.026c-0.012,0-0.023,0.012-0.023,0.026
			S26.114,20.985,26.125,20.985z"/>
		<circle cx="26.325" cy="20.998" r="0.028"/>
		<circle cx="25.465" cy="20.803" r="0.023"/>
		<path d="M19.954,20.826c-0.011,0-0.021-0.011-0.021-0.023c0-0.012,0.011-0.022,0.021-0.022c0.015,0,0.023,0.011,0.023,0.022
			C19.977,20.815,19.968,20.826,19.954,20.826z"/>
		<circle cx="19.838" cy="20.893" r="0.019"/>
		<circle cx="19.672" cy="20.909" r="0.021"/>
		<circle cx="19.479" cy="20.935" r="0.021"/>
		<circle cx="19.292" cy="20.96" r="0.025"/>
		<circle cx="19.096" cy="20.998" r="0.028"/>
		<circle cx="20.54" cy="20.893" r="0.019"/>
		<circle cx="20.701" cy="20.909" r="0.021"/>
		<circle cx="20.893" cy="20.935" r="0.021"/>
		<circle cx="21.084" cy="20.96" r="0.025"/>
		<path d="M21.28,21.026c0.017,0,0.025-0.012,0.025-0.029c0-0.015-0.009-0.026-0.025-0.026c-0.018,0-0.027,0.012-0.027,0.026
			C21.252,21.014,21.262,21.026,21.28,21.026z"/>
		<circle cx="20.421" cy="20.803" r="0.023"/>
		<circle cx="22.442" cy="22.33" r="0.021"/>
		<circle cx="22.324" cy="22.417" r="0.018"/>
		<circle cx="22.159" cy="22.437" r="0.021"/>
		<circle cx="21.964" cy="22.463" r="0.025"/>
		<circle cx="21.777" cy="22.489" r="0.025"/>
		<path d="M21.583,22.555c-0.015,0-0.027-0.015-0.027-0.026c0-0.015,0.013-0.026,0.027-0.026s0.027,0.012,0.027,0.026
			C21.61,22.541,21.597,22.555,21.583,22.555z"/>
		<path d="M23.026,22.435c0.01,0,0.018-0.009,0.018-0.018S23.036,22.4,23.026,22.4c-0.013,0-0.019,0.009-0.019,0.018
			S23.013,22.435,23.026,22.435z"/>
		<circle cx="23.189" cy="22.437" r="0.021"/>
		<circle cx="23.38" cy="22.463" r="0.025"/>
		<circle cx="23.571" cy="22.489" r="0.025"/>
		<path d="M23.764,22.555c0.015,0,0.028-0.015,0.028-0.026c0-0.015-0.014-0.026-0.028-0.026s-0.026,0.012-0.026,0.026
			C23.738,22.541,23.75,22.555,23.764,22.555z"/>
		<circle cx="22.908" cy="22.33" r="0.021"/>
	</g>
	<path d="M21.522,22.109c-0.022,0.036-0.063,0.068-0.008,0.209c0.01,0.035-0.009,0.055-0.037,0.014
		c-0.042-0.069-0.061-0.192-0.014-0.24C21.513,22.034,21.53,22.083,21.522,22.109z"/>
	<path d="M21.401,22.138c-0.016-0.043-0.032-0.093-0.1-0.11c-0.033-0.011-0.04,0.012-0.016,0.018
		c0.021,0.012,0.057,0.026,0.088,0.076C21.403,22.174,21.407,22.158,21.401,22.138z"/>
	<path d="M23.831,22.109c0.021,0.036,0.061,0.068,0.007,0.209c-0.01,0.035,0.007,0.055,0.031,0.014
		c0.043-0.069,0.062-0.192,0.013-0.24C23.837,22.034,23.818,22.083,23.831,22.109z"/>
	<path d="M23.948,22.138c0.014-0.043,0.029-0.093,0.102-0.11c0.03-0.011,0.038,0.012,0.015,0.018
		c-0.024,0.012-0.061,0.026-0.09,0.076C23.944,22.174,23.942,22.158,23.948,22.138z"/>
</g>
<path fill="none" stroke="#000000" stroke-width="0.1641" stroke-linejoin="round" d="M21.497,22.655
	c0.017,0.12,0.684,0.261,1.176,0.261s1.189-0.138,1.195-0.246"/>
<polygon points="37.246,21.565 32.405,20.097 27.563,21.565 27.563,21.171 32.405,19.697 37.246,21.171 "/>
<polygon points="37.246,22.335 32.405,20.865 27.563,22.335 27.563,21.937 32.405,20.462 37.246,21.937 "/>
<polygon points="37.246,23.1 32.405,21.629 27.563,23.1 27.563,22.705 32.405,21.236 37.246,22.705 "/>
<polygon points="39.737,46.587 38.713,46.962 38.578,46.652 39.55,45.741 40.333,46.306 40.366,46.679 "/>
<polygon points="16.396,46.962 16.548,46.652 15.168,45.867 14.715,46.456 "/>
<path fill="none" stroke="#000000" stroke-width="0.6016" d="M24.105,38.686c-0.194-0.194-0.239-0.194-0.239-0.194
	c-0.459,0.039-0.414,0.039-0.414,0.039c-5.002,0.74-8.992,2.744-10.628,5.323l0.02,0.073c0.443,1.115,1.338,1.632,1.872,2.404
	c0.05,0.068,0.05,0.068,0.05,0.068l0.153-0.168c1.754-2.337,5.143-3.995,9.267-4.681l0.009,0.03
	C24.194,41.582,24.519,39.096,24.105,38.686z"/>
<path fill="none" stroke="#000000" stroke-width="0.6016" d="M11.251,44.906l1.321,1.28l-0.536,1.395
	c2.525-0.088,4.359-0.331,4.359-0.618c0-0.17-0.618-0.322-1.631-0.437l-1.508-1.775C12.622,44.82,11.95,44.871,11.251,44.906z"/>
<path fill="#FFFFFF" stroke="#000000" stroke-width="0.1822" d="M25.262,41.378"/>
<path fill="#FFFFFF" stroke="#000000" stroke-width="0.1822" d="M24.229,41.574"/>
<path fill="none" stroke="#000000" stroke-width="0.6016" d="M25.311,41.375c-0.017,0-0.032,0.003-0.049,0.003
	c-0.181-1.321-0.181-1.33-0.181-1.33l-0.692,0.127l-0.16,1.398l-0.035,0.008c-0.567,0.201-0.937,0.515-0.898,0.813
	c0.051,0.422,0.896,0.662,1.886,0.542c0.986-0.125,1.743-0.568,1.691-0.993C26.826,41.566,26.154,41.337,25.311,41.375"/>
<path fill="#FFFFFF" stroke="#000000" stroke-width="0.1822" d="M24.981,38.775v-0.049c-0.003-0.034-0.006-0.066-0.008-0.102
	L24.981,38.775z"/>
<path fill="#FFFFFF" stroke="#000000" stroke-width="0.1822" d="M24.981,38.726c0,0.016,0,0.03,0.002,0.049"/>
<path fill="#FFFFFF" stroke="#FFFFFF" stroke-width="0.1822" d="M24.981,38.726"/>
<path stroke="#000000" stroke-width="0.1822" d="M24.344,40.175c0.092-0.007,0.551-0.077,0.674-0.107L24.344,40.175"/>
<path fill="none" stroke="#000000" stroke-width="0.6016" d="M42.264,43.924l0.024-0.07c-1.637-2.583-5.626-4.585-10.63-5.326
	c0,0,0.043,0-0.413-0.038c0,0-0.045,0-0.241,0.193c-0.411,0.412-0.227,1.199-0.172,1.854c0.086,1.044,0.086,1.044,0.086,1.044
	l0.006-0.029c4.127,0.685,7.452,2.344,9.205,4.681l0.153,0.166c0,0,0,0,0.052-0.068C40.87,45.556,41.825,45.041,42.264,43.924z"/>
<path fill="none" stroke="#000000" stroke-width="0.6016" d="M43.859,44.906c-0.696-0.035-1.371-0.088-2.004-0.158l-1.51,1.778
	c-1.013,0.111-1.632,0.264-1.632,0.437c0,0.287,1.837,0.53,4.362,0.615l-0.536-1.395L43.859,44.906z"/>
<path fill="#FFFFFF" stroke="#000000" stroke-width="0.1822" d="M30.389,41.481"/>
<path fill="#FFFFFF" stroke="#000000" stroke-width="0.1822" d="M29.848,41.375c-0.021-0.003-0.041-0.003-0.063-0.003"/>
<path fill="#FFFFFF" stroke="#FFFFFF" stroke-width="0.1822" d="M29.786,41.373c-0.012,0-0.023,0-0.037,0"/>
<path fill="none" stroke="#000000" stroke-width="0.6016" d="M29.749,41.373c-0.818-0.026-1.463,0.199-1.506,0.568
	c-0.057,0.425,0.701,0.87,1.689,0.993c0.989,0.12,1.832-0.118,1.885-0.546c0.036-0.28-0.299-0.58-0.826-0.779"/>
<path fill="none" stroke="#000000" stroke-width="0.6016" d="M30.991,41.609c-0.022-0.011-0.047-0.022-0.072-0.028l-0.027-0.007
	c-0.121-1.399-0.121-1.399-0.121-1.399l0,0l-0.711-0.117l-0.173,1.325"/>
<path fill="#FFFFFF" stroke="#000000" stroke-width="0.1822" d="M30.389,41.481"/>
<path fill="#FFFFFF" stroke="#FFFFFF" stroke-width="0.1822" d="M30.137,38.623c-0.003,0.037-0.006,0.066-0.008,0.102v0.051
	L30.137,38.623z"/>
<g>
	<path fill="none" stroke="#000000" stroke-width="0.6016" d="M27.555,38.156c-0.937,0-1.812,0.076-2.584,0.22
		c0,0.308,0,0.308,0,0.308l0.012,0.092c0.055,0.963,0.316,2.568,0.316,2.568c0.692-0.097,1.453-0.148,2.256-0.148"/>
	<path fill="none" stroke="#000000" stroke-width="0.6016" d="M27.556,38.153c0.935,0,1.815,0.076,2.587,0.222
		c-0.006,0.248-0.006,0.248-0.006,0.248l-0.008,0.102c-0.047,0.959-0.128,1.855-0.243,2.658c0,0-1.529-0.188-2.33-0.188"/>
</g>
<path stroke="#000000" stroke-width="0.1822" d="M30.484,40.139c0.097,0.018,0.189,0.029,0.286,0.035l-0.678-0.108
	C30.215,40.095,30.344,40.122,30.484,40.139z"/>
<circle fill="none" stroke="#000000" stroke-width="1.0929" cx="27.555" cy="27.559" r="27.012"/>
<g>
	<path stroke="#000000" stroke-width="0.045" d="M10.368,40.795l0.856-0.674c0.165-0.129,0.263-0.22,0.292-0.269
		c0.03-0.049,0.043-0.104,0.036-0.165c-0.007-0.06-0.054-0.146-0.142-0.258l0.078-0.062l0.979,1.244l-0.078,0.061
		c-0.089-0.112-0.162-0.178-0.22-0.197c-0.058-0.021-0.113-0.021-0.167-0.003c-0.055,0.017-0.164,0.089-0.329,0.22l-1.985,1.562
		c-0.164,0.129-0.262,0.218-0.292,0.269c-0.03,0.049-0.042,0.104-0.035,0.165c0.007,0.06,0.054,0.146,0.141,0.258l-0.078,0.062
		L8.54,41.882c-0.231-0.293-0.375-0.527-0.432-0.705c-0.056-0.176-0.049-0.359,0.021-0.553c0.069-0.193,0.196-0.362,0.381-0.508
		c0.225-0.177,0.461-0.259,0.709-0.246c0.157,0.011,0.316,0.069,0.479,0.18l0.575-1.389c0.072-0.182,0.112-0.303,0.118-0.361
		c0.008-0.084-0.011-0.16-0.057-0.229l0.082-0.065l0.602,0.764l-0.773,1.869L10.368,40.795z M8.88,41.966l1.325-1.043l-0.078-0.102
		c-0.13-0.166-0.246-0.273-0.349-0.325c-0.103-0.053-0.221-0.063-0.356-0.03c-0.136,0.031-0.283,0.109-0.441,0.235
		c-0.23,0.182-0.368,0.357-0.41,0.53c-0.043,0.172,0.01,0.354,0.16,0.543L8.88,41.966z"/>
	<path stroke="#000000" stroke-width="0.045" d="M6.655,38.704l1.381-0.761L8.006,37.89c-0.096-0.172-0.232-0.26-0.409-0.262
		c-0.178-0.003-0.404,0.057-0.68,0.182l-0.04-0.072l1.775-0.979l0.04,0.071c-0.185,0.122-0.323,0.242-0.418,0.362
		s-0.145,0.226-0.149,0.316s0.028,0.2,0.1,0.329l0.952-0.525c0.187-0.103,0.297-0.172,0.331-0.207
		c0.035-0.035,0.057-0.077,0.064-0.125c0.008-0.051-0.01-0.111-0.053-0.189l-0.089-0.161c-0.139-0.251-0.322-0.413-0.552-0.483
		c-0.229-0.072-0.512-0.059-0.848,0.043l-0.041-0.075l1.144-0.472l1.282,2.324l-0.087,0.049l-0.05-0.091
		c-0.043-0.077-0.095-0.13-0.157-0.159c-0.042-0.021-0.097-0.023-0.164-0.011c-0.048,0.007-0.159,0.058-0.33,0.152l-2.231,1.231
		c-0.156,0.086-0.249,0.141-0.28,0.168c-0.052,0.045-0.084,0.095-0.097,0.147C7,39.53,7.015,39.612,7.063,39.7l0.05,0.089
		l-0.087,0.049l-1.242-2.252l1-0.552l0.04,0.071c-0.223,0.175-0.368,0.327-0.437,0.455c-0.068,0.127-0.092,0.27-0.07,0.424
		c0.01,0.092,0.072,0.238,0.186,0.443L6.655,38.704z"/>
	<path stroke="#000000" stroke-width="0.045" d="M4.961,35.654l1.737-2.235l-1.555,0.557c-0.221,0.079-0.361,0.158-0.422,0.235
		c-0.08,0.107-0.091,0.239-0.029,0.4l-0.094,0.032l-0.343-0.96L4.35,33.65c0.063,0.117,0.119,0.19,0.166,0.221
		c0.047,0.029,0.109,0.045,0.189,0.041c0.08-0.001,0.207-0.033,0.382-0.096l3.033-1.088l0.026,0.074l-2.342,3.053l2.327-0.834
		c0.213-0.076,0.342-0.166,0.389-0.27s0.052-0.207,0.016-0.307l-0.025-0.07l0.094-0.033l0.37,1.031l-0.094,0.033
		c-0.059-0.158-0.141-0.253-0.244-0.287c-0.104-0.031-0.254-0.014-0.449,0.057l-2.567,0.92l-0.077,0.101
		c-0.078,0.099-0.124,0.177-0.139,0.234c-0.015,0.059-0.008,0.132,0.02,0.22l-0.094,0.033L4.961,35.654z"/>
	<path stroke="#000000" stroke-width="0.045" d="M3.608,30.988l1.26-0.273l0.018,0.092c-0.307,0.107-0.54,0.264-0.699,0.471
		s-0.22,0.407-0.181,0.602c0.03,0.154,0.104,0.264,0.224,0.332c0.119,0.066,0.245,0.088,0.377,0.061
		c0.084-0.016,0.156-0.045,0.215-0.089c0.08-0.06,0.152-0.146,0.22-0.258c0.048-0.083,0.124-0.267,0.23-0.551
		c0.147-0.397,0.307-0.679,0.476-0.841c0.17-0.16,0.38-0.266,0.63-0.313c0.317-0.063,0.609-0.019,0.876,0.132
		c0.268,0.152,0.432,0.378,0.491,0.68c0.019,0.096,0.024,0.188,0.017,0.277c-0.007,0.089-0.032,0.205-0.074,0.347
		c-0.023,0.079-0.03,0.141-0.021,0.185c0.008,0.039,0.035,0.076,0.081,0.111c0.047,0.037,0.111,0.061,0.194,0.073l0.016,0.079
		l-1.431,0.284l-0.017-0.081c0.39-0.145,0.672-0.33,0.845-0.558c0.175-0.229,0.24-0.45,0.198-0.665
		c-0.033-0.166-0.116-0.287-0.249-0.363c-0.134-0.076-0.276-0.098-0.427-0.068c-0.09,0.018-0.173,0.054-0.249,0.107
		c-0.077,0.057-0.145,0.129-0.205,0.222c-0.06,0.094-0.131,0.249-0.214,0.47c-0.115,0.309-0.221,0.533-0.316,0.678
		c-0.096,0.142-0.211,0.26-0.346,0.354c-0.135,0.093-0.291,0.157-0.469,0.192c-0.303,0.06-0.578,0.023-0.825-0.111
		s-0.398-0.335-0.452-0.604c-0.019-0.099-0.023-0.197-0.012-0.295c0.008-0.074,0.032-0.168,0.073-0.279
		c0.04-0.113,0.057-0.189,0.049-0.23c-0.008-0.037-0.028-0.064-0.063-0.08c-0.034-0.017-0.11-0.023-0.228-0.022L3.608,30.988z"/>
	<path stroke="#000000" stroke-width="0.045" d="M3.331,28.045c0.117,0.013,0.191,0.029,0.223,0.05
		c0.031,0.021,0.049,0.051,0.052,0.09c0.003,0.041-0.023,0.113-0.078,0.221c-0.055,0.105-0.091,0.195-0.108,0.268
		c-0.023,0.096-0.033,0.193-0.026,0.293c0.019,0.274,0.143,0.494,0.37,0.658c0.229,0.166,0.496,0.237,0.805,0.217
		c0.181-0.012,0.344-0.056,0.488-0.131c0.146-0.074,0.275-0.177,0.39-0.306c0.113-0.13,0.247-0.34,0.401-0.632
		c0.109-0.206,0.2-0.353,0.272-0.436c0.071-0.086,0.148-0.15,0.231-0.193c0.082-0.046,0.17-0.07,0.261-0.076
		c0.153-0.011,0.291,0.03,0.413,0.123c0.123,0.094,0.19,0.224,0.201,0.391c0.015,0.22-0.079,0.432-0.281,0.636
		c-0.202,0.202-0.506,0.352-0.91,0.445l0.006,0.081l1.456-0.098l-0.005-0.082c-0.082-0.021-0.143-0.054-0.185-0.095
		c-0.041-0.041-0.063-0.082-0.065-0.122c-0.003-0.045,0.012-0.105,0.045-0.18c0.061-0.135,0.1-0.248,0.118-0.336
		s0.025-0.18,0.019-0.276c-0.02-0.306-0.152-0.552-0.398-0.737c-0.246-0.184-0.529-0.266-0.852-0.244
		c-0.255,0.018-0.476,0.094-0.666,0.231c-0.188,0.14-0.381,0.397-0.58,0.772c-0.142,0.268-0.241,0.439-0.299,0.516
		c-0.082,0.102-0.165,0.178-0.251,0.229c-0.064,0.035-0.14,0.055-0.225,0.06c-0.135,0.011-0.257-0.026-0.366-0.11
		c-0.109-0.082-0.169-0.2-0.18-0.355c-0.013-0.199,0.072-0.391,0.258-0.574c0.184-0.185,0.436-0.309,0.754-0.377l-0.006-0.094
		l-1.285,0.11L3.331,28.045z"/>
	<path stroke="#000000" stroke-width="0.045" d="M3.692,25.783l1.571,0.121l0.005-0.061c0.015-0.195-0.051-0.344-0.197-0.441
		c-0.147-0.1-0.37-0.175-0.668-0.222l0.006-0.082l2.021,0.155l-0.006,0.082c-0.222,0-0.404,0.025-0.549,0.073
		s-0.243,0.108-0.298,0.182c-0.054,0.073-0.087,0.185-0.098,0.331l1.085,0.084c0.211,0.016,0.342,0.019,0.39,0.008
		c0.049-0.01,0.09-0.033,0.122-0.07c0.034-0.036,0.054-0.098,0.061-0.186l0.015-0.185c0.022-0.286-0.043-0.521-0.195-0.708
		c-0.153-0.186-0.397-0.328-0.732-0.429l0.007-0.085l1.215,0.232l-0.205,2.648l-0.1-0.007l0.009-0.103
		c0.007-0.09-0.008-0.162-0.044-0.221c-0.023-0.04-0.067-0.074-0.131-0.1C6.93,26.781,6.81,26.763,6.614,26.75l-2.541-0.197
		c-0.176-0.013-0.285-0.018-0.325-0.013c-0.069,0.011-0.122,0.034-0.162,0.07c-0.059,0.053-0.091,0.129-0.099,0.229l-0.008,0.104
		l-0.1-0.01l0.198-2.563l1.139,0.088l-0.006,0.08c-0.282,0.025-0.486,0.072-0.613,0.141c-0.128,0.07-0.226,0.176-0.293,0.316
		c-0.04,0.082-0.069,0.238-0.088,0.472L3.692,25.783z"/>
	<path stroke="#000000" stroke-width="0.045" d="M6.823,21.132c0.279,0.14,0.486,0.268,0.619,0.381
		c0.133,0.115,0.222,0.232,0.267,0.355c0.045,0.121,0.048,0.26,0.01,0.418l-0.061,0.25c-0.034,0.142-0.064,0.229-0.09,0.262
		c-0.038,0.045-0.086,0.07-0.143,0.074c-0.058,0.005-0.182-0.016-0.374-0.063l-2.399-0.582c-0.19-0.047-0.307-0.083-0.347-0.111
		c-0.059-0.037-0.096-0.078-0.113-0.124c-0.026-0.062-0.029-0.135-0.008-0.223l0.031-0.13l-0.097-0.023l-0.387,1.595l0.097,0.023
		l0.024-0.101c0.021-0.082,0.055-0.145,0.104-0.186c0.048-0.039,0.099-0.063,0.15-0.066c0.053-0.005,0.177,0.016,0.371,0.063
		l2.477,0.601c0.191,0.047,0.307,0.083,0.348,0.111c0.059,0.035,0.097,0.076,0.113,0.122C7.442,23.839,7.445,23.914,7.423,24
		l-0.024,0.102l0.098,0.023L8.14,21.47l-1.294-0.434L6.823,21.132z"/>
	<path stroke="#000000" stroke-width="0.045" d="M8.469,18.984c0.133,0.012,0.208,0.02,0.226,0.021
		c0.038,0.006,0.072,0.017,0.104,0.029c0.054,0.022,0.087,0.057,0.102,0.1c0.021,0.061,0.007,0.146-0.041,0.256l-0.024,0.059
		l0.092,0.039l0.59-1.371l-0.092-0.039c-0.047,0.083-0.107,0.137-0.182,0.16c-0.1,0.033-0.31,0.037-0.63,0.012l-3.354-0.232
		l-0.017,0.039l2.4,2.231c0.232,0.214,0.377,0.372,0.437,0.475c0.059,0.104,0.076,0.21,0.052,0.319l0.092,0.039l0.404-0.939
		l-0.092-0.04c-0.076,0.141-0.137,0.224-0.182,0.251c-0.075,0.042-0.163,0.042-0.264-0.002c-0.076-0.032-0.164-0.094-0.264-0.182
		l-0.293-0.272l0.426-0.99L8.469,18.984z M7.37,19.784L6.343,18.83l1.394,0.1L7.37,19.784z"/>
	<path stroke="#000000" stroke-width="0.045" d="M7.149,15.053l1.326,0.851l0.033-0.051c0.106-0.166,0.118-0.328,0.035-0.485
		C8.461,15.211,8.3,15.041,8.06,14.857l0.045-0.068l1.706,1.094l-0.044,0.069c-0.194-0.104-0.366-0.169-0.517-0.195
		s-0.267-0.02-0.35,0.02c-0.082,0.039-0.163,0.121-0.242,0.245l0.915,0.587c0.18,0.114,0.293,0.179,0.341,0.192
		c0.048,0.013,0.095,0.012,0.142-0.005c0.046-0.017,0.093-0.062,0.141-0.135l0.1-0.155c0.154-0.242,0.208-0.479,0.162-0.717
		c-0.047-0.235-0.194-0.477-0.442-0.724l0.047-0.072l0.96,0.781l-1.434,2.235l-0.083-0.054l0.055-0.087
		c0.048-0.076,0.07-0.147,0.066-0.215c-0.002-0.047-0.025-0.097-0.068-0.149c-0.03-0.04-0.128-0.111-0.293-0.218l-2.146-1.375
		c-0.149-0.096-0.243-0.151-0.28-0.166c-0.065-0.023-0.124-0.029-0.176-0.016c-0.076,0.02-0.142,0.071-0.196,0.156l-0.056,0.087
		l-0.084-0.054l1.388-2.166l0.963,0.617l-0.045,0.068c-0.259-0.111-0.462-0.168-0.606-0.167S7.747,14.32,7.62,14.413
		c-0.074,0.052-0.174,0.177-0.3,0.374L7.149,15.053z"/>
	<path stroke="#000000" stroke-width="0.045" d="M9.4,12.01c0.161-0.181,0.33-0.265,0.507-0.253s0.375,0.115,0.595,0.31
		c0.151,0.135,0.255,0.266,0.31,0.394s0.066,0.246,0.033,0.356s-0.119,0.243-0.26,0.4L10.5,13.313l-1.261-1.122L9.4,12.01z
		 M10.786,13.3l1.976,0.433l0.647-0.728l-0.08-0.069c-0.059,0.058-0.131,0.091-0.216,0.097c-0.059,0.004-0.184-0.014-0.375-0.053
		l-1.469-0.321c0.079-0.179,0.109-0.347,0.091-0.503c-0.031-0.246-0.152-0.465-0.366-0.654c-0.175-0.156-0.364-0.251-0.566-0.286
		c-0.202-0.034-0.386-0.009-0.549,0.077c-0.164,0.087-0.37,0.27-0.617,0.548L8.31,12.91l0.074,0.066
		c0.094-0.106,0.17-0.168,0.229-0.185s0.115-0.016,0.169,0.006c0.054,0.021,0.159,0.101,0.316,0.241l1.887,1.678
		c0.156,0.14,0.247,0.234,0.273,0.285c0.027,0.05,0.036,0.105,0.027,0.165s-0.062,0.144-0.156,0.251l0.074,0.066l1.052-1.182
		l-0.075-0.066c-0.094,0.105-0.17,0.168-0.229,0.185s-0.114,0.015-0.169-0.006c-0.054-0.021-0.159-0.103-0.315-0.241l-0.814-0.725
		L10.786,13.3z"/>
	<path stroke="#000000" stroke-width="0.045" d="M13.313,8.445c0.163-0.118,0.325-0.152,0.484-0.104
		c0.16,0.049,0.324,0.19,0.492,0.424c0.17,0.234,0.256,0.438,0.255,0.608c-0.001,0.172-0.077,0.312-0.228,0.42
		C14.295,9.81,14.263,9.83,14.22,9.857l-0.981-1.358L13.313,8.445z M14.915,9.544c0.141-0.181,0.207-0.38,0.203-0.598
		c-0.004-0.219-0.08-0.43-0.228-0.633c-0.175-0.241-0.397-0.385-0.67-0.433c-0.272-0.049-0.588,0.058-0.948,0.318l-1.09,0.787
		l0.059,0.081c0.115-0.084,0.203-0.128,0.266-0.131c0.061-0.004,0.116,0.01,0.166,0.042c0.049,0.031,0.135,0.134,0.259,0.305
		l1.474,2.038c0.123,0.171,0.192,0.285,0.207,0.341c0.014,0.057,0.011,0.112-0.012,0.17c-0.021,0.058-0.09,0.128-0.207,0.213
		l0.058,0.081l1.272-0.92l-0.059-0.081c-0.112,0.082-0.2,0.125-0.262,0.129c-0.063,0.005-0.117-0.009-0.166-0.042
		c-0.048-0.032-0.135-0.135-0.258-0.307l-0.628-0.869C14.635,9.832,14.823,9.667,14.915,9.544z"/>
	<path stroke="#000000" stroke-width="0.045" d="M16.923,6.349c0.153,0.039,0.32,0.155,0.503,0.347s0.389,0.515,0.621,0.97
		c0.195,0.383,0.32,0.71,0.374,0.981c0.056,0.271,0.051,0.491-0.013,0.661c-0.051,0.132-0.146,0.233-0.285,0.305
		c-0.207,0.105-0.418,0.089-0.632-0.049c-0.309-0.197-0.612-0.589-0.911-1.176c-0.252-0.494-0.392-0.9-0.418-1.219
		c-0.033-0.389,0.076-0.646,0.328-0.775C16.625,6.325,16.771,6.31,16.923,6.349z M15.603,7.249C15.5,7.731,15.579,8.228,15.839,8.74
		c0.231,0.455,0.539,0.795,0.922,1.018c0.483,0.282,0.974,0.297,1.469,0.045c0.491-0.251,0.76-0.665,0.806-1.243
		c0.035-0.437-0.058-0.873-0.28-1.31c-0.26-0.511-0.614-0.867-1.062-1.067c-0.447-0.202-0.885-0.181-1.313,0.063
		C15.966,6.431,15.707,6.766,15.603,7.249z"/>
	<path stroke="#000000" stroke-width="0.045" d="M22.076,6.777l0.304,1.33l-2.6,0.836L19.75,8.849l0.098-0.032
		c0.084-0.026,0.146-0.067,0.185-0.123c0.03-0.038,0.045-0.091,0.045-0.159c0.002-0.049-0.027-0.167-0.087-0.354l-0.78-2.427
		c-0.061-0.19-0.107-0.308-0.14-0.35c-0.031-0.042-0.076-0.074-0.136-0.094c-0.06-0.021-0.13-0.018-0.212,0.009l-0.098,0.031
		l-0.03-0.095l1.562-0.502l0.031,0.095L20.059,4.89c-0.085,0.027-0.146,0.068-0.186,0.123c-0.029,0.038-0.045,0.092-0.047,0.161
		c-0.002,0.049,0.027,0.167,0.087,0.354l0.755,2.351c0.061,0.188,0.107,0.305,0.142,0.352c0.034,0.046,0.081,0.074,0.14,0.083
		c0.041,0.005,0.131-0.015,0.27-0.06l0.243-0.078c0.155-0.051,0.272-0.126,0.354-0.229c0.08-0.102,0.135-0.238,0.162-0.412
		c0.028-0.173,0.028-0.415,0.003-0.727L22.076,6.777z"/>
	<path stroke="#000000" stroke-width="0.045" d="M25.206,3.691l0.016,0.099c-0.1,0.033-0.17,0.082-0.215,0.146
		c-0.062,0.092-0.146,0.327-0.252,0.706l-0.438,1.494l0.147,0.924c0.031,0.199,0.059,0.322,0.083,0.368
		c0.023,0.046,0.062,0.084,0.117,0.113c0.054,0.029,0.122,0.037,0.202,0.024l0.172-0.027l0.016,0.099l-1.701,0.27l-0.016-0.099
		l0.157-0.024c0.089-0.014,0.157-0.046,0.204-0.094c0.035-0.033,0.059-0.083,0.07-0.151c0.008-0.048-0.004-0.169-0.034-0.363
		l-0.122-0.765l-0.979-1.531c-0.192-0.302-0.322-0.478-0.389-0.525c-0.068-0.049-0.15-0.066-0.249-0.052l-0.015-0.099l1.45-0.23
		l0.016,0.098l-0.065,0.011c-0.088,0.014-0.146,0.04-0.176,0.078s-0.041,0.075-0.036,0.112c0.011,0.068,0.099,0.232,0.264,0.492
		l0.753,1.174L24.553,4.7c0.09-0.308,0.127-0.509,0.112-0.603c-0.009-0.051-0.034-0.091-0.077-0.119
		c-0.059-0.039-0.156-0.054-0.296-0.041l-0.015-0.099L25.206,3.691z"/>
	<path stroke="#000000" stroke-width="0.045" d="M28.842,3.642v1.049H28.76c-0.047-0.241-0.101-0.416-0.159-0.521
		c-0.06-0.105-0.14-0.189-0.243-0.253c-0.056-0.034-0.157-0.052-0.301-0.052h-0.234v2.988c0,0.2,0.009,0.326,0.026,0.375
		c0.018,0.051,0.052,0.094,0.102,0.132c0.05,0.037,0.118,0.056,0.204,0.056h0.102v0.1h-1.605v-0.1h0.102
		c0.089,0,0.16-0.02,0.213-0.061c0.039-0.027,0.071-0.072,0.094-0.139c0.017-0.046,0.025-0.166,0.025-0.363V3.865H26.85
		c-0.206,0-0.356,0.057-0.451,0.166c-0.13,0.154-0.212,0.375-0.246,0.66h-0.088V3.642H28.842z"/>
	<path stroke="#000000" stroke-width="0.045" d="M30.717,4.082L30.488,5.64l0.06,0.01c0.194,0.028,0.347-0.027,0.456-0.167
		s0.198-0.356,0.267-0.651l0.081,0.012L31.057,6.85l-0.082-0.012c0.015-0.221,0.003-0.404-0.035-0.553
		c-0.038-0.147-0.092-0.25-0.161-0.31c-0.069-0.059-0.177-0.1-0.323-0.121l-0.158,1.077c-0.03,0.21-0.042,0.341-0.035,0.389
		c0.007,0.049,0.028,0.092,0.063,0.128c0.034,0.035,0.094,0.06,0.181,0.072l0.183,0.027c0.283,0.041,0.523-0.008,0.72-0.146
		c0.196-0.14,0.354-0.373,0.478-0.701l0.086,0.012l-0.316,1.196l-2.628-0.386l0.015-0.099l0.102,0.015
		c0.088,0.013,0.162,0.004,0.223-0.028c0.042-0.021,0.078-0.063,0.108-0.124c0.023-0.043,0.05-0.162,0.078-0.356l0.37-2.521
		c0.026-0.175,0.038-0.282,0.036-0.323c-0.005-0.069-0.024-0.125-0.06-0.167c-0.048-0.062-0.123-0.1-0.223-0.114L29.575,3.79
		l0.015-0.099l2.546,0.373l-0.167,1.131l-0.081-0.012c-0.004-0.282-0.037-0.489-0.098-0.621s-0.158-0.236-0.296-0.314
		c-0.077-0.046-0.231-0.086-0.464-0.12L30.717,4.082z"/>
	<path stroke="#000000" stroke-width="0.045" d="M35.999,5.047c-0.04,0.089-0.084,0.151-0.131,0.183
		c-0.047,0.033-0.094,0.042-0.141,0.027c-0.037-0.012-0.111-0.07-0.224-0.178c-0.195-0.185-0.396-0.309-0.604-0.373
		c-0.282-0.088-0.576-0.083-0.88,0.014c-0.303,0.098-0.578,0.281-0.824,0.551c-0.246,0.271-0.423,0.583-0.533,0.936
		c-0.104,0.334-0.135,0.67-0.094,1.008s0.159,0.623,0.354,0.857c0.195,0.234,0.45,0.399,0.766,0.498
		c0.238,0.074,0.462,0.09,0.672,0.048c0.209-0.042,0.431-0.146,0.664-0.312l0.099-0.318c-0.249,0.196-0.466,0.321-0.653,0.375
		c-0.186,0.054-0.371,0.052-0.558-0.006c-0.226-0.07-0.388-0.197-0.487-0.381c-0.099-0.183-0.139-0.421-0.121-0.714
		c0.018-0.292,0.079-0.604,0.182-0.936c0.104-0.337,0.245-0.628,0.422-0.875c0.138-0.192,0.304-0.331,0.499-0.417
		c0.195-0.085,0.385-0.099,0.569-0.041c0.221,0.068,0.39,0.219,0.508,0.452c0.119,0.233,0.158,0.527,0.117,0.883l0.085,0.026
		l0.397-1.282L35.999,5.047z"/>
	<path stroke="#000000" stroke-width="0.045" d="M38.051,8.307l-0.544,1.071c-0.089,0.176-0.151,0.279-0.188,0.313
		c-0.05,0.049-0.099,0.074-0.146,0.081c-0.066,0.012-0.139-0.003-0.219-0.043l-0.089-0.046l-0.045,0.09l1.432,0.727l0.045-0.089
		l-0.09-0.045c-0.076-0.039-0.129-0.087-0.157-0.144s-0.039-0.111-0.032-0.163c0.008-0.053,0.057-0.167,0.147-0.347L39.32,7.44
		c0.089-0.174,0.151-0.278,0.188-0.312c0.05-0.049,0.099-0.075,0.146-0.081c0.065-0.013,0.139,0.003,0.218,0.043l0.089,0.045
		l0.046-0.089L38.575,6.32L38.53,6.408l0.089,0.046c0.076,0.039,0.128,0.087,0.157,0.143c0.029,0.058,0.04,0.111,0.033,0.164
		c-0.008,0.052-0.057,0.168-0.147,0.346l-0.496,0.978l-0.972-0.494l0.496-0.977c0.089-0.176,0.151-0.279,0.188-0.313
		c0.049-0.048,0.099-0.075,0.146-0.081c0.064-0.013,0.137,0.002,0.217,0.042l0.09,0.046l0.046-0.089l-1.432-0.727L36.9,5.581
		l0.092,0.046c0.076,0.039,0.128,0.087,0.155,0.143c0.028,0.057,0.039,0.111,0.031,0.163C37.17,5.985,37.122,6.1,37.032,6.279
		L35.877,8.55c-0.09,0.176-0.151,0.279-0.188,0.313c-0.049,0.05-0.097,0.076-0.145,0.082c-0.065,0.012-0.139-0.002-0.218-0.042
		l-0.092-0.047l-0.045,0.089l1.432,0.727l0.044-0.088l-0.09-0.047C36.5,9.499,36.449,9.452,36.42,9.395
		c-0.026-0.057-0.037-0.11-0.031-0.163c0.007-0.053,0.056-0.169,0.146-0.347l0.544-1.071L38.051,8.307z"/>
	<path stroke="#000000" stroke-width="0.045" d="M41.457,8.059l-0.198,2.824l0.98-1.328c0.14-0.188,0.213-0.332,0.22-0.431
		c0.008-0.133-0.058-0.249-0.198-0.347l0.06-0.081l0.819,0.606l-0.059,0.08c-0.118-0.061-0.205-0.091-0.262-0.09
		c-0.055,0.001-0.116,0.024-0.182,0.07c-0.064,0.047-0.152,0.144-0.262,0.293l-1.915,2.592l-0.063-0.047l0.247-3.84l-1.47,1.989
		c-0.135,0.181-0.191,0.327-0.172,0.439c0.019,0.111,0.07,0.199,0.156,0.263l0.061,0.045l-0.059,0.079l-0.883-0.65l0.06-0.08
		c0.138,0.098,0.257,0.133,0.362,0.103c0.104-0.03,0.219-0.129,0.343-0.297l1.62-2.193l0.01-0.126
		c0.009-0.125,0.003-0.215-0.017-0.271S40.59,7.548,40.517,7.49l0.06-0.081L41.457,8.059z"/>
	<path stroke="#000000" stroke-width="0.045" d="M42.232,13.669l-0.069,0.072l-1.155-1.115l0.069-0.072l0.073,0.072
		c0.064,0.062,0.131,0.098,0.198,0.107c0.046,0.006,0.1-0.006,0.16-0.039c0.044-0.021,0.134-0.103,0.271-0.244l1.77-1.835
		c0.138-0.144,0.22-0.239,0.243-0.286c0.022-0.048,0.028-0.103,0.018-0.165c-0.012-0.063-0.047-0.124-0.108-0.183l-0.074-0.071
		l0.069-0.071l1.155,1.113l-0.069,0.072l-0.072-0.071c-0.064-0.062-0.13-0.097-0.198-0.105c-0.047-0.008-0.101,0.004-0.161,0.036
		c-0.044,0.021-0.135,0.104-0.271,0.244l-1.77,1.835c-0.139,0.145-0.22,0.24-0.241,0.288c-0.023,0.047-0.029,0.103-0.02,0.164
		c0.011,0.063,0.047,0.123,0.109,0.183L42.232,13.669z"/>
	<path stroke="#000000" stroke-width="0.045" d="M47.292,13.705l-1.047,0.84l-0.055-0.068c0.232-0.272,0.365-0.539,0.396-0.798
		c0.032-0.259-0.023-0.479-0.169-0.659c-0.12-0.15-0.285-0.245-0.495-0.283c-0.209-0.039-0.425-0.018-0.646,0.065
		c-0.284,0.105-0.564,0.269-0.84,0.489c-0.27,0.217-0.494,0.441-0.673,0.675c-0.179,0.232-0.278,0.452-0.299,0.659
		s0.043,0.403,0.19,0.588c0.123,0.152,0.275,0.258,0.46,0.317s0.435,0.077,0.75,0.054l-0.26,0.209
		c-0.286,0.007-0.527-0.031-0.725-0.113c-0.196-0.083-0.373-0.221-0.53-0.416c-0.206-0.258-0.325-0.537-0.355-0.841
		c-0.031-0.303,0.031-0.604,0.187-0.908c0.154-0.303,0.368-0.563,0.642-0.783c0.289-0.23,0.61-0.39,0.965-0.477
		c0.355-0.087,0.686-0.085,0.991,0.005c0.307,0.089,0.553,0.249,0.737,0.48c0.136,0.169,0.233,0.385,0.291,0.646
		c0.034,0.151,0.063,0.242,0.086,0.272c0.031,0.038,0.075,0.057,0.133,0.057c0.057-0.001,0.127-0.026,0.211-0.079L47.292,13.705z"/>
	<path stroke="#000000" stroke-width="0.045" d="M45.831,18.875c-0.041-0.077-0.055-0.146-0.045-0.208
		c0.01-0.063,0.033-0.113,0.069-0.15c0.037-0.039,0.144-0.104,0.321-0.195l2.261-1.178c0.174-0.091,0.285-0.139,0.334-0.145
		c0.067-0.012,0.122-0.008,0.165,0.016c0.061,0.029,0.111,0.084,0.152,0.162l0.047,0.092l0.089-0.047l-0.741-1.424l-0.088,0.047
		l0.047,0.09c0.039,0.076,0.055,0.146,0.045,0.209c-0.01,0.063-0.033,0.112-0.069,0.15c-0.038,0.037-0.145,0.103-0.321,0.195
		l-2.261,1.178c-0.175,0.089-0.286,0.137-0.335,0.145c-0.067,0.012-0.122,0.006-0.163-0.015c-0.062-0.03-0.112-0.085-0.153-0.164
		l-0.048-0.093l-0.089,0.047l0.742,1.424l0.088-0.045L45.831,18.875z"/>
	<path stroke="#000000" stroke-width="0.045" d="M49.586,17.908l-0.094,0.033c0.027,0.09,0.033,0.162,0.019,0.22
		c-0.015,0.059-0.061,0.136-0.138,0.234l-0.077,0.101l-2.569,0.92c-0.195,0.07-0.345,0.088-0.448,0.057
		c-0.104-0.034-0.185-0.129-0.243-0.287l-0.094,0.033l0.369,1.031l0.094-0.033l-0.025-0.07c-0.036-0.1-0.03-0.203,0.016-0.307
		c0.047-0.104,0.177-0.193,0.389-0.27l2.328-0.834l-2.344,3.053l0.027,0.074l3.033-1.086c0.174-0.063,0.301-0.096,0.382-0.098
		c0.079-0.002,0.143,0.012,0.189,0.042s0.103,0.104,0.166,0.22l0.094-0.033l-0.343-0.96l-0.094,0.034
		c0.061,0.159,0.052,0.293-0.029,0.398c-0.061,0.078-0.201,0.156-0.422,0.235l-1.555,0.557l1.737-2.233L49.586,17.908z"/>
	<path stroke="#000000" stroke-width="0.045" d="M51.294,23.54c-0.117,0.003-0.192-0.005-0.228-0.022
		c-0.033-0.016-0.055-0.042-0.063-0.08c-0.008-0.041,0.009-0.117,0.049-0.229c0.041-0.111,0.065-0.205,0.073-0.281
		c0.012-0.097,0.008-0.195-0.012-0.295c-0.054-0.268-0.204-0.47-0.452-0.604c-0.247-0.135-0.521-0.171-0.824-0.112
		c-0.178,0.035-0.334,0.1-0.469,0.193c-0.135,0.093-0.251,0.211-0.347,0.354c-0.096,0.143-0.201,0.367-0.316,0.677
		c-0.083,0.22-0.153,0.376-0.214,0.469s-0.129,0.165-0.205,0.222c-0.076,0.054-0.159,0.09-0.248,0.107
		c-0.152,0.031-0.294,0.008-0.428-0.068c-0.133-0.076-0.216-0.197-0.248-0.363c-0.043-0.215,0.023-0.437,0.197-0.665
		c0.174-0.228,0.455-0.413,0.845-0.558l-0.017-0.081l-1.431,0.282l0.016,0.081c0.083,0.013,0.148,0.036,0.194,0.071
		c0.046,0.037,0.073,0.074,0.081,0.113c0.009,0.044,0.002,0.105-0.021,0.185c-0.042,0.142-0.067,0.258-0.074,0.347
		c-0.007,0.09-0.002,0.182,0.017,0.277c0.061,0.302,0.224,0.527,0.491,0.68c0.267,0.15,0.56,0.195,0.876,0.133
		c0.25-0.049,0.46-0.154,0.63-0.314c0.169-0.162,0.328-0.442,0.476-0.841c0.106-0.282,0.184-0.466,0.23-0.55
		c0.068-0.112,0.141-0.199,0.221-0.259c0.059-0.042,0.13-0.071,0.214-0.089c0.133-0.027,0.258-0.006,0.378,0.063
		c0.118,0.067,0.193,0.178,0.224,0.33c0.038,0.195-0.022,0.396-0.181,0.604c-0.16,0.205-0.394,0.361-0.7,0.469l0.019,0.092
		l1.26-0.272L51.294,23.54z"/>
	<path stroke="#000000" stroke-width="0.045" d="M51.533,27.408l-1.047,0.057l-0.005-0.082c0.24-0.061,0.41-0.123,0.513-0.187
		c0.103-0.064,0.183-0.151,0.239-0.257c0.031-0.059,0.043-0.159,0.035-0.303l-0.012-0.234l-2.984,0.161
		c-0.199,0.011-0.324,0.026-0.373,0.047c-0.049,0.019-0.091,0.056-0.125,0.106c-0.035,0.053-0.051,0.122-0.046,0.209l0.005,0.101
		l-0.099,0.005l-0.087-1.604l0.1-0.006l0.006,0.104c0.005,0.088,0.028,0.158,0.071,0.209c0.029,0.038,0.077,0.066,0.144,0.085
		c0.047,0.015,0.169,0.017,0.364,0.006l2.983-0.159l-0.012-0.234c-0.012-0.205-0.074-0.354-0.189-0.441
		c-0.162-0.121-0.386-0.191-0.673-0.211l-0.005-0.088l1.047-0.056L51.533,27.408z"/>
	<path stroke="#000000" stroke-width="0.045" d="M47.614,29.482l-0.099-0.007l0.112-1.601l0.1,0.006l-0.007,0.102
		c-0.007,0.09,0.009,0.163,0.045,0.222c0.024,0.04,0.068,0.071,0.132,0.099c0.045,0.02,0.165,0.036,0.36,0.051l2.542,0.179
		c0.2,0.015,0.326,0.017,0.377,0.003s0.097-0.043,0.138-0.092s0.064-0.116,0.07-0.201l0.007-0.103l0.1,0.007l-0.113,1.602
		l-0.099-0.006l0.007-0.103c0.006-0.088-0.009-0.161-0.045-0.218c-0.024-0.043-0.068-0.076-0.132-0.102
		c-0.045-0.021-0.165-0.037-0.361-0.051l-2.542-0.18c-0.199-0.014-0.324-0.014-0.376-0.001c-0.051,0.013-0.097,0.044-0.138,0.091
		s-0.064,0.114-0.07,0.201L47.614,29.482z"/>
	<path stroke="#000000" stroke-width="0.045" d="M50.76,33.269l-1.028-0.207l0.017-0.08c0.246,0.002,0.428-0.016,0.542-0.053
		c0.116-0.037,0.214-0.1,0.296-0.188c0.045-0.049,0.082-0.144,0.11-0.285l0.047-0.23l-2.93-0.589
		c-0.196-0.04-0.321-0.056-0.373-0.048c-0.053,0.007-0.103,0.031-0.148,0.072c-0.047,0.041-0.079,0.104-0.097,0.189l-0.02,0.1
		l-0.098-0.021l0.316-1.573l0.099,0.02l-0.021,0.101c-0.018,0.087-0.012,0.159,0.018,0.22c0.019,0.044,0.058,0.084,0.117,0.119
		c0.042,0.025,0.159,0.059,0.352,0.096l2.93,0.591l0.046-0.229c0.04-0.203,0.017-0.361-0.073-0.475
		c-0.126-0.158-0.326-0.281-0.599-0.373l0.017-0.086l1.028,0.208L50.76,33.269z"/>
	<path stroke="#000000" stroke-width="0.045" d="M50.539,34.092l-0.563,1.485l-0.093-0.035l0.027-0.074
		c0.043-0.113,0.057-0.195,0.043-0.248c-0.014-0.055-0.043-0.1-0.088-0.137c-0.046-0.037-0.174-0.096-0.382-0.176l-1.771-0.67
		c-0.323-0.123-0.545-0.186-0.664-0.186c-0.119-0.001-0.231,0.029-0.335,0.094c-0.103,0.063-0.181,0.162-0.23,0.297
		c-0.06,0.154-0.066,0.305-0.02,0.446s0.138,0.27,0.272,0.382c0.134,0.113,0.393,0.242,0.776,0.389l1.474,0.559
		c0.164,0.063,0.287,0.094,0.366,0.094c0.081,0,0.142-0.016,0.185-0.045c0.064-0.048,0.119-0.129,0.162-0.242l0.093,0.035
		l-0.376,0.991l-0.093-0.035l0.022-0.059c0.031-0.082,0.035-0.157,0.015-0.228c-0.021-0.068-0.068-0.13-0.142-0.188
		c-0.051-0.039-0.15-0.088-0.301-0.143l-1.373-0.521c-0.426-0.162-0.725-0.301-0.896-0.416c-0.172-0.116-0.304-0.289-0.397-0.521
		c-0.093-0.232-0.082-0.497,0.03-0.796c0.095-0.249,0.209-0.425,0.345-0.53c0.184-0.143,0.379-0.217,0.586-0.226
		c0.206-0.009,0.461,0.044,0.761,0.158l1.771,0.671c0.211,0.08,0.346,0.12,0.404,0.121c0.059,0,0.111-0.016,0.159-0.049
		c0.048-0.034,0.093-0.111,0.138-0.233L50.539,34.092z"/>
	<path stroke="#000000" stroke-width="0.045" d="M47.694,40.133l-0.909-0.522l0.041-0.072c0.233,0.08,0.411,0.12,0.532,0.123
		c0.12,0.002,0.234-0.026,0.34-0.084c0.058-0.031,0.123-0.111,0.195-0.235l0.116-0.204l-2.59-1.49
		c-0.174-0.1-0.286-0.154-0.339-0.163c-0.052-0.011-0.106-0.003-0.164,0.022c-0.058,0.023-0.107,0.072-0.15,0.148l-0.051,0.087
		l-0.086-0.048l0.801-1.393l0.086,0.051l-0.051,0.088c-0.045,0.076-0.063,0.147-0.053,0.213c0.003,0.049,0.027,0.099,0.072,0.151
		c0.032,0.038,0.133,0.105,0.303,0.204l2.59,1.489l0.117-0.204c0.103-0.177,0.13-0.335,0.081-0.473
		c-0.069-0.189-0.219-0.371-0.449-0.542l0.044-0.076l0.909,0.522L47.694,40.133z"/>
	<path stroke="#000000" stroke-width="0.045" d="M46.171,41.781c-0.146,0.184-0.259,0.297-0.337,0.34
		c-0.137,0.08-0.276,0.111-0.421,0.099c-0.145-0.015-0.34-0.091-0.586-0.229l-0.052,0.064l0.894,0.713l1.604-2.01l-0.078-0.063
		l-0.063,0.08C47.07,40.854,47,40.898,46.921,40.91c-0.054,0.009-0.111-0.003-0.173-0.032c-0.036-0.019-0.124-0.085-0.262-0.194
		l-1.992-1.592c-0.153-0.123-0.242-0.205-0.268-0.246c-0.038-0.057-0.056-0.109-0.054-0.156c0.003-0.067,0.032-0.137,0.088-0.207
		l0.064-0.08l-0.077-0.062l-1.658,2.074l0.874,0.876l0.054-0.066c-0.221-0.271-0.343-0.527-0.365-0.768
		c-0.021-0.238,0.058-0.47,0.236-0.693l0.115-0.146c0.055-0.069,0.105-0.108,0.154-0.12c0.049-0.01,0.096-0.008,0.141,0.012
		c0.046,0.018,0.152,0.094,0.318,0.227l0.851,0.679c-0.093,0.116-0.181,0.188-0.268,0.218c-0.085,0.029-0.202,0.025-0.349-0.018
		c-0.146-0.041-0.311-0.123-0.494-0.247l-0.051,0.064l1.584,1.266l0.051-0.064c-0.22-0.208-0.362-0.394-0.428-0.558
		c-0.065-0.166-0.037-0.324,0.086-0.479l0.037-0.048l1.231,0.984L46.171,41.781z"/>
</g>
<path fill="none" stroke="#000000" stroke-width="0.5466" d="M29.709,38.346l5.332-4.634c0,0,2.311-1.496,2.369-4.779
	c0.029-1.679-0.164-7.421,0-10.403c0.074-1.345,0.681-2.369,1.248-2.804c0.439-0.333,0.439-0.333,0.439-0.333
	c0.356-0.243,0.356-0.243,0.356-0.243c-23.797,0.006-23.797,0.006-23.797,0.006s0,0,0.354,0.238c0,0,0,0,0.442,0.34
	c0.569,0.432,1.173,1.454,1.244,2.801c0.167,2.983-0.029,8.725,0,10.401c0.062,3.286,2.367,4.781,2.367,4.781l5.161,4.535"/>
<path d="M16.152,15.126c1.656,1.428,1.464,4.289,1.464,4.289h9.84v-4.289H16.152z M24.522,17.664c0,0.152-0.126,0.275-0.281,0.275
	c-0.133,0-0.227-0.096-0.257-0.218h-1.208v1.081c0.116,0.033,0.211,0.121,0.211,0.248c0,0.15-0.126,0.273-0.281,0.273
	c-0.145,0-0.254-0.109-0.27-0.246c-0.016,0.137-0.125,0.246-0.27,0.246c-0.155,0-0.281-0.123-0.281-0.273
	c0-0.116,0.084-0.198,0.188-0.238v-1.091h-1.138c-0.03,0.122-0.124,0.218-0.257,0.218c-0.155,0-0.281-0.123-0.281-0.275
	c0-0.119,0.089-0.203,0.199-0.24V17.38c-0.11-0.037-0.199-0.121-0.199-0.242c0-0.15,0.126-0.273,0.281-0.273
	c0.114,0,0.193,0.076,0.237,0.171h1.157v-1.067c-0.104-0.041-0.188-0.121-0.188-0.237c0-0.151,0.126-0.274,0.281-0.274
	c0.145,0,0.254,0.11,0.27,0.247c0.016-0.137,0.125-0.247,0.27-0.247c0.155,0,0.281,0.123,0.281,0.274
	c0,0.125-0.095,0.214-0.211,0.246v1.059h1.228c0.044-0.095,0.123-0.171,0.237-0.171c0.155,0,0.281,0.123,0.281,0.273
	c0,0.139-0.109,0.242-0.246,0.261v0.006C24.413,17.423,24.522,17.527,24.522,17.664z"/>
</svg>
