<?xml version="1.0" encoding="utf-8"?>
<!-- Generator: Adobe Illustrator 14.0.0, SVG Export Plug-In . SVG Version: 6.00 Build 43363)  -->
<!DOCTYPE svg PUBLIC "-//W3C//DTD SVG 1.1//EN" "http://www.w3.org/Graphics/SVG/1.1/DTD/svg11.dtd">
<svg version="1.1" id="Layer_1" xmlns="http://www.w3.org/2000/svg" xmlns:xlink="http://www.w3.org/1999/xlink" x="0px" y="0px"
	 width="442.641px" height="128.252px" viewBox="1.755 0.949 442.641 128.252" enable-background="new 1.755 0.949 442.641 128.252"
	 xml:space="preserve">
<g>
	<path fill="#00539F" d="M19.347,19.646v33.059c-0.02,2.363,0.062,4.37,0.242,6.017c0.183,1.644,0.582,2.872,1.198,3.683
		c0.401,0.664,1.21,1.173,2.415,1.532c1.208,0.356,3.454,0.536,6.74,0.542c3.069,0.052,5.442-0.107,7.117-0.482
		c1.674-0.376,3.042-1.29,4.103-2.742c1.063-1.453,2.208-3.771,3.443-6.95c0.454-0.229,0.946-0.287,1.472-0.175
		c0.529,0.11,0.913,0.357,1.155,0.741c-0.236,1.368-0.571,2.944-0.998,4.734c-0.426,1.787-0.873,3.499-1.337,5.13
		c-0.464,1.632-0.873,2.895-1.223,3.793c-1.812-0.095-4.461-0.165-7.948-0.215c-3.486-0.045-7.618-0.07-12.397-0.07h-8.816
		c-4.419,0-8.459,0.095-12.12,0.285c-0.352-0.25-0.559-0.694-0.624-1.337c-0.064-0.644,0.085-1.118,0.454-1.438l2.543-0.474
		c1.315-0.13,2.313-0.404,3.002-0.829c0.688-0.427,1.155-1.365,1.4-2.81c0.245-1.447,0.359-3.768,0.347-6.957V19.646
		c0.013-3.204-0.102-5.532-0.347-6.992c-0.245-1.455-0.711-2.403-1.4-2.845C7.08,9.37,6.082,9.068,4.767,8.909L2.394,8.534
		c-0.3-0.297-0.442-0.763-0.425-1.402c0.02-0.636,0.215-1.081,0.594-1.33c4.152,0.189,8.137,0.282,11.95,0.282
		c3.76,0,7.516-0.093,11.276-0.282c0.382,0.25,0.589,0.694,0.624,1.33c0.032,0.639-0.12,1.105-0.457,1.402l-1.864,0.375
		c-1.313,0.16-2.313,0.461-3.002,0.9c-0.689,0.442-1.153,1.39-1.4,2.845C19.447,14.114,19.332,16.442,19.347,19.646L19.347,19.646z"
		/>
	<path fill="#00539F" d="M61.517,40.722v16.279c-0.048,3.369,0.129,5.592,0.528,6.668c0.399,1.075,1.296,1.674,2.69,1.799
		l1.527,0.285c0.294,0.384,0.427,0.878,0.392,1.492c-0.035,0.609-0.22,1.038-0.562,1.278c-3.052-0.19-6.104-0.28-9.155-0.274
		c-2.755-0.005-5.722,0.084-8.898,0.274c-0.342-0.24-0.529-0.669-0.564-1.278c-0.032-0.614,0.098-1.108,0.395-1.492l1.524-0.285
		c1.396-0.125,2.293-0.724,2.692-1.799c0.397-1.076,0.574-3.299,0.529-6.668V43.167c0.045-2.046-0.045-3.528-0.265-4.447
		c-0.222-0.916-0.838-1.692-1.854-2.328l-1.019-0.656c-0.127-0.227-0.188-0.577-0.18-1.048c0.008-0.474,0.098-0.846,0.265-1.118
		c2.238-0.729,4.329-1.552,6.273-2.471c1.941-0.918,3.523-1.787,4.746-2.61c0.521,0.063,0.918,0.313,1.186,0.753
		c-0.083,1.595-0.147,3.414-0.189,5.455C61.536,36.742,61.517,38.75,61.517,40.722L61.517,40.722z M57.022,17.385
		c-1.635-0.035-2.939-0.599-3.921-1.694c-0.978-1.093-1.479-2.508-1.505-4.237c0.025-1.731,0.527-3.144,1.505-4.239
		c0.981-1.096,2.286-1.66,3.921-1.694c1.637,0.035,2.944,0.599,3.92,1.694c0.98,1.095,1.482,2.508,1.507,4.239
		c-0.024,1.729-0.526,3.145-1.507,4.237C59.967,16.787,58.659,17.35,57.022,17.385L57.022,17.385z"/>
	<path fill="#00539F" d="M107.079,38.104h-6.188c0.13,0.452,0.232,0.988,0.31,1.604c0.074,0.614,0.112,1.43,0.114,2.448
		c0.008,2.68-0.533,5.195-1.629,7.543c-1.093,2.348-2.785,4.257-5.076,5.725c-2.29,1.47-5.225,2.226-8.806,2.271
		c-1.033-0.032-2.106-0.157-3.222-0.376c-0.704,0.376-1.31,0.871-1.821,1.482c-0.515,0.614-0.781,1.343-0.807,2.191
		c-0.022,0.978,0.319,1.824,1.028,2.543c0.709,0.719,1.919,1.095,3.634,1.13c2.515-0.063,5.624-0.125,9.325-0.187
		c2.091-0.053,4.189,0.174,6.293,0.671c2.106,0.499,3.87,1.567,5.298,3.204c1.425,1.642,2.168,4.147,2.226,7.516
		c-0.08,2.5-0.684,4.781-1.812,6.842c-1.131,2.061-2.306,3.613-3.528,4.651c-1.861,1.742-4.157,3.204-6.888,4.377
		c-2.729,1.178-5.916,1.792-9.557,1.836c-3.961-0.045-7.1-0.644-9.423-1.792c-2.32-1.148-3.98-2.57-4.976-4.262
		c-0.993-1.692-1.478-3.379-1.452-5.056c-0.112-1.353,0.281-2.7,1.185-4.052c0.475-0.509,1.288-1.183,2.438-2.011
		c1.15-0.829,2.091-1.572,2.817-2.226c0.366-0.314,0.631-0.699,0.796-1.143c0.165-0.444,0.067-0.753-0.287-0.928
		c-1.529-0.589-2.835-1.577-3.907-2.954c-1.078-1.383-1.64-3.005-1.685-4.864c-0.061-0.926,0.394-1.712,1.354-2.355
		c0.467-0.274,1.123-0.719,1.972-1.335c0.846-0.617,1.622-1.263,2.328-1.944c0.709-0.679,1.08-1.248,1.125-1.712
		c0.058-0.392-0.057-0.739-0.339-1.036c-1.522-0.661-2.927-1.929-4.218-3.803c-1.287-1.871-1.974-4.342-2.056-7.406
		c0.075-4.327,1.518-7.866,4.324-10.618c2.808-2.75,6.535-4.172,11.187-4.262c3.449,0.047,6.301,0.706,8.562,1.979
		c0.871,0.469,1.588,0.824,2.151,1.061c0.564,0.235,1.091,0.352,1.58,0.352h8.307c0.395,0.329,0.621,0.893,0.677,1.694
		C108.321,36.819,107.87,37.887,107.079,38.104L107.079,38.104z M91.483,72.86h-4.831c-2.897-0.05-4.819,0.329-5.765,1.128
		c-0.736,0.609-1.343,1.347-1.812,2.216c-0.472,0.863-0.716,1.886-0.733,3.059c0.057,2.91,1.09,5.21,3.106,6.907
		c2.014,1.702,4.682,2.57,8,2.605c3.621-0.025,6.4-0.799,8.337-2.331c1.939-1.532,2.915-3.673,2.935-6.428
		c-0.058-2.401-0.938-4.192-2.647-5.38C96.364,73.449,94.166,72.855,91.483,72.86L91.483,72.86z M81.058,43.002
		c0.06,3.636,0.701,6.396,1.929,8.277c1.226,1.881,2.673,2.827,4.342,2.837c1.642,0.007,2.978-0.786,4.005-2.378
		c1.028-1.594,1.558-4.035,1.59-7.324c-0.022-3.261-0.592-5.896-1.704-7.91c-1.115-2.011-2.638-3.049-4.566-3.107
		c-1.532-0.007-2.835,0.781-3.91,2.366C81.666,37.346,81.104,39.759,81.058,43.002L81.058,43.002z"/>
	<path fill="#00539F" d="M122.601,15.361v17.423c-0.043,1.098,0.212,1.632,0.764,1.602c1.484-1.26,3.134-2.318,4.948-3.179
		c1.813-0.858,3.78-1.308,5.901-1.342c3.641,0.05,6.36,1.248,8.16,3.591c1.796,2.343,2.694,5.537,2.689,9.584v14.014
		c-0.047,3.366,0.13,5.587,0.529,6.665c0.399,1.073,1.297,1.674,2.692,1.794l1.949,0.285c0.379,0.384,0.554,0.883,0.519,1.492
		c-0.032,0.614-0.262,1.038-0.688,1.283c-1.762-0.1-3.409-0.165-4.948-0.215c-1.537-0.04-3.082-0.064-4.629-0.064
		c-2.798-0.005-5.68,0.09-8.646,0.279c-0.342-0.245-0.529-0.669-0.562-1.283c-0.035-0.609,0.097-1.108,0.392-1.492l1.271-0.189
		c1.397-0.165,2.293-0.794,2.692-1.879c0.399-1.083,0.573-3.311,0.528-6.675V43.793c0.03-2.32-0.474-4.264-1.515-5.834
		c-1.04-1.567-2.794-2.38-5.265-2.443c-1.4,0.038-2.585,0.337-3.551,0.903c-0.964,0.566-1.702,1.175-2.214,1.824
		c-0.451,0.521-0.736,1.238-0.858,2.151c-0.119,0.911-0.175,2.263-0.159,4.055v12.604c-0.045,3.364,0.132,5.592,0.528,6.675
		c0.402,1.085,1.298,1.714,2.692,1.879l1.271,0.189c0.297,0.384,0.427,0.883,0.395,1.492c-0.035,0.614-0.22,1.038-0.562,1.283
		c-2.91-0.189-5.904-0.285-8.986-0.279c-2.627-0.005-5.679,0.09-9.152,0.279c-0.342-0.245-0.529-0.669-0.564-1.283
		c-0.032-0.609,0.098-1.108,0.395-1.492l1.864-0.285c1.395-0.12,2.293-0.721,2.692-1.794c0.399-1.078,0.574-3.299,0.529-6.665
		V16.679c0.01-2.064-0.021-3.616-0.093-4.656c-0.069-1.041-0.244-1.797-0.521-2.271c-0.279-0.477-0.724-0.896-1.338-1.268
		l-1.185-0.846c-0.26-0.237-0.397-0.611-0.414-1.12c-0.016-0.507,0.122-0.856,0.414-1.046c1.691-0.546,3.521-1.243,5.487-2.083
		c1.969-0.841,3.84-1.654,5.617-2.438c0.563-0.03,0.96,0.22,1.185,0.754c-0.085,1.964-0.146,4.205-0.189,6.722
		C122.623,10.945,122.601,13.255,122.601,15.361L122.601,15.361z"/>
	<path fill="#00539F" d="M174.599,35.245h-8.05c-0.733-0.055-1.193,0.102-1.378,0.472c-0.185,0.369-0.262,1.28-0.234,2.73v14.505
		c-0.08,3.062,0.274,5.672,1.063,7.828c0.783,2.156,2.495,3.281,5.125,3.378c0.826-0.007,1.547-0.157,2.164-0.459
		c0.613-0.299,1.247-0.711,1.903-1.235c0.836,0.157,1.203,0.784,1.104,1.882c-0.866,1.367-2.227,2.565-4.08,3.583
		c-1.852,1.013-4.08,1.547-6.686,1.597c-3.918-0.08-6.505-1.218-7.766-3.414c-1.258-2.196-1.834-4.983-1.727-8.357v-19.12
		c0.02-1.584-0.064-2.563-0.255-2.932c-0.189-0.372-0.616-0.524-1.272-0.459h-2.964c-0.43-0.277-0.674-0.686-0.734-1.235
		c-0.057-0.546,0.103-0.983,0.479-1.308c1.422-0.606,2.665-1.23,3.729-1.872c1.063-0.641,2.051-1.335,2.967-2.083
		c0.826-0.661,1.654-1.482,2.49-2.46c0.836-0.98,1.56-2.106,2.171-3.378c0.406-0.277,0.844-0.362,1.315-0.26
		c0.469,0.103,0.823,0.347,1.061,0.729v5.652c-0.035,0.733,0.032,1.22,0.199,1.459c0.167,0.24,0.637,0.35,1.41,0.332h8.389
		c0.482,0.33,0.709,0.988,0.68,1.976C175.632,33.942,175.265,34.758,174.599,35.245L174.599,35.245z"/>
	<path fill="#00539F" d="M191.587,40.722v16.279c-0.045,3.369,0.13,5.592,0.529,6.668c0.399,1.075,1.298,1.674,2.692,1.799
		l1.524,0.285c0.295,0.384,0.427,0.878,0.393,1.492c-0.033,0.609-0.22,1.038-0.562,1.278c-3.052-0.19-6.104-0.28-9.153-0.274
		c-2.755-0.005-5.722,0.084-8.898,0.274c-0.345-0.24-0.531-0.669-0.564-1.278c-0.034-0.614,0.098-1.108,0.393-1.492l1.524-0.285
		c1.397-0.125,2.293-0.724,2.692-1.799c0.399-1.076,0.576-3.299,0.529-6.668V43.167c0.045-2.046-0.045-3.528-0.263-4.447
		c-0.222-0.916-0.841-1.692-1.856-2.328l-1.016-0.656c-0.13-0.227-0.189-0.577-0.182-1.048c0.01-0.474,0.097-0.846,0.265-1.118
		c2.24-0.729,4.331-1.552,6.272-2.471c1.944-0.918,3.526-1.787,4.747-2.61c0.523,0.063,0.918,0.313,1.188,0.753
		c-0.085,1.595-0.149,3.414-0.192,5.455C191.607,36.742,191.587,38.75,191.587,40.722L191.587,40.722z M187.096,17.385
		c-1.638-0.035-2.942-0.599-3.923-1.694c-0.976-1.093-1.478-2.508-1.502-4.237c0.024-1.731,0.526-3.144,1.502-4.239
		c0.98-1.096,2.285-1.66,3.923-1.694c1.634,0.035,2.939,0.599,3.917,1.694c0.981,1.095,1.482,2.508,1.508,4.239
		c-0.025,1.729-0.526,3.145-1.508,4.237C190.035,16.787,188.729,17.35,187.096,17.385L187.096,17.385z"/>
	<path fill="#00539F" d="M212.588,44.403v12.604c-0.045,3.364,0.133,5.592,0.529,6.675c0.399,1.088,1.298,1.712,2.692,1.882
		l1.271,0.189c0.297,0.384,0.427,0.878,0.394,1.492c-0.034,0.609-0.222,1.038-0.563,1.278c-2.909-0.19-5.904-0.28-8.983-0.274
		c-2.628-0.005-5.68,0.084-9.155,0.274c-0.34-0.24-0.526-0.669-0.562-1.278c-0.032-0.614,0.098-1.108,0.392-1.492l1.866-0.285
		c1.396-0.125,2.291-0.721,2.693-1.796c0.396-1.076,0.573-3.299,0.528-6.665V43.182c0.045-2.048-0.045-3.528-0.265-4.446
		c-0.222-0.916-0.841-1.692-1.856-2.326l-1.016-0.659c-0.13-0.227-0.189-0.574-0.182-1.048c0.01-0.472,0.1-0.846,0.267-1.118
		c1.884-0.601,3.836-1.377,5.856-2.331c2.026-0.953,3.746-1.872,5.163-2.755c0.579,0.063,0.946,0.314,1.101,0.754
		c-0.08,0.916-0.13,1.767-0.147,2.555c-0.018,0.786-0.024,1.38-0.022,1.776c0,0.597,0.255,0.911,0.764,0.941
		c1.896-1.268,3.676-2.358,5.33-3.271c1.654-0.916,3.748-1.395,6.283-1.437c3.424,0.067,5.964,1.252,7.616,3.556
		c1.657,2.301,2.48,5.32,2.471,9.056v14.578c-0.045,3.366,0.129,5.589,0.528,6.665c0.399,1.075,1.298,1.672,2.69,1.796l1.951,0.285
		c0.295,0.384,0.424,0.878,0.395,1.492c-0.035,0.609-0.225,1.038-0.564,1.278c-1.762-0.095-3.408-0.165-4.945-0.21
		c-1.542-0.045-3.084-0.064-4.632-0.064c-2.8-0.005-5.679,0.084-8.646,0.274c-0.342-0.24-0.528-0.669-0.562-1.278
		c-0.034-0.614,0.096-1.108,0.393-1.492l1.27-0.189c1.397-0.17,2.291-0.794,2.69-1.882c0.399-1.083,0.579-3.311,0.534-6.675V44.028
		c0.034-2.458-0.46-4.482-1.485-6.079c-1.025-1.597-2.792-2.426-5.298-2.48c-1.33,0.032-2.485,0.342-3.466,0.928
		c-0.981,0.586-1.689,1.248-2.128,1.986c-0.532,0.773-0.869,1.552-1.009,2.341C212.628,41.51,212.57,42.736,212.588,44.403
		L212.588,44.403z"/>
	<path fill="#00539F" d="M278.935,38.104h-6.188c0.13,0.452,0.229,0.988,0.31,1.604c0.075,0.614,0.11,1.43,0.115,2.448
		c0.005,2.68-0.534,5.195-1.632,7.543c-1.094,2.348-2.785,4.257-5.076,5.725c-2.291,1.47-5.226,2.226-8.804,2.271
		c-1.033-0.032-2.105-0.157-3.224-0.376c-0.699,0.376-1.308,0.871-1.821,1.482c-0.51,0.614-0.779,1.343-0.804,2.191
		c-0.025,0.978,0.319,1.824,1.028,2.543c0.708,0.719,1.916,1.095,3.633,1.13c2.516-0.063,5.624-0.125,9.322-0.187
		c2.092-0.053,4.192,0.174,6.299,0.671c2.101,0.499,3.867,1.567,5.295,3.204c1.423,1.642,2.166,4.147,2.226,7.516
		c-0.079,2.5-0.684,4.781-1.812,6.842c-1.133,2.061-2.306,3.613-3.528,4.651c-1.861,1.742-4.157,3.204-6.887,4.377
		c-2.73,1.178-5.919,1.792-9.558,1.836c-3.958-0.045-7.102-0.644-9.423-1.792c-2.32-1.148-3.982-2.57-4.976-4.262
		c-0.994-1.692-1.478-3.379-1.452-5.056c-0.115-1.353,0.279-2.7,1.188-4.052c0.47-0.509,1.283-1.183,2.436-2.011
		c1.148-0.829,2.092-1.572,2.82-2.226c0.364-0.314,0.629-0.699,0.793-1.143c0.165-0.444,0.07-0.753-0.289-0.928
		c-1.527-0.589-2.83-1.577-3.908-2.954c-1.072-1.383-1.637-3.005-1.682-4.864c-0.06-0.926,0.395-1.712,1.353-2.355
		c0.469-0.274,1.128-0.719,1.972-1.335c0.848-0.617,1.627-1.263,2.33-1.944c0.709-0.679,1.078-1.248,1.123-1.712
		c0.06-0.392-0.055-0.739-0.339-1.036c-1.522-0.661-2.925-1.929-4.218-3.803c-1.287-1.871-1.971-4.342-2.056-7.406
		c0.074-4.327,1.517-7.866,4.326-10.618c2.806-2.75,6.538-4.172,11.185-4.262c3.449,0.047,6.304,0.706,8.564,1.979
		c0.868,0.469,1.587,0.824,2.15,1.061c0.564,0.235,1.089,0.352,1.577,0.352h8.31c0.395,0.329,0.619,0.893,0.679,1.694
		C280.178,36.819,279.724,37.887,278.935,38.104L278.935,38.104z M263.339,72.86h-4.831c-2.899-0.05-4.821,0.329-5.765,1.128
		c-0.738,0.609-1.342,1.347-1.812,2.216c-0.474,0.863-0.719,1.886-0.733,3.059c0.055,2.91,1.093,5.21,3.104,6.907
		c2.016,1.702,4.681,2.57,8,2.605c3.623-0.025,6.403-0.799,8.34-2.331c1.936-1.532,2.914-3.673,2.935-6.428
		c-0.056-2.401-0.938-4.192-2.65-5.38C268.22,73.449,266.023,72.855,263.339,72.86L263.339,72.86z M252.913,43.002
		c0.06,3.636,0.704,6.396,1.927,8.277c1.228,1.881,2.675,2.827,4.342,2.837c1.646,0.007,2.979-0.786,4.008-2.378
		c1.027-1.594,1.557-4.035,1.592-7.324c-0.025-3.261-0.594-5.896-1.707-7.91c-1.118-2.011-2.64-3.049-4.566-3.107
		c-1.532-0.007-2.835,0.781-3.913,2.366C253.522,37.346,252.958,39.759,252.913,43.002L252.913,43.002z"/>
	<path fill="#00539F" d="M41.266,117.866V92.034c0.018-2.231-0.025-3.893-0.127-5.006c-0.103-1.108-0.372-1.861-0.806-2.261
		c-0.432-0.394-1.14-0.634-2.116-0.719l-1.654-0.209c-0.222-0.279-0.332-0.624-0.327-1.043c0.007-0.419,0.137-0.729,0.389-0.938
		c2.036-0.209,4.324-0.369,6.86-0.474c2.535-0.104,5.123-0.16,7.763-0.16c2.498-0.005,4.781,0.185,6.85,0.569
		c2.068,0.379,3.813,0.993,5.23,1.832c1.649,0.948,2.986,2.271,4.013,3.968c1.022,1.697,1.549,3.813,1.579,6.348
		c-0.035,2.156-0.464,3.978-1.285,5.465c-0.821,1.492-1.814,2.695-2.979,3.619c-1.168,0.923-2.288,1.617-3.363,2.076
		c-0.317,0.294-0.317,0.693,0,1.203c2.508,4.761,4.646,8.659,6.413,11.688c1.769,3.034,3.381,5.235,4.838,6.608
		c0.916,0.823,1.772,1.392,2.575,1.701c0.804,0.31,1.407,0.47,1.812,0.484c0.157,0.159,0.242,0.389,0.255,0.679
		c0.015,0.294-0.03,0.539-0.127,0.733c-0.369,0.11-0.886,0.21-1.55,0.295c-0.664,0.079-1.545,0.124-2.646,0.13
		c-2.981,0.024-5.475-0.709-7.479-2.201c-2.004-1.487-3.939-3.873-5.807-7.142c-0.865-1.522-1.727-3.149-2.585-4.876
		c-0.856-1.727-1.67-3.299-2.438-4.716c-0.533-1.023-1.07-1.687-1.614-1.992c-0.541-0.299-1.317-0.439-2.328-0.404
		c-0.916-0.03-1.482,0.045-1.699,0.22c-0.217,0.175-0.307,0.619-0.272,1.328v9.028c-0.01,2.446,0.078,4.223,0.263,5.33
		c0.182,1.108,0.531,1.827,1.048,2.151c0.517,0.324,1.268,0.534,2.251,0.629l1.399,0.215c0.22,0.284,0.319,0.658,0.295,1.117
		c-0.027,0.46-0.167,0.779-0.422,0.959c-2.819-0.14-5.637-0.21-8.457-0.205c-2.795-0.005-5.657,0.065-8.582,0.205
		c-0.265-0.18-0.419-0.499-0.469-0.959c-0.047-0.459,0.065-0.833,0.342-1.117l1.4-0.215c0.983-0.095,1.734-0.305,2.248-0.629
		c0.517-0.324,0.869-1.043,1.053-2.151C41.191,122.088,41.279,120.312,41.266,117.866L41.266,117.866z M48.64,87.513v14.692
		c-0.062,1.088,0.065,1.772,0.382,2.046c0.32,0.279,1.208,0.394,2.671,0.354c6.146-0.01,9.175-3.379,9.09-10.102
		c-0.02-2.875-0.791-5.315-2.311-7.321c-1.521-2.001-3.676-3.044-6.46-3.134c-1.587-0.055-2.563,0.115-2.925,0.514
		C48.723,84.962,48.575,85.945,48.64,87.513L48.64,87.513z"/>
	<path fill="#00539F" d="M94.814,111.323H83.817c-0.584-0.015-0.958,0.035-1.12,0.145c-0.165,0.109-0.235,0.364-0.218,0.778
		c0.048,3.254,0.941,5.959,2.681,8.1c1.739,2.146,4.045,3.259,6.919,3.339c1.275,0.021,2.429-0.244,3.459-0.783
		c1.028-0.539,1.909-1.457,2.645-2.75c0.332-0.085,0.64,0,0.914,0.25c0.276,0.249,0.438,0.544,0.486,0.883
		c-1.153,2.795-2.728,4.796-4.729,6.004c-2.002,1.208-4.008,1.797-6.017,1.767c-3.738-0.085-6.702-1.433-8.898-4.042
		c-2.198-2.615-3.321-5.975-3.369-10.086c0.008-2.705,0.534-5.246,1.583-7.611c1.048-2.371,2.569-4.292,4.566-5.779
		c1.993-1.478,4.416-2.246,7.264-2.291c1.6,0.005,3.119,0.375,4.562,1.108c1.444,0.734,2.628,1.807,3.546,3.224
		c0.921,1.417,1.397,3.154,1.428,5.206c0.022,0.574-0.085,1.118-0.32,1.622C98.819,111.029,97.357,111.338,94.814,111.323
		L94.814,111.323z M83.88,108.499h5.784c0.908,0,1.604-0.05,2.081-0.14c0.481-0.09,0.826-0.21,1.035-0.354
		c0.402-0.314,0.614-0.813,0.637-1.482c-0.005-1.302-0.362-2.385-1.073-3.249c-0.711-0.864-1.754-1.308-3.124-1.343
		c-1.417,0.045-2.588,0.464-3.509,1.243c-0.921,0.784-1.604,1.652-2.054,2.6c-0.446,0.943-0.668,1.692-0.668,2.231
		C82.904,108.314,83.201,108.474,83.88,108.499L83.88,108.499z"/>
	<path fill="#00539F" d="M110.979,129.055c-1.317,0.01-2.596-0.154-3.841-0.494c-1.242-0.344-2.378-0.928-3.408-1.767
		c-0.322-0.729-0.566-1.852-0.731-3.354c-0.164-1.508-0.217-3.05-0.159-4.627c0.214-0.284,0.504-0.438,0.868-0.469
		c0.364-0.031,0.669,0.08,0.913,0.324c0.576,2.052,1.442,3.828,2.598,5.335c1.155,1.503,2.578,2.291,4.268,2.366
		c1.01-0.01,1.852-0.359,2.52-1.048c0.669-0.694,1.016-1.662,1.041-2.91c-0.04-1.298-0.484-2.391-1.327-3.278
		c-0.844-0.898-1.842-1.638-2.995-2.231c-1.729-0.858-3.264-1.996-4.611-3.414c-1.345-1.417-2.054-3.249-2.129-5.485
		c0.038-2.775,0.948-4.921,2.735-6.443c1.787-1.522,4.03-2.296,6.737-2.316c1.333,0.025,2.53,0.19,3.601,0.494
		c1.068,0.31,1.84,0.614,2.313,0.918c0.634,1.437,0.951,3.723,0.951,6.852c-0.125,0.29-0.38,0.469-0.762,0.549
		c-0.382,0.075-0.701,0.01-0.953-0.195c-0.491-1.667-1.213-3.064-2.163-4.182c-0.951-1.123-2.052-1.707-3.304-1.752
		c-1.038,0.025-1.887,0.379-2.543,1.068c-0.656,0.689-0.996,1.557-1.019,2.605c0.025,1.018,0.435,1.911,1.223,2.69
		c0.789,0.778,1.802,1.487,3.037,2.111c1.794,0.864,3.401,2.037,4.816,3.509c1.415,1.472,2.161,3.573,2.24,6.313
		c-0.029,2.041-0.516,3.713-1.454,5.016c-0.941,1.308-2.161,2.266-3.658,2.89C114.283,128.75,112.682,129.06,110.979,129.055
		L110.979,129.055z"/>
	<path fill="#00539F" d="M142.798,111.323h-10.997c-0.584-0.015-0.958,0.035-1.12,0.145c-0.165,0.109-0.235,0.364-0.218,0.778
		c0.048,3.254,0.941,5.959,2.681,8.1c1.739,2.146,4.045,3.259,6.919,3.339c1.278,0.021,2.431-0.244,3.459-0.783
		s1.911-1.457,2.646-2.75c0.331-0.085,0.639,0,0.913,0.25c0.276,0.249,0.438,0.544,0.486,0.883
		c-1.153,2.795-2.728,4.796-4.729,6.004c-2.002,1.208-4.008,1.797-6.017,1.767c-3.738-0.085-6.705-1.433-8.901-4.042
		c-2.195-2.615-3.318-5.975-3.368-10.086c0.008-2.705,0.536-5.246,1.584-7.611c1.049-2.371,2.57-4.292,4.567-5.779
		c1.993-1.478,4.414-2.246,7.264-2.291c1.597,0.005,3.119,0.375,4.562,1.108c1.444,0.734,2.625,1.807,3.546,3.224
		c0.921,1.417,1.397,3.154,1.428,5.206c0.022,0.574-0.085,1.118-0.317,1.622C146.803,111.029,145.341,111.338,142.798,111.323
		L142.798,111.323z M131.863,108.499h5.784c0.911,0,1.602-0.05,2.084-0.14c0.479-0.09,0.823-0.21,1.03-0.354
		c0.404-0.314,0.616-0.813,0.639-1.482c-0.005-1.302-0.364-2.385-1.073-3.249c-0.711-0.864-1.754-1.308-3.124-1.343
		c-1.417,0.045-2.588,0.464-3.509,1.243c-0.921,0.784-1.604,1.652-2.054,2.6c-0.446,0.943-0.671,1.692-0.668,2.231
		C130.888,108.314,131.185,108.474,131.863,108.499L131.863,108.499z"/>
	<path fill="#00539F" d="M170.936,108.044l-0.444,11.02c-0.225,4.122,0.794,6.193,3.052,6.214c0.549-0.03,1.023-0.16,1.415-0.385
		c0.392-0.229,0.639-0.359,0.746-0.39c0.175,0.021,0.334,0.175,0.477,0.47c0.143,0.289,0.175,0.604,0.095,0.943
		c-0.698,0.993-1.669,1.757-2.917,2.296c-1.245,0.533-2.393,0.803-3.443,0.813c-0.813,0.011-1.627-0.134-2.44-0.434
		c-0.813-0.3-1.532-0.813-2.153-1.547c-0.404-0.529-0.746-0.813-1.023-0.844c-0.255,0.01-0.826,0.339-1.717,0.988
		c-0.609,0.449-1.378,0.858-2.298,1.232c-0.921,0.38-1.957,0.579-3.107,0.604c-2.161-0.064-3.782-0.768-4.863-2.101
		c-1.08-1.338-1.622-2.92-1.622-4.751c-0.053-1.283,0.277-2.48,0.993-3.604s2.146-2.111,4.285-2.97
		c2.266-0.868,4.599-1.812,6.994-2.819c0.616-0.25,1.021-0.534,1.21-0.844c0.188-0.309,0.272-0.644,0.255-0.998l0.063-1.836
		c0.09-1.852-0.152-3.424-0.724-4.707c-0.571-1.277-1.625-1.946-3.157-2.001c-0.903,0-1.656,0.264-2.258,0.783
		c-0.602,0.524-0.974,1.298-1.113,2.326c-0.117,1.268-0.519,2.116-1.208,2.541c-0.472,0.334-1.085,0.624-1.841,0.878
		c-0.759,0.25-1.5,0.379-2.227,0.394c-0.815-0.06-1.22-0.434-1.207-1.128c-0.028-0.424,0.122-1.013,0.451-1.762
		s1.006-1.667,2.026-2.76c1.068-1.083,2.54-2.081,4.419-2.995c1.879-0.913,3.671-1.402,5.373-1.457
		c2.55-0.02,4.531,0.674,5.938,2.086C170.377,102.709,171.033,104.955,170.936,108.044L170.936,108.044z M164.108,121.749
		l0.127-5.085c-0.013-0.789-0.182-1.188-0.509-1.203c-0.268,0.005-0.654,0.085-1.16,0.24c-0.507,0.155-1.054,0.359-1.64,0.609
		c-0.921,0.314-1.717,0.813-2.383,1.492c-0.669,0.679-1.019,1.757-1.051,3.239c-0.003,0.973,0.289,1.886,0.876,2.739
		c0.584,0.849,1.479,1.303,2.685,1.357c1.126-0.034,1.911-0.389,2.36-1.058C163.862,123.41,164.096,122.632,164.108,121.749
		L164.108,121.749z"/>
	<path fill="#00539F" d="M180.944,119.658v-10.381c0.035-1.537-0.032-2.65-0.197-3.338c-0.164-0.689-0.629-1.268-1.39-1.747
		l-0.764-0.494c-0.098-0.169-0.143-0.434-0.135-0.789c0.005-0.354,0.072-0.634,0.197-0.838c1.41-0.509,2.85-1.113,4.314-1.801
		c1.467-0.689,2.697-1.358,3.695-2.012c0.425,0,0.722,0.215,0.892,0.634c-0.075,1.412-0.118,2.475-0.128,3.179
		c0.022,0.534,0.232,0.813,0.637,0.849c0.985-0.833,2.001-1.637,3.042-2.42c1.043-0.779,2.105-1.198,3.188-1.253
		c1.118,0.03,1.979,0.379,2.58,1.043c0.604,0.664,0.908,1.473,0.914,2.421c-0.04,1.372-0.42,2.4-1.136,3.079
		c-0.716,0.679-1.524,1.018-2.423,1.018c-0.637-0.015-1.208-0.2-1.717-0.569c-0.799-0.579-1.46-0.953-1.979-1.118
		c-0.521-0.169-0.878-0.239-1.072-0.225c-0.717,0-1.205,0.415-1.47,1.248c-0.265,0.833-0.39,2.116-0.375,3.838v9.677
		c-0.034,2.535,0.101,4.197,0.407,5.001c0.305,0.798,0.995,1.228,2.073,1.287l2.479,0.285c0.222,0.284,0.319,0.648,0.294,1.103
		c-0.024,0.454-0.164,0.764-0.422,0.943c-1.866-0.07-3.438-0.125-4.711-0.16c-1.272-0.034-2.478-0.05-3.616-0.05
		c-2.043,0-4.249,0.07-6.609,0.21c-0.258-0.18-0.397-0.489-0.422-0.943c-0.025-0.454,0.072-0.818,0.294-1.103l1.146-0.215
		c1.043-0.09,1.717-0.539,2.017-1.348C180.847,123.86,180.979,122.188,180.944,119.658L180.944,119.658z"/>
	<path fill="#00539F" d="M214.295,99.211c1.856-0.02,3.678,0.309,5.47,0.988c0.836,0.813,1.261,2.017,1.271,3.604
		c-0.035,1.128-0.237,1.961-0.604,2.51c-0.366,0.544-0.695,0.813-0.985,0.809c-0.401,0.06-0.804-0.2-1.208-0.773
		c-0.698-1.078-1.527-2.051-2.485-2.925c-0.96-0.873-2.061-1.333-3.299-1.387c-1.894,0.03-3.575,0.963-5.048,2.81
		c-1.47,1.847-2.246,4.442-2.326,7.786c0.003,1.941,0.362,3.753,1.071,5.435c0.708,1.687,1.739,3.054,3.089,4.103
		c1.353,1.053,2.997,1.592,4.929,1.622c2.016-0.025,3.519-0.395,4.507-1.104c0.99-0.709,1.776-1.587,2.36-2.64
		c0.302-0.03,0.586,0.069,0.858,0.294c0.27,0.225,0.427,0.549,0.477,0.979c-1.218,2.824-2.867,4.821-4.951,5.994
		c-2.083,1.173-4.162,1.741-6.238,1.706c-1.707-0.015-3.331-0.359-4.871-1.032c-1.539-0.68-2.862-1.607-3.965-2.78
		c-1.128-1.223-2.019-2.705-2.678-4.452c-0.658-1.746-0.995-3.658-1.011-5.724c0.005-2.794,0.599-5.385,1.782-7.771
		c1.183-2.391,2.935-4.317,5.255-5.784C208.012,100.009,210.881,99.25,214.295,99.211L214.295,99.211z"/>
	<path fill="#00539F" d="M233.694,88.406v13.066c-0.03,0.823,0.159,1.223,0.573,1.203c1.113-0.948,2.351-1.742,3.714-2.386
		c1.357-0.644,2.834-0.978,4.421-1.008c2.735,0.035,4.771,0.933,6.124,2.695c1.348,1.757,2.021,4.152,2.017,7.187v10.51
		c-0.035,2.525,0.1,4.192,0.399,5.001c0.299,0.804,0.968,1.258,2.016,1.348l1.463,0.21c0.284,0.289,0.414,0.663,0.389,1.122
		c-0.024,0.46-0.199,0.779-0.514,0.959c-1.323-0.075-2.561-0.125-3.713-0.16c-1.153-0.035-2.312-0.05-3.474-0.05
		c-2.097,0-4.258,0.065-6.483,0.21c-0.255-0.18-0.399-0.499-0.424-0.959c-0.025-0.459,0.074-0.833,0.294-1.122l0.953-0.14
		c1.048-0.125,1.722-0.6,2.021-1.413c0.299-0.813,0.43-2.48,0.399-5.006v-9.946c0.02-1.737-0.359-3.199-1.138-4.372
		c-0.784-1.178-2.097-1.787-3.953-1.837c-1.048,0.03-1.937,0.255-2.66,0.679c-0.724,0.429-1.277,0.883-1.661,1.367
		c-0.335,0.395-0.55,0.933-0.645,1.617c-0.09,0.684-0.13,1.697-0.119,3.039v9.452c-0.035,2.525,0.1,4.192,0.398,5.006
		c0.3,0.813,0.974,1.288,2.017,1.413l0.953,0.14c0.225,0.289,0.319,0.663,0.295,1.122c-0.025,0.46-0.165,0.779-0.42,0.959
		c-2.181-0.145-4.427-0.21-6.737-0.21c-1.971,0-4.262,0.065-6.867,0.21c-0.254-0.18-0.395-0.499-0.422-0.959
		c-0.024-0.459,0.075-0.833,0.295-1.122l1.399-0.21c1.049-0.09,1.717-0.544,2.017-1.348c0.3-0.809,0.435-2.476,0.399-5.001V89.394
		c0.01-1.552-0.015-2.715-0.07-3.494c-0.05-0.783-0.185-1.347-0.394-1.702c-0.205-0.359-0.539-0.674-0.999-0.953l-0.891-0.634
		c-0.194-0.18-0.297-0.459-0.31-0.839c-0.012-0.379,0.093-0.644,0.31-0.788c1.271-0.41,2.643-0.929,4.115-1.563
		c1.478-0.629,2.88-1.237,4.212-1.827c0.424-0.025,0.724,0.165,0.894,0.564c-0.065,1.478-0.115,3.154-0.145,5.041
		C233.714,85.092,233.694,86.824,233.694,88.406L233.694,88.406z"/>
	<path fill="#00539F" d="M312.508,82.292c0.055,0.844,0.14,2.231,0.254,4.163c0.115,1.926,0.33,4.212,0.634,6.857
		c-0.249,0.285-0.589,0.444-1.013,0.469c-0.43,0.025-0.769-0.08-1.019-0.324c-0.339-1.532-0.943-3.079-1.816-4.656
		c-0.868-1.567-2.146-2.895-3.833-3.973c-1.682-1.078-3.912-1.642-6.688-1.687c-2.739-0.01-5.335,0.719-7.79,2.186
		c-2.451,1.467-4.452,3.738-6.009,6.813c-1.558,3.079-2.356,7.021-2.411,11.843c0.055,5.011,0.889,9.173,2.496,12.487
		c1.611,3.319,3.678,5.794,6.198,7.441c2.521,1.643,5.175,2.461,7.965,2.461c2.65-0.045,4.856-0.614,6.608-1.707
		c1.751-1.098,3.158-2.445,4.222-4.048c1.063-1.602,1.882-3.193,2.455-4.771c0.31-0.304,0.659-0.419,1.049-0.334
		c0.389,0.08,0.679,0.29,0.858,0.619c-0.265,2.436-0.719,4.646-1.357,6.638c-0.64,1.996-1.203,3.358-1.692,4.098
		c-0.773,0.175-1.518,0.389-2.226,0.639c-0.769,0.284-2.081,0.629-3.933,1.033c-1.856,0.399-3.854,0.618-5.984,0.658
		c-6.283,0.085-11.708-1.497-16.274-4.73c-2.63-1.867-4.776-4.417-6.448-7.646c-1.667-3.229-2.525-7.156-2.58-11.778
		c0.04-4.147,0.788-7.795,2.241-10.95c1.452-3.154,3.378-5.744,5.769-7.771c2.386-1.981,5.096-3.479,8.13-4.487
		c3.029-1.008,6.169-1.512,9.418-1.517c1.856,0.01,3.768,0.165,5.734,0.459c1.971,0.294,3.723,0.659,5.26,1.093
		C311.415,82.048,312.009,82.188,312.508,82.292L312.508,82.292z"/>
	<path fill="#00539F" d="M335.834,111.323h-10.999c-0.584-0.015-0.959,0.035-1.118,0.145c-0.165,0.109-0.234,0.364-0.215,0.778
		c0.045,3.254,0.938,5.959,2.675,8.1c1.742,2.146,4.048,3.259,6.923,3.339c1.277,0.021,2.431-0.244,3.458-0.783
		c1.028-0.539,1.912-1.457,2.646-2.75c0.334-0.085,0.639,0,0.913,0.25c0.274,0.249,0.439,0.544,0.484,0.883
		c-1.148,2.795-2.726,4.796-4.727,6.004s-4.008,1.797-6.019,1.767c-3.733-0.085-6.703-1.433-8.898-4.042
		c-2.196-2.615-3.319-5.975-3.369-10.086c0.01-2.705,0.534-5.246,1.587-7.611c1.049-2.371,2.57-4.292,4.562-5.779
		c1.997-1.478,4.417-2.246,7.267-2.291c1.598,0.005,3.119,0.375,4.562,1.108c1.442,0.734,2.625,1.807,3.549,3.224
		c0.918,1.417,1.393,3.154,1.422,5.206c0.025,0.574-0.079,1.118-0.314,1.622C339.837,111.029,338.374,111.338,335.834,111.323
		L335.834,111.323z M324.899,108.499h5.784c0.908,0,1.603-0.05,2.081-0.14c0.479-0.09,0.824-0.21,1.033-0.354
		c0.404-0.314,0.614-0.813,0.639-1.482c-0.005-1.302-0.364-2.385-1.072-3.249c-0.714-0.864-1.757-1.308-3.125-1.343
		c-1.417,0.045-2.585,0.464-3.508,1.243c-0.924,0.784-1.607,1.652-2.052,2.6c-0.449,0.943-0.674,1.692-0.669,2.231
		C323.921,108.314,324.221,108.474,324.899,108.499L324.899,108.499z"/>
	<path fill="#00539F" d="M353.896,110.186v9.453c-0.035,2.525,0.1,4.191,0.395,5.006c0.299,0.813,0.973,1.287,2.021,1.412
		l0.953,0.145c0.22,0.284,0.319,0.659,0.294,1.118c-0.024,0.454-0.164,0.773-0.424,0.958c-2.181-0.14-4.427-0.21-6.737-0.21
		c-1.972,0-4.258,0.07-6.867,0.21c-0.255-0.185-0.395-0.504-0.42-0.958c-0.024-0.459,0.075-0.834,0.295-1.118l1.397-0.215
		c1.048-0.095,1.722-0.544,2.021-1.348c0.299-0.809,0.429-2.475,0.394-5v-10.371c0.035-1.532-0.029-2.645-0.194-3.334
		c-0.17-0.688-0.634-1.268-1.393-1.742l-0.764-0.494c-0.095-0.169-0.14-0.434-0.135-0.789c0.005-0.354,0.075-0.634,0.2-0.838
		c1.412-0.449,2.874-1.033,4.392-1.747c1.517-0.714,2.81-1.402,3.873-2.066c0.434,0.045,0.708,0.235,0.823,0.564
		c-0.06,0.689-0.095,1.328-0.109,1.917c-0.016,0.589-0.021,1.033-0.016,1.333c0,0.449,0.189,0.684,0.574,0.709
		c1.422-0.954,2.755-1.772,3.992-2.456c1.243-0.684,2.815-1.043,4.717-1.078c2.564,0.05,4.472,0.938,5.709,2.665
		c1.243,1.727,1.861,3.993,1.852,6.792v10.935c-0.035,2.525,0.1,4.191,0.399,5c0.3,0.804,0.974,1.253,2.017,1.348l1.462,0.215
		c0.225,0.284,0.319,0.659,0.294,1.118c-0.024,0.454-0.164,0.773-0.419,0.958c-1.322-0.075-2.56-0.125-3.713-0.16
		c-1.153-0.029-2.311-0.05-3.469-0.05c-2.101,0-4.262,0.07-6.487,0.21c-0.255-0.185-0.395-0.504-0.42-0.958
		c-0.024-0.459,0.07-0.834,0.295-1.118l0.953-0.145c1.043-0.125,1.717-0.6,2.016-1.412c0.3-0.814,0.435-2.48,0.399-5.006v-9.732
		c0.025-1.846-0.344-3.364-1.112-4.563c-0.768-1.198-2.092-1.816-3.973-1.861c-0.998,0.025-1.861,0.259-2.601,0.699
		c-0.733,0.439-1.268,0.938-1.597,1.487c-0.399,0.584-0.649,1.167-0.754,1.756C353.926,108.015,353.881,108.933,353.896,110.186
		L353.896,110.186z"/>
	<path fill="#00539F" d="M394.795,103.318h-6.039c-0.549-0.04-0.894,0.075-1.033,0.354c-0.14,0.274-0.199,0.958-0.175,2.046v10.88
		c-0.06,2.295,0.205,4.252,0.794,5.869c0.589,1.617,1.871,2.461,3.848,2.535c0.619-0.005,1.158-0.119,1.622-0.344
		c0.459-0.225,0.934-0.534,1.428-0.929c0.623,0.12,0.903,0.589,0.828,1.413c-0.648,1.027-1.672,1.921-3.06,2.685
		c-1.393,0.764-3.064,1.163-5.016,1.203c-2.939-0.061-4.881-0.914-5.824-2.561c-0.943-1.652-1.377-3.743-1.298-6.273v-14.338
		c0.021-1.188-0.045-1.921-0.189-2.196c-0.145-0.28-0.459-0.395-0.953-0.344h-2.226c-0.319-0.21-0.504-0.519-0.549-0.929
		c-0.04-0.409,0.074-0.738,0.359-0.983c1.067-0.449,2.001-0.918,2.8-1.402c0.793-0.479,1.537-0.998,2.221-1.562
		c0.619-0.494,1.242-1.108,1.866-1.842c0.629-0.739,1.173-1.582,1.632-2.535c0.305-0.209,0.634-0.274,0.983-0.2
		c0.354,0.08,0.619,0.265,0.799,0.549v4.237c-0.025,0.554,0.024,0.918,0.149,1.098c0.125,0.179,0.479,0.259,1.059,0.25h6.293
		c0.359,0.244,0.529,0.738,0.504,1.482C395.568,102.34,395.294,102.954,394.795,103.318L394.795,103.318z"/>
	<path fill="#00539F" d="M416.101,111.323h-10.994c-0.584-0.015-0.958,0.035-1.123,0.145c-0.159,0.109-0.234,0.364-0.216,0.778
		c0.046,3.254,0.938,5.959,2.682,8.1c1.735,2.146,4.047,3.259,6.922,3.339c1.271,0.021,2.426-0.244,3.453-0.783
		c1.033-0.539,1.912-1.457,2.649-2.75c0.33-0.085,0.635,0,0.913,0.25c0.274,0.249,0.439,0.544,0.484,0.883
		c-1.152,2.795-2.729,4.796-4.731,6.004c-2.001,1.208-4.002,1.797-6.014,1.767c-3.738-0.085-6.702-1.433-8.897-4.042
		c-2.195-2.615-3.318-5.975-3.368-10.086c0.005-2.705,0.532-5.246,1.582-7.611c1.048-2.371,2.569-4.292,4.565-5.779
		c1.996-1.478,4.417-2.246,7.262-2.291c1.603,0.005,3.119,0.375,4.566,1.108c1.442,0.734,2.625,1.807,3.543,3.224
		s1.397,3.154,1.428,5.206c0.021,0.574-0.085,1.118-0.318,1.622C420.107,111.029,418.646,111.338,416.101,111.323L416.101,111.323z
		 M405.165,108.499h5.79c0.908,0,1.602-0.05,2.081-0.14c0.479-0.09,0.823-0.21,1.033-0.354c0.403-0.314,0.612-0.813,0.634-1.482
		c0-1.302-0.359-2.385-1.073-3.249c-0.709-0.864-1.752-1.308-3.124-1.343c-1.418,0.045-2.586,0.464-3.504,1.243
		c-0.923,0.784-1.607,1.652-2.056,2.6c-0.449,0.943-0.669,1.692-0.669,2.231C404.192,108.314,404.491,108.474,405.165,108.499
		L405.165,108.499z"/>
	<path fill="#00539F" d="M427.554,119.658v-10.381c0.03-1.537-0.035-2.65-0.198-3.338c-0.165-0.689-0.63-1.268-1.394-1.747
		l-0.764-0.494c-0.096-0.169-0.141-0.434-0.136-0.789c0.011-0.354,0.075-0.634,0.199-0.838c1.413-0.509,2.851-1.113,4.317-1.801
		c1.462-0.689,2.695-1.358,3.692-2.012c0.425,0,0.725,0.215,0.889,0.634c-0.069,1.412-0.114,2.475-0.124,3.179
		c0.02,0.534,0.233,0.813,0.634,0.849c0.988-0.833,2.001-1.637,3.044-2.42c1.043-0.779,2.106-1.198,3.189-1.253
		c1.117,0.03,1.976,0.379,2.58,1.043c0.604,0.664,0.907,1.473,0.912,2.421c-0.04,1.372-0.419,2.4-1.133,3.079
		c-0.719,0.679-1.526,1.018-2.426,1.018c-0.639-0.015-1.207-0.2-1.717-0.569c-0.798-0.579-1.457-0.953-1.978-1.118
		c-0.522-0.169-0.878-0.239-1.076-0.225c-0.715,0-1.203,0.415-1.469,1.248c-0.265,0.833-0.389,2.116-0.374,3.838v9.677
		c-0.034,2.535,0.101,4.197,0.404,5.001c0.31,0.798,0.998,1.228,2.076,1.287l2.476,0.285c0.226,0.284,0.324,0.648,0.299,1.103
		c-0.028,0.454-0.17,0.764-0.424,0.943c-1.867-0.07-3.438-0.125-4.711-0.16c-1.272-0.034-2.476-0.05-3.613-0.05
		c-2.047,0-4.253,0.07-6.612,0.21c-0.255-0.18-0.396-0.489-0.424-0.943c-0.025-0.454,0.073-0.818,0.294-1.103l1.147-0.215
		c1.043-0.09,1.717-0.539,2.017-1.348C427.454,123.86,427.589,122.188,427.554,119.658L427.554,119.658z"/>
</g>
</svg>
