<?xml version="1.0" encoding="utf-8"?>
<!-- Generator: Adobe Illustrator 14.0.0, SVG Export Plug-In . SVG Version: 6.00 Build 43363)  -->
<!DOCTYPE svg PUBLIC "-//W3C//DTD SVG 1.1//EN" "http://www.w3.org/Graphics/SVG/1.1/DTD/svg11.dtd">
<svg version="1.1" id="Layer_1" xmlns="http://www.w3.org/2000/svg" xmlns:xlink="http://www.w3.org/1999/xlink" x="0px" y="0px"
	 width="799.415px" height="394.896px" viewBox="0 0 799.415 394.896" enable-background="new 0 0 799.415 394.896"
	 xml:space="preserve">
<g>
	<g>
		<path fill-rule="evenodd" clip-rule="evenodd" fill="#9CA7D0" d="M0,0.759c18.197-1.516,39.209-0.217,58.489-0.65
			c0,0.217,0,0.433,0,0.65C38.993,0.759,19.497,0.759,0,0.759z"/>
		<path fill-rule="evenodd" clip-rule="evenodd" fill="#9CA7D0" d="M292.444,0.759c0-0.217,0-0.433,0-0.65
			c32.494,0,64.988,0,97.481,0c0,0.217,0,0.433,0,0.65C357.432,0.759,324.938,0.759,292.444,0.759z"/>
		<path fill-rule="evenodd" clip-rule="evenodd" fill="#001B85" d="M0,0.759c19.497,0,38.993,0,58.489,0
			c0,103.767,0,207.525,0,311.291c0,0.217,0,0.433,0,0.649c32.494,0,64.988,0,97.481,0c0,25.778,0,51.557,0,77.336
			c-51.99,0-103.98,0-155.97,0C0,260.275,0,130.519,0,0.759z"/>
		<path fill-rule="evenodd" clip-rule="evenodd" fill="#5F71B3" d="M77.335,0.759c0.217,0,0.434,0,0.65,0c0,18.63,0,37.259,0,55.889
			c-0.216,0-0.433,0-0.65,0C77.335,38.019,77.335,19.389,77.335,0.759z"/>
		<path fill-rule="evenodd" clip-rule="evenodd" fill="#5F71B3" d="M406.172,3.359c0.217,0,0.434,0,0.65,0
			c0,35.96,0,71.919,0,107.879c-0.217,0-0.434,0-0.65,0C406.172,75.278,406.172,39.319,406.172,3.359z"/>
		<path fill-rule="evenodd" clip-rule="evenodd" fill="#001B85" d="M406.822,3.359c4.549,0,9.098,0,13.647,0
			c0.433,30.544-0.866,62.821,0.649,92.282c8.448,0,16.897,0,25.346,0c0,5.199,0,10.398,0,15.597c-13.215,0-26.429,0-39.643,0
			C406.822,75.278,406.822,39.319,406.822,3.359z"/>
		<path fill-rule="evenodd" clip-rule="evenodd" fill="#C8CEE5" d="M420.47,3.359c1.516,29.461,0.217,61.738,0.649,92.282
			C419.604,66.18,420.902,33.903,420.47,3.359z"/>
		<path fill-rule="evenodd" clip-rule="evenodd" fill="#C8CEE5" d="M457.513,3.359c0,35.96,0,71.919,0,107.879
			c0,0.216,0,0.433,0,0.65C456.43,77.228,456.43,38.019,457.513,3.359z"/>
		<path fill-rule="evenodd" clip-rule="evenodd" fill="#001B85" d="M457.513,3.359c4.549,0,9.098,0,13.647,0
			c0,35.96,0,71.919,0,107.879c-4.55,0-9.099,0-13.647,0C457.513,75.278,457.513,39.319,457.513,3.359z"/>
		<path fill-rule="evenodd" clip-rule="evenodd" fill="#5F71B3" d="M471.16,3.359c0.216,0,0.433,0,0.649,0
			c0,35.96,0,71.919,0,107.879c-0.217,0-0.434,0-0.649,0C471.16,75.278,471.16,39.319,471.16,3.359z"/>
		<path fill-rule="evenodd" clip-rule="evenodd" fill="#C8CEE5" d="M547.845,3.359c0,35.96,0,71.919,0,107.879
			c0,0.216,0,0.433,0,0.65C546.762,77.228,546.762,38.019,547.845,3.359z"/>
		<path fill-rule="evenodd" clip-rule="evenodd" fill="#001B85" d="M547.845,3.359c4.55,0,9.099,0,13.647,0
			c0,14.297,0,28.594,0,42.892c0.217,0,0.434,0,0.65,0c6.498,0,12.997,0,19.496,0c1.516-12.999,0.217-28.811,0.649-42.892
			c4.55,0,9.099,0,13.647,0c0,35.96,0,71.919,0,107.879c-4.549,0-9.098,0-13.647,0c0-16.464,0-32.927,0-49.391
			c-0.216,0-0.433,0-0.649,0c-6.499,0-12.998,0-19.496,0c-1.516,15.165-0.218,33.143-0.65,49.391c-4.549,0-9.098,0-13.647,0
			C547.845,75.278,547.845,39.319,547.845,3.359z"/>
		<path fill-rule="evenodd" clip-rule="evenodd" fill="#C8CEE5" d="M595.936,3.359c1.083,34.66,1.083,73.869,0,108.529
			c0-0.217,0-0.434,0-0.65C595.936,75.278,595.936,39.319,595.936,3.359z"/>
		<path fill-rule="evenodd" clip-rule="evenodd" fill="#5F71B3" d="M604.385,3.359c0.216,0,0.433,0,0.649,0
			c0,5.199,0,10.398,0,15.597C603.524,15.05,604.813,8.346,604.385,3.359z"/>
		<path fill-rule="evenodd" clip-rule="evenodd" fill="#001B85" d="M605.034,3.359c15.597,0,31.194,0,46.791,0
			c0,5.199,0,10.398,0,15.597c-5.204,0.429-12.125-0.86-16.247,0.65c0,30.544,0,61.089,0,91.633c-4.766,0-9.531,0-14.297,0
			c0-30.544,0-61.089,0-91.633c-4.122-1.51-11.043-0.221-16.247-0.65C605.034,13.757,605.034,8.558,605.034,3.359z"/>
		<path fill-rule="evenodd" clip-rule="evenodd" fill="#C8CEE5" d="M660.924,3.359c0,35.96,0,71.919,0,107.879
			C659.841,76.794,659.841,37.802,660.924,3.359z"/>
		<path fill-rule="evenodd" clip-rule="evenodd" fill="#001B85" d="M660.924,3.359c4.549,0,9.098,0,13.647,0
			c0,35.96,0,71.919,0,107.879c-4.55,0-9.099,0-13.647,0C660.924,75.278,660.924,39.319,660.924,3.359z"/>
		<path fill-rule="evenodd" clip-rule="evenodd" fill="#5F71B3" d="M674.571,3.359c0.216,0,0.433,0,0.649,0
			c0,35.96,0,71.919,0,107.879c-0.217,0-0.434,0-0.649,0C674.571,75.278,674.571,39.319,674.571,3.359z"/>
		<path fill-rule="evenodd" clip-rule="evenodd" fill="#2A4199" d="M688.868,3.359c0.217,0,0.433,0,0.649,0
			c0,35.96,0,71.919,0,107.879c-0.217,0-0.433,0-0.649,0C688.868,75.278,688.868,39.319,688.868,3.359z"/>
		<path fill-rule="evenodd" clip-rule="evenodd" fill="#5F71B3" d="M736.959,3.359c0.217,0,0.433,0,0.649,0
			c0,35.96,0,71.919,0,107.879c-0.217,0-0.433,0-0.649,0C736.959,75.278,736.959,39.319,736.959,3.359z"/>
		<path fill-rule="evenodd" clip-rule="evenodd" fill="#C8CEE5" d="M605.034,18.956c5.204,0.429,12.125-0.86,16.247,0.65
			C616.077,19.177,609.156,20.466,605.034,18.956z"/>
		<path fill-rule="evenodd" clip-rule="evenodd" fill="#C8CEE5" d="M635.578,19.605c4.122-1.51,11.043-0.221,16.247-0.65
			C647.703,20.466,640.782,19.177,635.578,19.605z"/>
		<path fill-rule="evenodd" clip-rule="evenodd" fill="#C8CEE5" d="M722.662,32.603c0.216,0,0.433,0,0.649,0
			c0,2.167,0,4.333,0,6.499C721.83,38.201,723.069,34.579,722.662,32.603z"/>
		<path fill-rule="evenodd" clip-rule="evenodd" fill="#C8CEE5" d="M562.143,46.25c0-0.216,0-0.433,0-0.65
			c6.498,0,12.997,0,19.496,0c0,0.217,0,0.434,0,0.65C575.14,46.25,568.641,46.25,562.143,46.25z"/>
		<path fill-rule="evenodd" clip-rule="evenodd" fill="#C8CEE5" d="M749.956,45.601c0,9.098,0,18.197,0,27.295
			C748.874,65.31,748.874,53.187,749.956,45.601z"/>
		<path fill-rule="evenodd" clip-rule="evenodd" fill="#C8CEE5" d="M510.152,53.399c6.287-1.083,17.108-1.083,23.396,0
			c-0.217,0-0.434,0-0.649,0C525.316,53.399,517.734,53.399,510.152,53.399z"/>
		<path fill-rule="evenodd" clip-rule="evenodd" fill="#C8CEE5" d="M775.302,53.399c6.287-1.083,17.108-1.083,23.396,0
			C790.898,53.399,783.1,53.399,775.302,53.399z"/>
		<path fill-rule="evenodd" clip-rule="evenodd" fill="#5F71B3" d="M510.152,53.399c0,5.199,0,10.398,0,15.597
			c-0.217,0-0.434,0-0.65,0C509.931,64.009,508.643,57.305,510.152,53.399z"/>
		<path fill-rule="evenodd" clip-rule="evenodd" fill="#2A4199" d="M532.898,53.399c0.216,0,0.433,0,0.649,0
			c0,19.279,0,38.559,0,57.839c-0.217,0-0.434,0-0.649,0C532.898,91.958,532.898,72.679,532.898,53.399z"/>
		<path fill-rule="evenodd" clip-rule="evenodd" fill="#5F71B3" d="M798.697,53.399c0.217,0,0.433,0,0.649,0
			c0,19.279,0,38.559,0,57.839c-0.217,0-0.433,0-0.649,0C798.697,91.958,798.697,72.679,798.697,53.399z"/>
		<path fill-rule="evenodd" clip-rule="evenodd" fill="#9CA7D0" d="M77.335,56.648c0.217,0,0.434,0,0.65,0
			c0,31.627,0,63.255,0,94.882c-0.216,0-0.433,0-0.65,0C77.335,119.903,77.335,88.275,77.335,56.648z"/>
		<path fill-rule="evenodd" clip-rule="evenodd" fill="#5F71B3" d="M562.143,61.848c0,0.217,0,0.433,0,0.65
			c0,16.247,0,32.494,0,48.741c-0.217,0-0.434,0-0.65,0C561.925,94.991,560.627,77.012,562.143,61.848z"/>
		<path fill-rule="evenodd" clip-rule="evenodd" fill="#C8CEE5" d="M562.143,62.498c0-0.217,0-0.433,0-0.65
			c6.498,0,12.997,0,19.496,0c0,0.217,0,0.433,0,0.65C575.14,62.498,568.641,62.498,562.143,62.498z"/>
		<path fill-rule="evenodd" clip-rule="evenodd" fill="#2A4199" d="M785.05,69.646c0-0.216,0-0.433,0-0.65
			c1.077,0.91,1.077,6.239,0,7.149C785.05,73.979,785.05,71.813,785.05,69.646z"/>
		<path fill-rule="evenodd" clip-rule="evenodd" fill="#2A4199" d="M446.465,95.641c1.509,3.906,0.222,10.609,0.649,15.597
			c-0.217,0-0.434,0-0.649,0C446.465,106.039,446.465,100.84,446.465,95.641z"/>
		<path fill-rule="evenodd" clip-rule="evenodd" fill="#9CA7D0" d="M406.172,111.238c0.217,0,0.434,0,0.65,0
			c13.214,0,26.428,0,39.643,0c0.216,0,0.433,0,0.649,0C434.981,112.321,418.305,112.321,406.172,111.238z"/>
		<path fill-rule="evenodd" clip-rule="evenodd" fill="#9CA7D0" d="M457.513,111.888c0-0.217,0-0.434,0-0.65
			c4.549,0,9.098,0,13.647,0c0.216,0,0.433,0,0.649,0C468.336,112.747,462.067,111.461,457.513,111.888z"/>
		<path fill-rule="evenodd" clip-rule="evenodd" fill="#9CA7D0" d="M522.5,111.238c0.217,0,0.434,0,0.649,0c3.25,0,6.499,0,9.749,0
			c0.216,0,0.433,0,0.649,0C531.361,112.318,524.687,112.318,522.5,111.238z"/>
		<path fill-rule="evenodd" clip-rule="evenodd" fill="#9CA7D0" d="M547.845,111.888c0-0.217,0-0.434,0-0.65
			c4.55,0,9.099,0,13.647,0c0.217,0,0.434,0,0.65,0C558.668,112.747,552.4,111.461,547.845,111.888z"/>
		<path fill-rule="evenodd" clip-rule="evenodd" fill="#9CA7D0" d="M581.639,111.238c0.217,0,0.434,0,0.649,0
			c4.55,0,9.099,0,13.647,0c0,0.216,0,0.433,0,0.65C591.381,111.461,585.113,112.746,581.639,111.238z"/>
		<path fill-rule="evenodd" clip-rule="evenodd" fill="#9CA7D0" d="M621.281,111.238c4.766,0,9.531,0,14.297,0
			C632.316,112.319,624.543,112.319,621.281,111.238z"/>
		<path fill-rule="evenodd" clip-rule="evenodd" fill="#9CA7D0" d="M660.924,111.238c4.549,0,9.098,0,13.647,0
			c0.216,0,0.433,0,0.649,0C671.958,112.319,664.186,112.319,660.924,111.238z"/>
		<path fill-rule="evenodd" clip-rule="evenodd" fill="#9CA7D0" d="M688.868,111.238c0.217,0,0.433,0,0.649,0
			c4.55,0,9.099,0,13.647,0C699.903,112.319,692.131,112.319,688.868,111.238z"/>
		<path fill-rule="evenodd" clip-rule="evenodd" fill="#2A4199" d="M406.172,141.782c0-0.217,0-0.433,0-0.65
			c15.381,0,30.761,0,46.142,0c0,0.217,0,0.433,0,0.65C436.933,141.782,421.553,141.782,406.172,141.782z"/>
		<path fill-rule="evenodd" clip-rule="evenodd" fill="#C8CEE5" d="M465.961,141.132c0,0.217,0,0.433,0,0.65
			c0,35.96,0,71.919,0,107.879C464.878,215.001,464.878,175.792,465.961,141.132z"/>
		<path fill-rule="evenodd" clip-rule="evenodd" fill="#2A4199" d="M465.961,141.782c0-0.217,0-0.433,0-0.65
			c5.42,0.429,12.559-0.86,16.896,0.65C477.226,141.782,471.593,141.782,465.961,141.782z"/>
		<path fill-rule="evenodd" clip-rule="evenodd" fill="#2A4199" d="M505.604,141.782c4.122-1.51,11.043-0.221,16.246-0.65
			c0,0.217,0,0.433,0,0.65C516.435,141.782,511.019,141.782,505.604,141.782z"/>
		<path fill-rule="evenodd" clip-rule="evenodd" fill="#9CA7D0" d="M521.85,141.782c0-0.217,0-0.433,0-0.65
			c1.084,34.66,1.084,73.869,0,108.529C521.85,213.702,521.85,177.742,521.85,141.782z"/>
		<path fill-rule="evenodd" clip-rule="evenodd" fill="#2A4199" d="M538.097,141.782c0-0.217,0-0.433,0-0.65
			c15.381,0,30.761,0,46.142,0c0,0.217,0,0.433,0,0.65C568.857,141.782,553.478,141.782,538.097,141.782z"/>
		<path fill-rule="evenodd" clip-rule="evenodd" fill="#5F71B3" d="M597.886,141.132c0,0.217,0,0.433,0,0.65
			c0,35.96,0,71.919,0,107.879C596.803,215.001,596.803,175.792,597.886,141.132z"/>
		<path fill-rule="evenodd" clip-rule="evenodd" fill="#001B85" d="M406.172,141.782c15.381,0,30.761,0,46.142,0
			c0,4.982,0,9.965,0,14.947c-9.75,0.432-21.228-0.865-29.895,0.65c0,8.881,0,17.763,0,26.645
			c8.018,1.514,18.845,0.218,27.944,0.649c0,5.199,0,10.398,0,15.597c-9.314,0-18.629,0-27.944,0c0,11.048,0,22.096,0,33.144
			c8.667,1.515,20.145,0.218,29.895,0.65c0,5.199,0,10.398,0,15.597c-15.381,0-30.761,0-46.142,0
			C406.172,213.702,406.172,177.742,406.172,141.782z"/>
		<path fill-rule="evenodd" clip-rule="evenodd" fill="#001B85" d="M538.097,141.782c15.381,0,30.761,0,46.142,0
			c0,4.982,0,9.965,0,14.947c-9.75,0.432-21.228-0.865-29.895,0.65c0,8.881,0,17.763,0,26.645
			c8.018,1.514,18.845,0.218,27.944,0.649c0,5.199,0,10.398,0,15.597c-9.314,0-18.629,0-27.944,0c0,11.048,0,22.096,0,33.144
			c8.667,1.515,20.145,0.218,29.895,0.65c0,5.199,0,10.398,0,15.597c-15.381,0-30.761,0-46.142,0
			C538.097,213.702,538.097,177.742,538.097,141.782z"/>
		<path fill-rule="evenodd" clip-rule="evenodd" fill="#C8CEE5" d="M77.335,151.53c0.217,0,0.434,0,0.65,0
			c0,30.544,0,61.088,0,91.633C76.469,213.918,77.768,181.858,77.335,151.53z"/>
		<path fill-rule="evenodd" clip-rule="evenodd" fill="#2A4199" d="M614.133,157.379c0,9.748,0,19.496,0,29.244
			c0,0.217,0,0.433,0,0.65C613.05,178.822,613.05,165.831,614.133,157.379z"/>
		<path fill-rule="evenodd" clip-rule="evenodd" fill="#9CA7D0" d="M709.664,174.926c5.416,0,10.831,0,16.247,0
			c0.217,0,0.433,0,0.649,0C722.436,176.008,713.79,176.008,709.664,174.926z"/>
		<path fill-rule="evenodd" clip-rule="evenodd" fill="#5F71B3" d="M136.474,176.226c30.328-1.516,63.471-0.217,94.882-0.65
			C201.028,177.092,167.885,175.792,136.474,176.226z"/>
		<path fill-rule="evenodd" clip-rule="evenodd" fill="#C8CEE5" d="M698.616,191.173c0,0.217,0,0.433,0,0.65
			c0,4.982,0,9.965,0,14.947c0,0.216,0,0.433,0,0.65C697.535,203.51,697.534,195.083,698.616,191.173z"/>
		<path fill-rule="evenodd" clip-rule="evenodd" fill="#5F71B3" d="M698.616,191.823c0-0.217,0-0.433,0-0.65
			c9.099,0,18.196,0,27.295,0c0,0.217,0,0.433,0,0.65C716.813,191.823,707.715,191.823,698.616,191.823z"/>
		<path fill-rule="evenodd" clip-rule="evenodd" fill="#C8CEE5" d="M725.911,191.823c0-0.217,0-0.433,0-0.65
			c1.083,17.98,1.083,40.508,0,58.489C725.911,230.382,725.911,211.103,725.911,191.823z"/>
		<path fill-rule="evenodd" clip-rule="evenodd" fill="#2A4199" d="M614.133,202.871c0,0.217,0,0.433,0,0.65
			c-0.433,15.164,0.865,32.06-0.65,46.141C613.915,234.281,612.617,217.168,614.133,202.871z"/>
		<path fill-rule="evenodd" clip-rule="evenodd" fill="#2A4199" d="M759.055,203.521c1.516,14.082,0.217,30.977,0.649,46.141
			C758.189,235.58,759.487,218.685,759.055,203.521z"/>
		<path fill-rule="evenodd" clip-rule="evenodd" fill="#2A4199" d="M775.951,203.521c-0.433,15.165,0.866,32.06-0.649,46.141
			C775.734,234.497,774.436,217.602,775.951,203.521z"/>
		<path fill-rule="evenodd" clip-rule="evenodd" fill="#2A4199" d="M698.616,207.42c0-0.217,0-0.434,0-0.65
			c3.476,0.423,8.651-0.854,11.048,0.65C705.981,207.42,702.299,207.42,698.616,207.42z"/>
		<path fill-rule="evenodd" clip-rule="evenodd" fill="#C8CEE5" d="M482.208,219.117c1.499,1.966,0.229,6.703,0.649,9.749
			c-0.217,0-0.434,0-0.649,0C482.208,225.616,482.208,222.367,482.208,219.117z"/>
		<path fill-rule="evenodd" clip-rule="evenodd" fill="#9CA7D0" d="M482.208,228.866c0.216,0,0.433,0,0.649,0
			c-0.43,6.718,0.862,15.16-0.649,20.796C482.208,242.729,482.208,235.797,482.208,228.866z"/>
		<path fill-rule="evenodd" clip-rule="evenodd" fill="#5F71B3" d="M452.313,234.064c0.217,0,0.434,0,0.649,0
			c-0.428,4.988,0.86,11.691-0.649,15.597C452.313,244.462,452.313,239.264,452.313,234.064z"/>
		<path fill-rule="evenodd" clip-rule="evenodd" fill="#5F71B3" d="M584.238,234.064c0.217,0,0.434,0,0.649,0
			c-0.428,4.988,0.86,11.691-0.649,15.597C584.238,244.462,584.238,239.264,584.238,234.064z"/>
		<path fill-rule="evenodd" clip-rule="evenodd" fill="#9CA7D0" d="M561.492,282.805c3.259-1.507,9.309-0.223,13.647-0.65
			c0,0.217,0,0.433,0,0.65C570.591,282.805,566.042,282.805,561.492,282.805z"/>
		<path fill-rule="evenodd" clip-rule="evenodd" fill="#C8CEE5" d="M575.14,282.805c0-0.217,0-0.433,0-0.65
			c1.083,34.877,1.083,74.302,0,109.179c0-0.216,0-0.433,0-0.649C575.14,354.725,575.14,318.766,575.14,282.805z"/>
		<path fill-rule="evenodd" clip-rule="evenodd" fill="#9CA7D0" d="M677.82,282.805c3.047-1.081,10.601-1.081,13.647,0
			C686.919,282.805,682.369,282.805,677.82,282.805z"/>
		<path fill-rule="evenodd" clip-rule="evenodd" fill="#5F71B3" d="M461.412,282.805c0.216,0,0.433,0,0.649,0
			c0,35.96,0,71.919,0,107.879c-0.217,0-0.434,0-0.649,0C461.412,354.725,461.412,318.766,461.412,282.805z"/>
		<path fill-rule="evenodd" clip-rule="evenodd" fill="#001B85" d="M462.062,282.805c4.549,0,9.099,0,13.647,0
			c0,30.76,0,61.522,0,92.283c8.448,0,16.896,0,25.345,0c0,5.198,0,10.397,0,15.597c-12.997,0-25.995,0-38.992,0
			C462.062,354.725,462.062,318.766,462.062,282.805z"/>
		<path fill-rule="evenodd" clip-rule="evenodd" fill="#001B85" d="M511.452,282.805c4.549,0,9.099,0,13.647,0
			c0.433,30.544-0.866,62.822,0.649,92.283c8.448,0,16.897,0,25.346,0c0,5.198,0,10.397,0,15.597c-13.214,0-26.429,0-39.643,0
			C511.452,354.725,511.452,318.766,511.452,282.805z"/>
		<path fill-rule="evenodd" clip-rule="evenodd" fill="#5F71B3" d="M525.1,282.805c0.217,0,0.434,0,0.649,0
			c0,30.76,0,61.522,0,92.283C524.233,345.627,525.532,313.35,525.1,282.805z"/>
		<path fill-rule="evenodd" clip-rule="evenodd" fill="#C8CEE5" d="M561.492,282.805c0,35.96,0,71.919,0,107.879
			C560.409,356.241,560.409,317.249,561.492,282.805z"/>
		<path fill-rule="evenodd" clip-rule="evenodd" fill="#001B85" d="M561.492,282.805c4.55,0,9.099,0,13.647,0
			c0,35.96,0,71.919,0,107.879c-4.549,0-9.098,0-13.647,0C561.492,354.725,561.492,318.766,561.492,282.805z"/>
		<path fill-rule="evenodd" clip-rule="evenodd" fill="#5F71B3" d="M644.026,282.805c0.217,0,0.434,0,0.65,0
			c0,35.96,0,71.919,0,107.879c-0.217,0-0.434,0-0.65,0C644.026,354.725,644.026,318.766,644.026,282.805z"/>
		<path fill-rule="evenodd" clip-rule="evenodd" fill="#C8CEE5" d="M677.82,282.805c0,9.965,0,19.929,0,29.894
			C676.737,304.248,676.737,291.257,677.82,282.805z"/>
		<path fill-rule="evenodd" clip-rule="evenodd" fill="#C8CEE5" d="M691.468,282.805c1.083,34.444,1.083,73.436,0,107.879
			C691.468,354.725,691.468,318.766,691.468,282.805z"/>
		<path fill-rule="evenodd" clip-rule="evenodd" fill="#5F71B3" d="M77.985,292.553c32.277,0.433,66.288-0.866,97.481,0.65
			C143.189,292.77,109.179,294.069,77.985,292.553z"/>
		<path fill-rule="evenodd" clip-rule="evenodd" fill="#2A4199" d="M330.787,293.203c1.516,30.978,0.217,64.771,0.65,96.832
			c-0.217,0-0.433,0-0.65,0C330.787,357.758,330.787,325.48,330.787,293.203z"/>
		<path fill-rule="evenodd" clip-rule="evenodd" fill="#9CA7D0" d="M58.489,312.05c32.277,0.433,66.287-0.866,97.481,0.649
			c-32.494,0-64.988,0-97.481,0C58.489,312.482,58.489,312.267,58.489,312.05z"/>
		<path fill-rule="evenodd" clip-rule="evenodd" fill="#2A4199" d="M657.674,360.141c0.217,0,0.434,0,0.65,0
			c0,10.182,0,20.362,0,30.544c-0.217,0-0.434,0-0.65,0C657.674,380.503,657.674,370.322,657.674,360.141z"/>
		<path fill-rule="evenodd" clip-rule="evenodd" fill="#2A4199" d="M501.054,375.088c1.51,3.906,0.222,10.609,0.65,15.597
			c-0.217,0-0.434,0-0.65,0C501.054,385.485,501.054,380.286,501.054,375.088z"/>
		<path fill-rule="evenodd" clip-rule="evenodd" fill="#5F71B3" d="M0,390.685c0-0.217,0-0.434,0-0.649c51.99,0,103.98,0,155.97,0
			C105.28,391.551,51.773,390.251,0,390.685z"/>
		<path fill-rule="evenodd" clip-rule="evenodd" fill="#5F71B3" d="M330.787,390.035c0.217,0,0.433,0,0.65,0
			c19.497,0,38.993,0,58.489,0C371.728,391.118,348.984,391.118,330.787,390.035z"/>
		<path fill-rule="evenodd" clip-rule="evenodd" fill="#9CA7D0" d="M561.492,390.685c4.55,0,9.099,0,13.647,0
			c0,0.217,0,0.434,0,0.649C570.801,390.908,564.751,392.192,561.492,390.685z"/>
		<path fill-rule="evenodd" clip-rule="evenodd" fill="#5F71B3" d="M135.824,117.737c-1.516-18.414-0.217-39.642-0.65-59.139
			c41.593-0.432,84.916,0.865,125.426-0.65c-5.192,2.296-20.893,1.3-31.194,1.3c-30.257,0-63.087,0-92.933,0
			c-1.516,17.98-0.217,38.775-0.649,57.839C135.824,117.304,135.824,117.52,135.824,117.737z"/>
		<path fill-rule="evenodd" clip-rule="evenodd" fill="#FFFFFF" d="M292.444,0.759c-5.165,20.614-10.568,40.989-15.597,61.738
			c12.506,4.391,26.146,7.646,39.642,11.048c-6.446-15.218-18.282-30.675-25.995-46.791c11.952,13.393,21.978,28.713,33.794,42.242
			c0.395-19.968,2.73-37.995,3.249-57.839c-0.183-1.161,0.614-1.333,0.65-0.65c0.509,19.854,2.595,38.131,3.25,57.839
			c11.364-12.032,23.418-29.004,34.443-43.542c-6.827,15.92-18.87,32.253-27.295,48.741c17.584-3.645,33.197-9.261,50.69-12.998
			c-15.568,7.394-31.631,14.294-48.091,20.796c14.791,8.388,31.921,14.438,48.091,21.446c-16.3-2.331-34.297-8.594-50.69-12.998
			c7.029,15.067,18.701,31.123,26.645,47.441c-11.88-13.465-21.913-28.777-33.793-42.242c0,46.357,0,92.716,0,139.073
			c-12.781,0-25.562,0-38.343,0c0-0.65,0-1.3,0-1.95c7.82-31.299,15.461-61.819,23.396-93.582
			c3.512-14.061,8.038-25.205,7.799-42.892c-11.3,12.096-23.347,29.076-34.443,43.542c6.863-15.882,18.899-32.224,27.294-48.741
			c-17.615,3.614-33.2,9.259-50.69,12.998c-24.423,95.157-48.803,190.348-72.786,285.945c-0.553-0.119-0.613,0.254-0.65,0.65
			c18.414,1.083,41.375,1.083,59.789,0c8.402-32.107,16.686-64.332,24.695-96.832c17.763,0,35.526,0,53.29,0
			c0,32.277,0,64.555,0,96.832c18.197,1.083,40.941,1.083,59.139,0c0-129.76,0-259.516,0-389.276c0-0.217,0-0.433,0-0.65
			c127.158,0,254.319,0,381.477,0c0,0.217,0,0.433,0,0.65c-20.019,2.078-20.82,23.372-21.446,44.841
			c-1.082,7.586-1.082,19.709,0,27.295c-0.917,20.255,5.326,46.114,27.295,40.942c5.843-1.375,8.684-7.461,10.398-14.297
			c1.504,2.611,0.226,8.006,0.649,11.698c0,0.216,0,0.433,0,0.65c3.683,0,7.365,0,11.048,0c0,9.748,0,19.496,0,29.244
			c-5.853,0.43-13.426-0.861-18.196,0.65c-4.256,15.024-10.61,27.948-12.997,44.841c-3.687-15.81-9.075-29.917-13.647-44.841
			c0-0.217,0-0.433,0-0.65c-6.065,0-12.131,0-18.197,0c-0.056,0.922-0.106,1.84,0.65,1.95c7.189,20.321,15.055,39.968,22.096,60.438
			c0.433,15.164-0.865,32.06,0.649,46.141c5.199,0,10.398,0,15.598,0c1.516-14.082,0.217-30.977,0.649-46.141
			c7.287-20.657,15.363-40.526,22.746-61.088c0.217,0,0.433,0,0.649,0c0,46.575,0,93.148,0,139.723c-12.997,0-25.995,0-38.992,0
			c-1.517,34.877-0.217,72.569-0.65,108.529c11.916,1.516,26.645,0.218,39.643,0.649c-0.166,0.269,0.217,1.082,0,1.3
			c-4.143,4.168-24.529,1.3-33.793,1.3c-13.556,0-24.943,0-34.443,0c0-0.216,0-0.433,0-0.649
			c16.416-3.08,17.516-21.477,18.196-40.292c-3.259-1.508-9.309-0.224-13.647-0.65c-0.217,0-0.434,0-0.649,0c0,3.25,0,6.499,0,9.748
			c3.099,17.607-16.073,20.095-16.247,1.95c0-18.197,0-36.394,0-54.59c0.929-7.303,2.543-13.92,11.697-12.998
			c4.128,3.237,4.257,10.474,4.55,17.546c0,0.65,0,1.3,0,1.95c3.474,1.508,9.741,0.223,14.297,0.649
			c-0.415-2.401,0.842-6.474-0.65-7.799c-0.792-14.588-4.58-26.18-17.546-28.594c-0.701-1.076-5.798-1.076-6.499,0
			c-17.417,2.296-19.856,19.57-20.146,38.993c-1.494,1.538-0.232,5.833-0.649,8.448c0,5.633,0,11.265,0,16.896
			c0.427,4.34-0.857,10.39,0.649,13.647c0.125,18.288,4.075,32.752,20.146,35.094c0,0.217,0,0.434,0,0.649
			c-240.666-0.864-485.095,1.729-724.611-1.3c0-0.649,0-1.3,0-1.949c51.773-0.434,105.28,0.866,155.97-0.649
			c0-25.779,0-51.558,0-77.336c-31.194-1.516-65.204-0.217-97.481-0.649c0-103.766,0-207.524,0-311.291c0-0.217,0-0.433,0-0.65
			c6.282,0,12.564,0,18.846,0c0,0.217,0,0.433,0,0.65c0,18.63,0,37.259,0,55.889c0,31.627,0,63.255,0,94.882
			c0.433,30.328-0.866,62.388,0.65,91.633c0,16.463,0,32.927,0,49.39c31.194,1.516,65.205,0.217,97.481,0.65
			c0,32.061,0,64.121,0,96.182c13.756-51.015,26.684-102.858,40.292-154.021c0.632-0.018,0.504-0.795,0.65-1.3
			c-26.645,0-53.29,0-79.935,0c0-19.279,0-38.559,0-57.839c31.411-0.433,64.554,0.866,94.882-0.65
			c4.785-18.828,9.139-38.085,13.647-57.189c0.632-0.018,0.504-0.795,0.65-1.3c-36.609,0-73.219,0-109.829,0
			c0.433-19.063-0.866-39.858,0.649-57.839c29.846,0,62.675,0,92.933,0c10.301,0,26.002,0.996,31.194-1.3
			c3.832-19.13,8.351-37.573,12.348-56.539c0.632-0.018,0.504-0.795,0.65-1.3c6.282,0,12.564,0,18.846,0
			C292.444,0.326,292.444,0.542,292.444,0.759z M276.197,65.097c-3.473,12.341-6.445,25.183-9.748,37.693
			c16.5-6.246,31.487-14.004,48.091-20.146C303.065,75.488,288.717,71.207,276.197,65.097z M499.104,33.253
			c-2.255-22.514,25.41-20.648,20.146,3.899c4.766,0,9.531,0,14.297,0c3.097-24.584-12.197-41.916-33.144-35.743
			c-12.915,3.806-15.046,20.472-15.597,37.693c-1.495,1.538-0.233,5.833-0.65,8.448c0,7.365,0,14.73,0,22.096
			c0.421,3.045-0.85,7.782,0.65,9.748c-1.761,18.121,9.571,41.305,28.594,33.793c4.383-1.73,7.066-7.034,8.448-12.997
			c1.504,2.396,0.227,7.572,0.65,11.048c2.187,1.08,8.861,1.08,11.048,0c0-19.28,0-38.56,0-57.839
			c-6.287-1.083-17.108-1.083-23.396,0c-1.51,3.906-0.222,10.609-0.65,15.597c1.967,1.5,6.703,0.229,9.749,0.65
			c0,2.6,0,5.199,0,7.798c0.146,11.07-2.899,22.651-12.998,20.146c-5.594-1.387-6.236-8.922-7.148-16.247
			C499.104,65.313,499.104,49.283,499.104,33.253z M406.172,3.359c0,35.96,0,71.919,0,107.879c12.133,1.083,28.81,1.083,40.942,0
			c-0.428-4.988,0.859-11.691-0.649-15.597c-8.448,0-16.897,0-25.346,0c-0.433-30.544,0.866-62.821-0.649-92.282
			C417.207,2.277,409.435,2.277,406.172,3.359z M457.513,3.359c-1.083,34.66-1.083,73.869,0,108.529
			c4.555-0.427,10.823,0.858,14.297-0.65c0-35.96,0-71.919,0-107.879C468.547,2.277,460.774,2.277,457.513,3.359z M547.845,3.359
			c-1.083,34.66-1.083,73.869,0,108.529c4.556-0.427,10.823,0.858,14.298-0.65c0-16.247,0-32.494,0-48.741
			c6.498,0,12.997,0,19.496,0c0,16.247,0,32.494,0,48.741c3.475,1.508,9.742,0.223,14.297,0.65c1.083-34.66,1.083-73.869,0-108.529
			c-3.262-1.082-11.034-1.082-14.297,0c0,14.081,0,28.161,0,42.242c-6.499,0-12.998,0-19.496,0c0-14.081,0-28.161,0-42.242
			C558.88,2.277,551.107,2.277,547.845,3.359z M604.385,3.359c0.428,4.987-0.86,11.691,0.649,15.597
			c4.122,1.51,11.043,0.222,16.247,0.65c0,30.544,0,61.088,0,91.633c3.262,1.081,11.035,1.081,14.297,0c0-30.544,0-61.088,0-91.633
			c5.204-0.428,12.125,0.86,16.247-0.65c-0.282-1.952,2.533-14.363,0.649-16.247c-0.832-0.833-8.538,0-11.697,0
			C628.799,2.709,611.406,2.228,604.385,3.359z M660.924,3.359c-1.083,34.443-1.083,73.436,0,107.879
			c3.262,1.081,11.034,1.081,14.297,0c0-35.96,0-71.919,0-107.879C671.958,2.277,664.186,2.277,660.924,3.359z M688.868,3.359
			c0,35.96,0,71.919,0,107.879c3.263,1.081,11.035,1.081,14.297,0c0-11.698,0-23.396,0-35.093
			c-0.426-4.124,0.857-9.955-0.649-12.998c0-1.083,0-2.167,0-3.25c-0.408-1.975,0.832-5.598-0.65-6.499c0-2.6,0-5.199,0-7.799
			c0.42-2.83-0.848-7.346,0.65-9.098c5.05,25.927,12.813,49.142,19.496,73.436c1.331,3.875,12.165,1.688,15.597,1.3
			c0-35.96,0-71.919,0-107.879c-3.689-1.509-10.176-0.222-14.946-0.65c0,9.965,0,19.929,0,29.894
			c0.407,1.976-0.832,5.598,0.649,6.499c0,2.816,0,5.632,0,8.448c0.422,3.26-0.852,8.217,0.649,10.398
			c-0.288,9.39,1.75,19.909,0.65,27.945c-4.757-29.687-13.823-55.064-20.796-82.534C700.337,2.277,692.346,2.277,688.868,3.359z
			 M694.067,139.183c-19.651,0.928-24.163,16.996-24.695,37.043c-1.482,0.901-0.242,4.523-0.65,6.499c0,9.748,0,19.496,0,29.244
			c0.408,1.976-0.832,5.598,0.65,6.499c-1.883,19.461,13.176,40.258,33.144,33.144c5.071-1.807,8.417-7.469,10.397-13.647
			c1.932,2.401-0.631,9.296,1.3,11.698c3.899,0,7.799,0,11.698,0c1.083-17.981,1.083-40.508,0-58.489c-9.099,0-18.196,0-27.295,0
			c-1.082,3.91-1.081,12.337,0,16.247c3.683,0,7.365,0,11.048,0c0,3.033,0,6.065,0,9.098c3.126,20.613-22.881,27.464-23.396,5.199
			c0-17.546,0-35.093,0-52.64c-0.941-20.864,29.55-16.828,23.396,5.849c4.126,1.082,12.771,1.082,16.896,0
			c-0.414-2.401,0.842-6.474-0.649-7.798c-1.281-16.266-7.719-27.375-24.695-27.945
			C700.306,138.106,694.978,138.106,694.067,139.183z M406.172,141.132c-1.083,34.66-1.083,73.869,0,108.529
			c15.381,0,30.761,0,46.142,0c1.51-3.906,0.222-10.609,0.649-15.597c-8.667-1.514-20.145-0.218-29.894-0.65
			c0-4.943,0-9.846,0-16.247c0-3.592-0.46-16.247,0.649-16.247c7.341,0,19.011,0.521,26.645-0.65c0-5.199,0-10.398,0-15.597
			c-7.801-1.514-18.411-0.218-27.294-0.649c0-8.882,0-17.764,0-26.645c4.347-2.549,26.579,3.315,29.894,0
			c2.955-2.955-1.562-12.436-0.649-16.247C436.933,141.132,421.553,141.132,406.172,141.132z M465.961,249.662
			c5.415,0,10.831,0,16.247,0c1.512-5.636,0.22-14.078,0.649-20.796c-0.421-3.045,0.85-7.782-0.649-9.749c0-2.816,0-5.632,0-8.448
			c-0.423-3.26,0.852-8.217-0.65-10.398c0.027-9.125-1.138-17.059-1.3-25.995c0.374-1.142-0.785-3.818,0.65-3.899
			c5.645,28.798,15.686,53.201,24.045,79.285c5.633,0,11.265,0,16.896,0c1.084-34.66,1.084-73.869,0-108.529
			c-5.203,0.429-12.124-0.86-16.246,0.65c0,11.698,0,23.396,0,35.093c0.424,3.691-0.854,9.086,0.649,11.698
			c-0.001,11.701,1.892,24.968,1.3,35.093c-6.145-29.382-15.857-55.196-24.695-81.884c-4.338-1.51-11.477-0.221-16.896-0.65
			C464.878,175.792,464.878,215.001,465.961,249.662z M538.097,141.132c-1.083,34.66-1.083,73.869,0,108.529
			c15.381,0,30.761,0,46.142,0c1.51-3.906,0.222-10.609,0.649-15.597c-8.667-1.514-20.145-0.218-29.894-0.65
			c0-10.831,0-21.663,0-32.494c8.883-0.432,19.493,0.864,27.294-0.65c0-5.199,0-10.398,0-15.597
			c-7.801-1.514-18.411-0.218-27.294-0.649c0-8.882,0-17.764,0-26.645c9.965,0,19.929,0,29.894,0
			c-0.428-5.204,0.86-12.125-0.649-16.247C568.857,141.132,553.478,141.132,538.097,141.132z M597.886,249.662
			c5.199,0,10.397,0,15.597,0c1.516-14.082,0.218-30.977,0.65-46.141c4.332,0,8.665,0,12.997,0c2.328,0.055,3.755,1.011,5.849,1.3
			c7.797,9.1,1.098,32.696,5.85,44.841c6.065,0,12.131,0,18.196,0c-1.929-5.437-3.943-10.788-3.25-18.846
			c-0.43-6.719,0.863-15.16-0.649-20.796c-0.106-9.641-5.427-14.069-12.348-16.896c20.587-4.932,17.724-55.428-8.448-51.34
			c-10.183-1.515-23.178-0.218-34.443-0.65C596.803,175.792,596.803,215.001,597.886,249.662z M437.366,282.805
			c-5.203-1.512-13.211-0.22-19.496-0.65c0,0.65,0,1.3,0,1.95c-4.992,36.167-11.907,70.411-16.896,106.58
			c0.743,0.186,15.114,3.075,14.946-1.949c-0.006-8.672,2.399-14.931,2.6-23.396c3.271-2.795,11.525-0.606,16.897-1.3
			c1.57,7.744,2.451,16.179,3.249,24.695c0.314,5.108,12.181,2.105,15.597,1.949c-0.216,0-0.433,0-0.649,0
			C448.755,354.167,442.156,319.391,437.366,282.805z M461.412,282.805c0,35.96,0,71.919,0,107.879
			c11.916,1.083,28.376,1.083,40.292,0c-0.429-4.987,0.859-11.69-0.65-15.597c-8.448,0-16.896,0-25.345,0
			c0-30.761,0-61.522,0-92.283C472.446,281.724,464.674,281.724,461.412,282.805z M511.452,282.805c0,35.96,0,71.919,0,107.879
			c12.132,1.516,27.077,0.218,40.292,0.649c-0.429-5.203,0.86-12.124-0.649-16.246c-8.448,0-16.897,0-25.346,0
			c0-30.761,0-61.522,0-92.283C522.487,281.724,514.715,281.724,511.452,282.805z M561.492,282.805
			c-1.083,34.444-1.083,73.436,0,107.879c3.259,1.508,9.309,0.224,13.647,0.649c1.083-34.877,1.083-74.302,0-109.179
			C570.801,282.582,564.751,281.298,561.492,282.805z M619.981,282.805c-5.204-1.512-13.211-0.22-19.496-0.65c0,0.65,0,1.3,0,1.95
			c-5.079,36.08-11.831,70.487-16.897,106.58c0.744,0.186,15.115,3.075,14.947-1.949c0.077-8.589,2.265-15.066,2.6-23.396
			c3.271-2.795,11.524-0.606,16.896-1.3c1.465,7.851,2.583,16.047,3.25,24.695c0.314,5.108,12.181,2.105,15.597,1.949
			c-0.217,0-0.434,0-0.649,0C631.411,354.126,624.663,319.499,619.981,282.805z M644.026,282.805c0,35.96,0,71.919,0,107.879
			c3.263,1.081,11.035,1.081,14.298,0c0-10.182,0-20.362,0-30.544c-0.428-4.771,0.858-11.257-0.65-14.947c0-1.083,0-2.166,0-3.249
			c-0.411-2.188,0.838-6.037-0.649-7.149c0-2.815,0-5.632,0-8.448c0.422-3.26-0.852-8.217,0.649-10.397
			c4.715,26.045,12.706,48.815,18.847,73.436c1.285,3.706,11.613,1.806,14.947,1.3c1.083-34.443,1.083-73.436,0-107.879
			c-3.047-1.081-10.601-1.081-13.647,0c-1.083,8.452-1.083,21.443,0,29.894c0,3.467,0,6.933,0,10.398
			c0.424,3.691-0.854,9.086,0.649,11.697c0,1.084,0,2.167,0,3.25c0.408,1.975-0.832,5.598,0.65,6.498c0,3.684,0,7.365,0,11.049
			c-0.387,1.346,0.803,4.269-0.65,4.549c-4.88-27.397-13.261-51.294-19.496-77.335C655.496,281.724,647.505,281.724,644.026,282.805
			z"/>
		<path fill-rule="evenodd" clip-rule="evenodd" fill="#9CA7D0" d="M510.152,68.996c8.521-1.293,12.115,0.773,9.099,8.448
			c0-2.599,0-5.199,0-7.798c-3.046-0.421-7.782,0.85-9.749-0.65C509.719,68.996,509.936,68.996,510.152,68.996z"/>
		<path fill-rule="evenodd" clip-rule="evenodd" fill="#5F71B3" d="M521.85,100.19c2.493-3.065,0.813,7.919,1.3,11.048
			c-0.216,0-0.433,0-0.649,0C522.076,107.762,523.354,102.586,521.85,100.19z"/>
		<path fill-rule="evenodd" clip-rule="evenodd" fill="#2A4199" d="M787.649,99.541c2.45-0.7,0.842,8.243,1.3,11.698
			c-0.217,0-0.434,0-0.65,0C787.875,107.546,789.153,102.152,787.649,99.541z"/>
		<path fill-rule="evenodd" clip-rule="evenodd" fill="#9CA7D0" d="M604.385,3.359c7.021-1.131,24.414-0.65,36.393-0.65
			c3.159,0,10.865-0.833,11.697,0c1.884,1.884-0.932,14.295-0.649,16.247c0-5.199,0-10.398,0-15.597c-15.597,0-31.194,0-46.791,0
			C604.817,3.359,604.601,3.359,604.385,3.359z"/>
		<path fill-rule="evenodd" clip-rule="evenodd" fill="#9CA7D0" d="M722.662,32.603c0-9.965,0-19.929,0-29.894
			c4.771,0.428,11.257-0.859,14.946,0.65c-0.217,0-0.433,0-0.649,0c-4.333,0-8.665,0-12.998,0
			c-1.514,8.45-0.218,19.711-0.649,29.244C723.095,32.603,722.878,32.603,722.662,32.603z"/>
		<path fill-rule="evenodd" clip-rule="evenodd" fill="#001B85" d="M193.663,389.385c23.983-95.598,48.363-190.789,72.786-285.945
			c17.49-3.739,33.075-9.383,50.69-12.998c-8.396,16.517-20.431,32.858-27.294,48.741c11.096-14.466,23.143-31.445,34.443-43.542
			c0.239,17.687-4.287,28.831-7.799,42.892c-7.934,31.763-15.576,62.283-23.396,93.582c-0.761,0.105-0.548,1.185-0.65,1.95
			c11.483,1.083,27.51,1.083,38.993,0c0-46.357,0-92.716,0-139.073c11.88,13.465,21.913,28.777,33.793,42.242
			c-7.944-16.318-19.616-32.374-26.645-47.441c16.394,4.403,34.391,10.667,50.69,12.998c-16.17-7.008-33.3-13.058-48.091-21.446
			c16.46-6.502,32.522-13.402,48.091-20.796c-17.493,3.736-33.106,9.353-50.69,12.998c8.425-16.487,20.468-32.821,27.295-48.741
			c-11.025,14.537-23.08,31.509-34.443,43.542c-0.655-19.708-2.741-37.985-3.25-57.839c-0.036-0.684-0.833-0.511-0.65,0.65
			c-0.519,19.844-2.854,37.871-3.249,57.839c-11.816-13.528-21.842-28.849-33.794-42.242c7.713,16.116,19.549,31.573,25.995,46.791
			c-13.496-3.401-27.136-6.657-39.642-11.048c5.029-20.75,10.432-41.125,15.597-61.738c32.494,0,64.988,0,97.481,0
			c0,129.76,0,259.516,0,389.276c-19.496,0-38.992,0-58.489,0c-0.433-32.062,0.866-65.854-0.65-96.832
			c-16.248-1.083-37.042-1.083-53.29,0c-8.009,32.5-16.293,64.725-24.695,96.832C233.305,389.602,212.077,390.9,193.663,389.385z"/>
		<path fill-rule="evenodd" clip-rule="evenodd" fill="#5F71B3" d="M252.802,390.035c-18.414,1.083-41.375,1.083-59.789,0
			c0.037-0.396,0.097-0.77,0.65-0.65C212.077,390.9,233.305,389.602,252.802,390.035z"/>
		<path fill-rule="evenodd" clip-rule="evenodd" fill="#C8CEE5" d="M422.419,233.415c0-11.048,0-22.096,0-33.144
			c9.315,0,18.63,0,27.944,0c-7.634,1.171-19.304,0.65-26.645,0.65c-1.109,0-0.649,12.655-0.649,16.247c0,6.401,0,11.303,0,16.247
			C422.853,233.415,422.636,233.415,422.419,233.415z"/>
		<path fill-rule="evenodd" clip-rule="evenodd" fill="#C8CEE5" d="M422.419,157.379c0.217,0,0.434,0,0.65,0
			c0,8.881,0,17.763,0,26.645c8.883,0.431,19.493-0.864,27.294,0.649c-9.1-0.431-19.927,0.864-27.944-0.649
			C422.419,175.143,422.419,166.261,422.419,157.379z"/>
		<path fill-rule="evenodd" clip-rule="evenodd" fill="#C8CEE5" d="M554.344,233.415c0-11.048,0-22.096,0-33.144
			c9.315,0,18.63,0,27.944,0c-7.801,1.514-18.411,0.218-27.294,0.65c0,10.831,0,21.663,0,32.494
			C554.777,233.415,554.561,233.415,554.344,233.415z"/>
		<path fill-rule="evenodd" clip-rule="evenodd" fill="#C8CEE5" d="M554.344,157.379c0.217,0,0.434,0,0.65,0
			c0,8.881,0,17.763,0,26.645c8.883,0.431,19.493-0.864,27.294,0.649c-9.1-0.431-19.927,0.864-27.944-0.649
			C554.344,175.143,554.344,166.261,554.344,157.379z"/>
		<path fill-rule="evenodd" clip-rule="evenodd" fill="#5F71B3" d="M452.313,141.132c-0.912,3.811,3.604,13.292,0.649,16.247
			c-3.314,3.315-25.547-2.549-29.894,0c-0.217,0-0.434,0-0.65,0c8.667-1.515,20.145-0.218,29.895-0.65c0-4.982,0-9.965,0-14.947
			C452.313,141.565,452.313,141.349,452.313,141.132z"/>
		<path fill-rule="evenodd" clip-rule="evenodd" fill="#5F71B3" d="M584.238,141.132c1.51,4.123,0.222,11.043,0.649,16.247
			c-9.965,0-19.929,0-29.894,0c-0.217,0-0.434,0-0.65,0c8.667-1.515,20.145-0.218,29.895-0.65c0-4.982,0-9.965,0-14.947
			C584.238,141.565,584.238,141.349,584.238,141.132z"/>
		<path fill-rule="evenodd" clip-rule="evenodd" fill="#5F71B3" d="M480.258,174.276c-1.475-0.691-0.247-4.085-0.649-5.849
			c0.816,0.266,1.328,0.838,1.3,1.95C479.473,170.458,480.632,173.134,480.258,174.276z"/>
		<path fill-rule="evenodd" clip-rule="evenodd" fill="#9CA7D0" d="M748.656,308.8c1.492,1.325,0.235,5.397,0.65,7.799
			c-4.556-0.427-10.823,0.858-14.297-0.649c0-0.65,0-1.3,0-1.95c1.22,3.763,8.758,1.207,12.997,1.95
			C749.494,314.837,748.245,310.988,748.656,308.8z"/>
		<path fill-rule="evenodd" clip-rule="evenodd" fill="#9CA7D0" d="M415.92,388.735c0.168,5.024-14.203,2.135-14.946,1.949
			C405.758,389.837,414.202,392.649,415.92,388.735z"/>
		<path fill-rule="evenodd" clip-rule="evenodd" fill="#9CA7D0" d="M417.87,284.105c0-0.65,0-1.3,0-1.95
			c6.285,0.43,14.293-0.862,19.496,0.65C431.165,283.536,421.955,281.258,417.87,284.105z"/>
		<path fill-rule="evenodd" clip-rule="evenodd" fill="#9CA7D0" d="M598.535,388.735c0.168,5.024-14.203,2.135-14.947,1.949
			C588.373,389.837,596.817,392.649,598.535,388.735z"/>
		<path fill-rule="evenodd" clip-rule="evenodd" fill="#9CA7D0" d="M600.485,284.105c0-0.65,0-1.3,0-1.95
			c6.285,0.43,14.292-0.862,19.496,0.65C613.78,283.536,604.57,281.258,600.485,284.105z"/>
		<path fill-rule="evenodd" clip-rule="evenodd" fill="#9CA7D0" d="M657.024,326.347c-1.261-4.805-0.421-11.71-1.3-16.896
			c1.919,0.897,1.498,4.135,1.949,6.499C656.173,318.13,657.446,323.087,657.024,326.347z"/>
		<path fill-rule="evenodd" clip-rule="evenodd" fill="#9CA7D0" d="M676.521,389.385c2.677,2.739,10.186,0.646,14.947,1.3
			C688.134,391.19,677.806,393.091,676.521,389.385z"/>
		<path fill-rule="evenodd" clip-rule="evenodd" fill="#9CA7D0" d="M799.347,391.334c-12.998-0.432-27.727,0.866-39.643-0.649
			c0.434-35.96-0.866-73.652,0.65-108.529c12.997,0,25.995,0,38.992,0c0,0.217,0,0.433,0,0.65c-12.926,0-26.196,0-38.343,0
			c-1.125,0-0.649,24.066-0.649,27.294c0,26.661,0,57.848,0,80.585c12.997,0,25.995,0,38.992,0
			C799.347,390.901,799.347,391.118,799.347,391.334z"/>
		<path fill-rule="evenodd" clip-rule="evenodd" fill="#9CA7D0" d="M453.613,390.685c0.217,0,0.434,0,0.649,0
			c-3.416,0.156-15.282,3.159-15.597-1.949C440.384,392.649,448.828,389.837,453.613,390.685z"/>
		<path fill-rule="evenodd" clip-rule="evenodd" fill="#9CA7D0" d="M551.095,375.088c1.51,4.122,0.221,11.043,0.649,16.246
			c-13.215-0.432-28.16,0.866-40.292-0.649c13.214,0,26.429,0,39.643,0C551.095,385.485,551.095,380.286,551.095,375.088z"/>
		<path fill-rule="evenodd" clip-rule="evenodd" fill="#9CA7D0" d="M636.229,390.685c0.216,0,0.433,0,0.649,0
			c-3.416,0.156-15.282,3.159-15.597-1.949C622.999,392.649,631.443,389.837,636.229,390.685z"/>
		<path fill-rule="evenodd" clip-rule="evenodd" fill="#9CA7D0" d="M604.385,345.193c0,0.217,0,0.434,0,0.649
			c0.861,2.134,10.186,2.134,11.048,0c1.796,3.763-8.313,1.207-11.698,1.95c0-0.866,0-1.733,0-2.6
			C603.951,345.193,604.168,345.193,604.385,345.193z"/>
		<path fill-rule="evenodd" clip-rule="evenodd" fill="#9CA7D0" d="M421.77,345.193c0,0.217,0,0.434,0,0.649
			c0.818,1.895,11.235,2.735,11.048-0.649c2.526,4.707-8.141,1.813-11.698,2.6c0-0.866,0-1.733,0-2.6
			C421.336,345.193,421.553,345.193,421.77,345.193z"/>
		<path fill-rule="evenodd" clip-rule="evenodd" fill="#C8CEE5" d="M771.402,0.109c2.166,0,4.332,0,6.499,0c0,0.217,0,0.433,0,0.65
			c-2.167,0-4.333,0-6.499,0C771.402,0.542,771.402,0.326,771.402,0.109z"/>
		<path fill-rule="evenodd" clip-rule="evenodd" fill="#001B85" d="M484.808,39.102c0.551-17.221,2.682-33.887,15.597-37.693
			c20.946-6.172,36.24,11.159,33.144,35.743c-4.766,0-9.531,0-14.297,0c5.264-24.548-22.401-26.414-20.146-3.899
			c-1.083,14.515-1.083,33.576,0,48.091c0.912,7.325,1.555,14.86,7.148,16.247c10.099,2.504,13.145-9.076,12.998-20.146
			c3.017-7.675-0.577-9.741-9.099-8.448c0-5.199,0-10.398,0-15.597c7.582,0,15.164,0,22.746,0c0,19.279,0,38.559,0,57.839
			c-3.25,0-6.499,0-9.749,0c-0.486-3.128,1.193-14.113-1.3-11.048c-1.382,5.963-4.065,11.267-8.448,12.997
			c-19.022,7.512-30.354-15.672-28.594-33.793c-0.421-3.045,0.85-7.782-0.65-9.748c0-7.365,0-14.73,0-22.096
			C485.652,46.012,484.39,41.718,484.808,39.102z"/>
		<path fill-rule="evenodd" clip-rule="evenodd" fill="#001B85" d="M777.901,0.759c14.415,1.398,19.819,11.808,20.796,26.645
			c0.407,1.975-0.832,5.598,0.649,6.499c0,1.083,0,2.167,0,3.25c-4.766,0-9.531,0-14.297,0c5.087-23.262-22.217-27.399-20.146-4.549
			c-1.083,14.949-1.083,34.442,0,49.391c0.198,9.761,3.332,17.154,11.698,15.597c7.483-1.393,7.862-12.155,8.448-21.446
			c1.077-0.91,1.077-6.239,0-7.149c-3.249,0-6.499,0-9.748,0c0-5.199,0-10.398,0-15.597c7.798,0,15.597,0,23.396,0
			c0,19.279,0,38.559,0,57.839c-3.25,0-6.499,0-9.748,0c-0.458-3.455,1.15-12.397-1.3-11.698
			c-1.715,6.835-4.556,12.922-10.398,14.297c-21.969,5.172-28.212-20.687-27.295-40.942c0-9.098,0-18.197,0-27.295
			c0.626-21.47,1.428-42.764,21.446-44.841C773.568,0.759,775.734,0.759,777.901,0.759z"/>
		<path fill-rule="evenodd" clip-rule="evenodd" fill="#9CA7D0" d="M457.513,3.359c3.262-1.082,11.034-1.082,14.297,0
			c-0.217,0-0.434,0-0.649,0C466.61,3.359,462.062,3.359,457.513,3.359z"/>
		<path fill-rule="evenodd" clip-rule="evenodd" fill="#9CA7D0" d="M547.845,3.359c3.263-1.082,11.035-1.082,14.298,0
			c-0.217,0-0.434,0-0.65,0C556.943,3.359,552.395,3.359,547.845,3.359z"/>
		<path fill-rule="evenodd" clip-rule="evenodd" fill="#9CA7D0" d="M660.924,3.359c3.262-1.082,11.034-1.082,14.297,0
			c-0.217,0-0.434,0-0.649,0C670.021,3.359,665.473,3.359,660.924,3.359z"/>
		<path fill-rule="evenodd" clip-rule="evenodd" fill="#001B85" d="M703.815,3.359c6.973,27.47,16.039,52.847,20.796,82.534
			c1.1-8.036-0.938-18.555-0.65-27.945c-0.422-3.26,0.853-8.217-0.649-10.398c0-2.816,0-5.632,0-8.448c0-2.167,0-4.333,0-6.499
			c0.432-9.533-0.864-20.794,0.649-29.244c4.333,0,8.665,0,12.998,0c0,35.96,0,71.919,0,107.879c-4.766,0-9.531,0-14.297,0
			c0.105-0.756-0.144-1.156-0.65-1.3c-6.684-24.294-14.446-47.509-19.496-73.436c-0.131-2.469-0.575-4.624-1.3-6.499
			c-0.483,3.311-0.263,11.518,0.649,15.597c0,2.6,0,5.199,0,7.799c0.408,1.975-0.832,5.598,0.65,6.499c0,1.083,0,2.167,0,3.25
			c0.426,4.123-0.856,9.955,0.649,12.998c0,11.698,0,23.396,0,35.093c-4.549,0-9.098,0-13.647,0c0-35.96,0-71.919,0-107.879
			C694.284,3.359,699.05,3.359,703.815,3.359z"/>
		<path fill-rule="evenodd" clip-rule="evenodd" fill="#001B85" d="M272.948,1.409c-3.997,18.966-8.516,37.409-12.348,56.539
			c-40.51,1.515-83.833,0.218-125.426,0.65c0.433,19.497-0.866,40.725,0.65,59.139c36.176,0.433,74.086-0.866,109.179,0.65
			c-4.508,19.104-8.863,38.361-13.647,57.189c-31.411,0.433-64.554-0.866-94.882,0.65c0,19.28,0,38.56,0,57.839
			c24.913,1.949,54.373-0.649,79.285,1.3c-13.609,51.162-26.536,103.006-40.292,154.021c0-32.061,0-64.121,0-96.182
			c-31.194-1.516-65.204-0.217-97.481-0.65c0-16.463,0-32.927,0-49.39c0-30.544,0-61.089,0-91.633c0-31.627,0-63.255,0-94.882
			c0-18.63,0-37.259,0-55.889C142.756,1.192,209.26-0.107,272.948,1.409z"/>
		<path fill-rule="evenodd" clip-rule="evenodd" fill="#FFFFFF" d="M798.697,27.404c-0.977-14.837-6.381-25.247-20.796-26.645
			c0-0.217,0-0.433,0-0.65c7.148,0,14.297,0,21.445,0c0,9.098,0,18.196,0,27.295C799.13,27.404,798.914,27.404,798.697,27.404z"/>
		<path fill-rule="evenodd" clip-rule="evenodd" fill="#2A4199" d="M799.347,27.404c0,2.166,0,4.333,0,6.499
			c-1.481-0.901-0.242-4.523-0.649-6.499C798.914,27.404,799.13,27.404,799.347,27.404z"/>
		<path fill-rule="evenodd" clip-rule="evenodd" fill="#9CA7D0" d="M701.865,45.601c-0.912-4.079-1.133-12.286-0.649-15.597
			c0.725,1.875,1.169,4.029,1.3,6.499C701.018,38.254,702.285,42.771,701.865,45.601z"/>
		<path fill-rule="evenodd" clip-rule="evenodd" fill="#2A4199" d="M484.808,39.102c-0.418,2.616,0.845,6.91-0.65,8.448
			C484.574,44.935,483.313,40.64,484.808,39.102z"/>
		<path fill-rule="evenodd" clip-rule="evenodd" fill="#5F71B3" d="M562.143,45.601c0,0.217,0,0.434,0,0.65c-0.217,0-0.434,0-0.65,0
			c0-14.297,0-28.595,0-42.892c0.217,0,0.434,0,0.65,0C562.143,17.439,562.143,31.52,562.143,45.601z"/>
		<path fill-rule="evenodd" clip-rule="evenodd" fill="#5F71B3" d="M581.639,46.25c0-0.216,0-0.433,0-0.65
			c0-14.081,0-28.161,0-42.242c0.217,0,0.434,0,0.649,0C581.855,17.44,583.154,33.252,581.639,46.25z"/>
		<path fill-rule="evenodd" clip-rule="evenodd" fill="#9CA7D0" d="M723.312,47.55c1.502,2.181,0.228,7.138,0.649,10.398
			C722.46,55.767,723.733,50.811,723.312,47.55z"/>
		<path fill-rule="evenodd" clip-rule="evenodd" fill="#5F71B3" d="M701.865,53.399c1.482,0.901,0.242,4.523,0.65,6.499
			C701.033,58.997,702.273,55.375,701.865,53.399z"/>
		<path fill-rule="evenodd" clip-rule="evenodd" fill="#9CA7D0" d="M702.516,63.147c1.507,3.042,0.224,8.874,0.649,12.998
			C701.659,73.103,702.941,67.271,702.516,63.147z"/>
		<path fill-rule="evenodd" clip-rule="evenodd" fill="#2A4199" d="M484.157,69.646c1.5,1.966,0.229,6.703,0.65,9.748
			C483.308,77.428,484.578,72.691,484.157,69.646z"/>
		<path fill-rule="evenodd" clip-rule="evenodd" fill="#9CA7D0" d="M798.697,111.238c0.217,0,0.433,0,0.649,0
			c0,0.216,0,0.433,0,0.65c-3.683,0-7.365,0-11.048,0c0-0.217,0-0.434,0-0.65c0.217,0,0.434,0,0.65,0
			C792.198,111.238,795.447,111.238,798.697,111.238z"/>
		<path fill-rule="evenodd" clip-rule="evenodd" fill="#9CA7D0" d="M135.824,117.087c36.609,0,73.219,0,109.829,0
			c-0.146,0.504-0.018,1.282-0.65,1.3c-35.093-1.516-73.002-0.217-109.179-0.65C135.824,117.52,135.824,117.304,135.824,117.087z"/>
		<path fill-rule="evenodd" clip-rule="evenodd" fill="#5F71B3" d="M694.067,139.183c0.91-1.077,6.238-1.077,7.148,0
			C698.833,139.183,696.45,139.183,694.067,139.183z"/>
		<path fill-rule="evenodd" clip-rule="evenodd" fill="#001B85" d="M701.216,139.183c16.977,0.57,23.414,11.679,24.695,27.945
			c0,2.6,0,5.199,0,7.798c-5.416,0-10.831,0-16.247,0c6.154-22.677-24.337-26.713-23.396-5.849c-1.083,16.031-1.083,36.608,0,52.64
			c0.515,22.266,26.521,15.415,23.396-5.199c1.079-1.545,1.079-7.553,0-9.098c-2.396-1.503-7.572-0.227-11.048-0.65
			c0-4.982,0-9.965,0-14.947c9.099,0,18.196,0,27.295,0c0,19.28,0,38.559,0,57.839c-3.899,0-7.799,0-11.698,0
			c0-4.116,0-8.232,0-12.348c-0.755-0.106-1.156,0.144-1.3,0.65c-1.98,6.179-5.326,11.84-10.397,13.647
			c-19.968,7.114-35.026-13.683-33.144-33.144c-0.408-1.976,0.832-5.598-0.65-6.499c0-9.748,0-19.496,0-29.244
			c1.482-0.901,0.242-4.523,0.65-6.499c0.532-20.047,5.044-36.115,24.695-37.043C696.45,139.183,698.833,139.183,701.216,139.183z"
			/>
		<path fill-rule="evenodd" clip-rule="evenodd" fill="#2A4199" d="M597.886,141.132c11.266,0.432,24.261-0.865,34.443,0.65
			c-11.481,0-22.963,0-34.443,0C597.886,141.565,597.886,141.349,597.886,141.132z"/>
		<path fill-rule="evenodd" clip-rule="evenodd" fill="#2A4199" d="M736.959,143.082c-0.757-0.109-0.706-1.027-0.65-1.95
			c6.066,0,12.132,0,18.197,0c0,0.217,0,0.433,0,0.65C749.041,142.6,740.274,140.116,736.959,143.082z"/>
		<path fill-rule="evenodd" clip-rule="evenodd" fill="#2A4199" d="M781.15,141.782c4.771-1.511,12.344-0.22,18.196-0.65
			c0,0.433,0,0.867,0,1.3c-0.217,0-0.433,0-0.649,0C794.143,140.921,786.787,142.211,781.15,141.782z"/>
		<path fill-rule="evenodd" clip-rule="evenodd" fill="#001B85" d="M632.329,141.782c26.172-4.088,29.035,46.408,8.448,51.34
			c6.921,2.828,12.241,7.255,12.348,16.896c0.431,6.718-0.862,15.16,0.649,20.796c-0.693,8.059,1.321,13.409,3.25,18.846
			c-6.065,0-12.131,0-18.196,0c-4.752-12.146,1.947-35.741-5.85-44.841c-2.094-0.289-3.521-1.245-5.849-1.3
			c-3.042-1.507-8.874-0.224-12.997-0.65c-1.516,14.298-0.218,31.41-0.65,46.791c-5.199,0-10.397,0-15.597,0
			c0-35.96,0-71.919,0-107.879C609.366,141.782,620.848,141.782,632.329,141.782z M614.133,157.379
			c-1.083,8.452-1.083,21.442,0,29.894c4.771-0.428,11.257,0.859,14.947-0.65c0.433,0,0.866,0,1.299,0
			c8.174-3.397,10.529-28.761-1.949-29.244C625.167,156.298,617.395,156.298,614.133,157.379z"/>
		<path fill-rule="evenodd" clip-rule="evenodd" fill="#001B85" d="M482.857,141.782c8.838,26.688,18.551,52.502,24.695,81.884
			c0.592-10.125-1.301-23.392-1.3-35.093c-0.424-3.691,0.854-9.086-0.649-11.698c0-11.698,0-23.396,0-35.093
			c5.415,0,10.831,0,16.246,0c0,35.96,0,71.919,0,107.879c-5.632,0-11.264,0-16.896,0c-8.359-26.083-18.4-50.486-24.045-79.285
			c0.028-1.112-0.483-1.684-1.3-1.95c0.402,1.764-0.825,5.157,0.649,5.849c0.162,8.937,1.327,16.87,1.3,25.995
			c0.423,3.26-0.852,8.217,0.65,10.398c0,2.816,0,5.632,0,8.448c0,3.25,0,6.499,0,9.749c0,6.932,0,13.864,0,20.796
			c-5.416,0-10.832,0-16.247,0c0-35.96,0-71.919,0-107.879C471.593,141.782,477.226,141.782,482.857,141.782z"/>
		<path fill-rule="evenodd" clip-rule="evenodd" fill="#5F71B3" d="M614.133,157.379c3.262-1.082,11.034-1.082,14.297,0
			C623.664,157.379,618.898,157.379,614.133,157.379z"/>
		<path fill-rule="evenodd" clip-rule="evenodd" fill="#FFFFFF" d="M628.43,157.379c12.479,0.483,10.123,25.847,1.949,29.244
			c-0.433,0-0.866,0-1.299,0c-4.982,0-9.965,0-14.947,0c0-9.748,0-19.496,0-29.244C618.898,157.379,623.664,157.379,628.43,157.379z
			"/>
		<path fill-rule="evenodd" clip-rule="evenodd" fill="#5F71B3" d="M725.911,167.127c1.491,1.325,0.235,5.397,0.649,7.798
			c-0.217,0-0.433,0-0.649,0C725.911,172.326,725.911,169.727,725.911,167.127z"/>
		<path fill-rule="evenodd" clip-rule="evenodd" fill="#001B85" d="M754.506,141.782c4.572,14.924,9.961,29.031,13.647,44.841
			c2.387-16.893,8.741-29.817,12.997-44.841c5.637,0.429,12.992-0.861,17.547,0.65c-7.383,20.562-15.459,40.431-22.746,61.088
			c-1.516,14.082-0.217,30.977-0.649,46.141c-5.199,0-10.398,0-15.598,0c-0.433-15.165,0.866-32.06-0.649-46.141
			c-7.041-20.47-14.906-40.117-22.096-60.438C740.274,140.116,749.041,142.6,754.506,141.782z"/>
		<path fill-rule="evenodd" clip-rule="evenodd" fill="#5F71B3" d="M669.372,176.226c-0.408,1.976,0.832,5.598-0.65,6.499
			C669.13,180.749,667.89,177.126,669.372,176.226z"/>
		<path fill-rule="evenodd" clip-rule="evenodd" fill="#9CA7D0" d="M505.604,176.875c1.504,2.611,0.226,8.006,0.649,11.698
			C504.749,185.962,506.027,180.567,505.604,176.875z"/>
		<path fill-rule="evenodd" clip-rule="evenodd" fill="#C8CEE5" d="M614.133,186.624c4.982,0,9.965,0,14.947,0
			c-3.69,1.509-10.177,0.222-14.947,0.65C614.133,187.057,614.133,186.84,614.133,186.624z"/>
		<path fill-rule="evenodd" clip-rule="evenodd" fill="#C8CEE5" d="M614.133,202.871c4.123,0.426,9.955-0.857,12.997,0.65
			c-4.332,0-8.665,0-12.997,0C614.133,203.304,614.133,203.087,614.133,202.871z"/>
		<path fill-rule="evenodd" clip-rule="evenodd" fill="#9CA7D0" d="M481.558,200.271c1.502,2.181,0.228,7.138,0.65,10.398
			C480.706,208.488,481.98,203.531,481.558,200.271z"/>
		<path fill-rule="evenodd" clip-rule="evenodd" fill="#5F71B3" d="M709.664,207.42c1.079,1.545,1.079,7.553,0,9.098
			C709.664,213.485,709.664,210.453,709.664,207.42z"/>
		<path fill-rule="evenodd" clip-rule="evenodd" fill="#5F71B3" d="M668.722,211.969c1.482,0.901,0.242,4.523,0.65,6.499
			C667.89,217.566,669.13,213.944,668.722,211.969z"/>
		<path fill-rule="evenodd" clip-rule="evenodd" fill="#9CA7D0" d="M423.069,233.415c9.749,0.432,21.227-0.864,29.894,0.65
			c-0.216,0-0.433,0-0.649,0c-9.75-0.432-21.228,0.865-29.895-0.65C422.636,233.415,422.853,233.415,423.069,233.415z"/>
		<path fill-rule="evenodd" clip-rule="evenodd" fill="#9CA7D0" d="M554.994,233.415c9.749,0.432,21.227-0.864,29.894,0.65
			c-0.216,0-0.433,0-0.649,0c-9.75-0.432-21.228,0.865-29.895-0.65C554.561,233.415,554.777,233.415,554.994,233.415z"/>
		<path fill-rule="evenodd" clip-rule="evenodd" fill="#9CA7D0" d="M136.474,234.064c26.645,0,53.29,0,79.935,0
			c-0.146,0.504-0.018,1.282-0.65,1.3C190.847,233.415,161.386,236.014,136.474,234.064z"/>
		<path fill-rule="evenodd" clip-rule="evenodd" fill="#9CA7D0" d="M724.611,280.206c0.701-1.076,5.798-1.076,6.499,0
			C728.943,280.206,726.777,280.206,724.611,280.206z"/>
		<path fill-rule="evenodd" clip-rule="evenodd" fill="#9CA7D0" d="M511.452,282.805c3.263-1.081,11.035-1.081,14.297,0
			c-0.216,0-0.433,0-0.649,0C520.551,282.805,516.001,282.805,511.452,282.805z"/>
		<path fill-rule="evenodd" clip-rule="evenodd" fill="#001B85" d="M417.87,284.105c4.085-2.847,13.295-0.569,19.496-1.3
			c4.79,36.585,11.389,71.362,16.247,107.879c-4.785-0.848-13.229,1.965-14.947-1.949c-0.798-8.517-1.679-16.951-3.249-24.695
			c-3.844-0.368-15.162-2.605-16.897,1.3c-0.2,8.465-2.605,14.724-2.6,23.396c-1.718,3.914-10.162,1.102-14.946,1.949
			C405.963,354.516,412.878,320.271,417.87,284.105z M432.817,345.193c-1.602-17.245-3.997-33.696-5.849-50.69
			c0.129,18.76-4.001,33.26-5.199,50.69c-0.217,0-0.434,0-0.65,0c0,0.866,0,1.733,0,2.6
			C424.677,347.006,435.344,349.9,432.817,345.193z"/>
		<path fill-rule="evenodd" clip-rule="evenodd" fill="#001B85" d="M600.485,284.105c4.085-2.847,13.295-0.569,19.496-1.3
			c4.682,36.694,11.43,71.321,16.247,107.879c-4.785-0.848-13.229,1.965-14.947-1.949c-0.667-8.648-1.785-16.845-3.25-24.695
			c-3.844-0.368-15.161-2.605-16.896,1.3c-0.335,8.329-2.522,14.807-2.6,23.396c-1.718,3.914-10.162,1.102-14.947,1.949
			C588.654,354.592,595.406,320.185,600.485,284.105z M615.433,345.843c-1.442-17.621-3.883-34.243-5.85-51.34
			c0.237,18.866-4.063,33.196-5.198,50.69c-0.217,0-0.434,0-0.65,0c0,0.866,0,1.733,0,2.6
			C607.119,347.05,617.229,349.605,615.433,345.843z"/>
		<path fill-rule="evenodd" clip-rule="evenodd" fill="#001B85" d="M658.974,282.805c6.235,26.042,14.616,49.938,19.496,77.335
			c-0.317,2.051,1.172,2.295,0.65,4.549c1.079-1.545,1.079-7.553,0-9.098c0-3.684,0-7.365,0-11.049
			c-0.407-1.975,0.832-5.598-0.65-6.498c0-1.083,0-2.166,0-3.25c-0.424-3.691,0.854-9.086-0.649-11.697c0-3.466,0-6.932,0-10.398
			c0-9.965,0-19.929,0-29.894c4.549,0,9.099,0,13.647,0c0,35.96,0,71.919,0,107.879c-4.762-0.654-12.271,1.439-14.947-1.3
			c-6.141-24.62-14.132-47.391-18.847-73.436c-0.451-2.364-0.03-5.602-1.949-6.499c0.879,5.187,0.039,12.092,1.3,16.896
			c0,2.816,0,5.633,0,8.448c0.411,2.188-0.838,6.037,0.649,7.149c0,1.083,0,2.166,0,3.249c0,4.982,0,9.965,0,14.947
			c0,10.182,0,20.362,0,30.544c-4.332,0-8.665,0-12.997,0c0-35.96,0-71.919,0-107.879
			C649.442,282.805,654.208,282.805,658.974,282.805z"/>
		<path fill-rule="evenodd" clip-rule="evenodd" fill="#FFFFFF" d="M421.77,345.193c1.198-17.431,5.328-31.931,5.199-50.69
			c1.852,16.994,4.247,33.445,5.849,50.69c0.188,3.385-10.229,2.544-11.048,0.649C421.77,345.627,421.77,345.41,421.77,345.193z"/>
		<path fill-rule="evenodd" clip-rule="evenodd" fill="#FFFFFF" d="M604.385,345.193c1.135-17.494,5.436-31.824,5.198-50.69
			c1.967,17.097,4.407,33.719,5.85,51.34c-0.862,2.134-10.187,2.134-11.048,0C604.385,345.627,604.385,345.41,604.385,345.193z"/>
		<path fill-rule="evenodd" clip-rule="evenodd" fill="#2A4199" d="M704.465,319.198c-0.417,2.615,0.845,6.91-0.649,8.448
			C704.232,325.031,702.971,320.736,704.465,319.198z"/>
		<path fill-rule="evenodd" clip-rule="evenodd" fill="#001B85" d="M799.347,298.402c-8.448,0-16.896,0-25.345,0
			c0,8.882,0,17.764,0,26.645c6.502,1.514,15.812,0.22,23.396,0.65c0,5.199,0,10.397,0,15.597
			c-7.584,0.431-16.894-0.863-23.396,0.65c0,10.831,0,21.662,0,32.493c7.151,1.514,17.111,0.219,25.345,0.65
			c0,5.198,0,10.397,0,15.597c-12.997,0-25.995,0-38.992,0c0-22.737,0-53.924,0-80.585c0-3.229-0.476-27.294,0.649-27.294
			c12.146,0,25.417,0,38.343,0C799.347,288.004,799.347,293.203,799.347,298.402z"/>
		<path fill-rule="evenodd" clip-rule="evenodd" fill="#9CA7D0" d="M677.82,323.098c1.504,2.611,0.226,8.006,0.649,11.697
			C676.966,332.184,678.244,326.789,677.82,323.098z"/>
		<path fill-rule="evenodd" clip-rule="evenodd" fill="#5F71B3" d="M657.024,334.795c1.487,1.112,0.238,4.961,0.649,7.149
			C656.187,340.832,657.436,336.983,657.024,334.795z"/>
		<path fill-rule="evenodd" clip-rule="evenodd" fill="#5F71B3" d="M678.47,338.045c1.482,0.9,0.243,4.523,0.65,6.498
			C677.638,343.643,678.878,340.02,678.47,338.045z"/>
		<path fill-rule="evenodd" clip-rule="evenodd" fill="#5F71B3" d="M774.002,341.944c6.502-1.514,15.812-0.22,23.396-0.65
			C790.896,342.808,781.586,341.513,774.002,341.944z"/>
		<path fill-rule="evenodd" clip-rule="evenodd" fill="#9CA7D0" d="M657.674,345.193c1.509,3.69,0.223,10.176,0.65,14.947
			c-0.217,0-0.434,0-0.65,0C657.674,355.158,657.674,350.176,657.674,345.193z"/>
		<path fill-rule="evenodd" clip-rule="evenodd" fill="#2A4199" d="M703.815,344.543c1.507,3.259,0.223,9.309,0.649,13.647
			C702.958,354.933,704.242,348.883,703.815,344.543z"/>
		<path fill-rule="evenodd" clip-rule="evenodd" fill="#9CA7D0" d="M679.12,355.592c1.079,1.545,1.079,7.553,0,9.098
			c0.521-2.254-0.968-2.498-0.65-4.549C679.923,359.86,678.733,356.938,679.12,355.592z"/>
		<path fill-rule="evenodd" clip-rule="evenodd" fill="#C8CEE5" d="M435.417,364.04c-5.372,0.693-13.626-1.495-16.897,1.3
			C420.255,361.435,431.573,363.672,435.417,364.04z"/>
		<path fill-rule="evenodd" clip-rule="evenodd" fill="#C8CEE5" d="M618.031,364.04c-5.372,0.693-13.625-1.495-16.896,1.3
			C602.87,361.435,614.188,363.672,618.031,364.04z"/>
		<path fill-rule="evenodd" clip-rule="evenodd" fill="#FFFFFF" d="M799.347,375.088c-8.233-0.432-18.193,0.863-25.345-0.65
			c0-10.831,0-21.662,0-32.493c7.584-0.432,16.894,0.863,23.396-0.65c0-5.199,0-10.397,0-15.597
			c-7.584-0.431-16.894,0.863-23.396-0.65c0-8.881,0-17.763,0-26.645c8.448,0,16.896,0,25.345,0
			C799.347,323.964,799.347,349.525,799.347,375.088z"/>
		<path fill-rule="evenodd" clip-rule="evenodd" fill="#C8CEE5" d="M724.611,393.284c2.166,0,4.332,0,6.499,0
			c0,0.217,0,0.434,0,0.649c-2.167,0-4.333,0-6.499,0C724.611,393.718,724.611,393.501,724.611,393.284z"/>
		<path fill-rule="evenodd" clip-rule="evenodd" fill="#9CA7D0" d="M77.335,0.109c65.421,0,130.841,0,196.263,0
			c-0.146,0.504-0.018,1.282-0.65,1.3C209.26-0.107,142.756,1.192,77.985,0.759c-0.216,0-0.433,0-0.65,0
			C77.335,0.542,77.335,0.326,77.335,0.109z"/>
		<path fill-rule="evenodd" clip-rule="evenodd" fill="#9CA7D0" d="M406.172,3.359c3.263-1.082,11.035-1.082,14.298,0
			c-4.55,0-9.099,0-13.647,0C406.605,3.359,406.389,3.359,406.172,3.359z"/>
		<path fill-rule="evenodd" clip-rule="evenodd" fill="#9CA7D0" d="M581.639,3.359c3.263-1.082,11.035-1.082,14.297,0
			c-4.549,0-9.098,0-13.647,0C582.072,3.359,581.855,3.359,581.639,3.359z"/>
		<path fill-rule="evenodd" clip-rule="evenodd" fill="#9CA7D0" d="M688.868,3.359c3.478-1.082,11.469-1.082,14.947,0
			c-4.766,0-9.531,0-14.298,0C689.301,3.359,689.085,3.359,688.868,3.359z"/>
		<path fill-rule="evenodd" clip-rule="evenodd" fill="#9CA7D0" d="M775.302,68.996c3.249,0,6.499,0,9.748,0c0,0.217,0,0.434,0,0.65
			C782.005,69.225,777.268,70.496,775.302,68.996z"/>
		<path fill-rule="evenodd" clip-rule="evenodd" fill="#9CA7D0" d="M722.012,109.938c0.507,0.144,0.756,0.544,0.65,1.3
			c4.766,0,9.531,0,14.297,0c0.217,0,0.433,0,0.649,0C734.177,111.626,723.343,113.814,722.012,109.938z"/>
		<path fill-rule="evenodd" clip-rule="evenodd" fill="#9CA7D0" d="M406.172,141.782c0,35.96,0,71.919,0,107.879
			c-1.083-34.66-1.083-73.869,0-108.529C406.172,141.349,406.172,141.565,406.172,141.782z"/>
		<path fill-rule="evenodd" clip-rule="evenodd" fill="#9CA7D0" d="M538.097,141.782c0,35.96,0,71.919,0,107.879
			c-1.083-34.66-1.083-73.869,0-108.529C538.097,141.349,538.097,141.565,538.097,141.782z"/>
		<path fill-rule="evenodd" clip-rule="evenodd" fill="#C8CEE5" d="M686.269,169.077c0,17.546,0,35.093,0,52.64
			C685.186,205.686,685.186,185.108,686.269,169.077z"/>
		<path fill-rule="evenodd" clip-rule="evenodd" fill="#9CA7D0" d="M653.125,210.019c1.513,5.636,0.22,14.078,0.649,20.796
			C652.263,225.179,653.556,216.737,653.125,210.019z"/>
		<path fill-rule="evenodd" clip-rule="evenodd" fill="#9CA7D0" d="M293.094,232.115c0,0.65,0,1.3,0,1.95
			c12.781,0,25.562,0,38.343,0c-11.483,1.083-27.509,1.083-38.993,0C292.546,233.3,292.333,232.22,293.094,232.115z"/>
		<path fill-rule="evenodd" clip-rule="evenodd" fill="#9CA7D0" d="M461.412,282.805c3.262-1.081,11.034-1.081,14.297,0
			c-4.549,0-9.099,0-13.647,0C461.845,282.805,461.628,282.805,461.412,282.805z"/>
		<path fill-rule="evenodd" clip-rule="evenodd" fill="#9CA7D0" d="M644.026,282.805c3.479-1.082,11.47-1.082,14.947,0
			c-4.766,0-9.531,0-14.297,0C644.46,282.805,644.243,282.805,644.026,282.805z"/>
		<path fill-rule="evenodd" clip-rule="evenodd" fill="#C8CEE5" d="M718.763,309.45c0,18.196,0,36.393,0,54.59
			C717.68,347.358,717.68,326.131,718.763,309.45z"/>
		<path fill-rule="evenodd" clip-rule="evenodd" fill="#9CA7D0" d="M462.062,390.685c12.997,0,25.995,0,38.992,0
			c0.217,0,0.434,0,0.65,0c-11.916,1.083-28.376,1.083-40.292,0C461.628,390.685,461.845,390.685,462.062,390.685z"/>
		<path fill-rule="evenodd" clip-rule="evenodd" fill="#9CA7D0" d="M644.677,390.685c4.332,0,8.665,0,12.997,0
			c0.217,0,0.434,0,0.65,0c-3.263,1.081-11.035,1.081-14.298,0C644.243,390.685,644.46,390.685,644.677,390.685z"/>
		<path fill-rule="evenodd" clip-rule="evenodd" fill="#FFFFFF" d="M764.903,32.603c-2.07-22.85,25.233-18.712,20.146,4.549
			c4.766,0,9.531,0,14.297,0c0,5.416,0,10.831,0,16.247c-0.217,0-0.433,0-0.649,0c-6.287-1.083-17.108-1.083-23.396,0
			c0,5.199,0,10.398,0,15.597c1.966,1.5,6.703,0.229,9.748,0.65c0,2.167,0,4.333,0,6.499c-0.586,9.291-0.965,20.053-8.448,21.446
			c-8.366,1.557-11.5-5.836-11.698-15.597C764.903,65.53,764.903,49.067,764.903,32.603z"/>
		<path fill-rule="evenodd" clip-rule="evenodd" fill="#9CA7D0" d="M764.903,32.603c0,16.464,0,32.927,0,49.391
			C763.82,67.045,763.82,47.552,764.903,32.603z"/>
		<path fill-rule="evenodd" clip-rule="evenodd" fill="#5F71B3" d="M735.659,352.342c-0.421,3.045,0.85,7.782-0.649,9.748
			c0-3.249,0-6.498,0-9.748C735.226,352.342,735.442,352.342,735.659,352.342z"/>
		<path fill-rule="evenodd" clip-rule="evenodd" fill="#5F71B3" d="M499.104,33.253c0,16.03,0,32.061,0,48.091
			C498.021,66.829,498.021,47.768,499.104,33.253z"/>
		<path fill-rule="evenodd" clip-rule="evenodd" fill="#5F71B3" d="M581.639,61.848c0.217,0,0.434,0,0.649,0
			c0,16.463,0,32.927,0,49.391c-0.216,0-0.433,0-0.649,0c0-16.247,0-32.494,0-48.741C581.639,62.281,581.639,62.064,581.639,61.848z
			"/>
		<path fill-rule="evenodd" clip-rule="evenodd" fill="#2A4199" d="M712.913,237.964c0.144-0.506,0.545-0.756,1.3-0.65
			c0,4.116,0,8.232,0,12.348C712.282,247.26,714.845,240.365,712.913,237.964z"/>
		<path fill-rule="evenodd" clip-rule="evenodd" fill="#5F71B3" d="M277.497,293.203c16.248-1.083,37.042-1.083,53.29,0
			C313.023,293.203,295.26,293.203,277.497,293.203z"/>
		<path fill-rule="evenodd" clip-rule="evenodd" fill="#001B85" d="M314.54,82.644c-16.604,6.142-31.591,13.9-48.091,20.146
			c3.303-12.51,6.275-25.352,9.748-37.693C288.717,71.207,303.065,75.488,314.54,82.644z"/>
		<path fill-rule="evenodd" clip-rule="evenodd" fill="#001B85" d="M704.465,319.198c0.29-19.423,2.729-36.696,20.146-38.993
			c2.166,0,4.332,0,6.499,0c12.966,2.415,16.754,14.006,17.546,28.594c-0.411,2.188,0.838,6.037-0.649,7.149
			c-4.239-0.743-11.777,1.813-12.997-1.95c-0.293-7.072-0.422-14.309-4.55-17.546c-9.154-0.923-10.769,5.695-11.697,12.998
			c-1.083,16.681-1.083,37.908,0,54.59c0.174,18.145,19.346,15.657,16.247-1.95c1.499-1.966,0.229-6.703,0.649-9.748
			c4.339,0.427,10.389-0.857,13.647,0.65c-0.681,18.815-1.78,37.212-18.196,40.292c-2.167,0-4.333,0-6.499,0
			c-16.071-2.342-20.021-16.806-20.146-35.094c-0.427-4.339,0.857-10.389-0.649-13.647c0-5.632,0-11.264,0-16.896
			C705.31,326.108,704.048,321.813,704.465,319.198z"/>
	</g>
</g>
</svg>
